<?xml version="1.0" encoding="UTF-8" standalone="no"?><svg xmlns="http://www.w3.org/2000/svg" xmlns:xlink="http://www.w3.org/1999/xlink" contentScriptType="application/ecmascript" contentStyleType="text/css" height="1081px" preserveAspectRatio="none" style="width:1679px;height:1081px;" version="1.1" viewBox="0 0 1679 1081" width="1679px" zoomAndPan="magnify"><defs><filter height="300%" id="fju271ps7xq79" width="300%" x="-1" y="-1"><feGaussianBlur result="blurOut" stdDeviation="2.0"/><feColorMatrix in="blurOut" result="blurOut2" type="matrix" values="0 0 0 0 0 0 0 0 0 0 0 0 0 0 0 0 0 0 .4 0"/><feOffset dx="4.0" dy="4.0" in="blurOut2" result="blurOut3"/><feBlend in="SourceGraphic" in2="blurOut3" mode="normal"/></filter><linearGradient id="gju271ps7xq790" x1="0%" x2="100%" y1="0%" y2="100%"><stop offset="0%" stop-color="#FFFFF0"/><stop offset="100%" stop-color="#FFFFFF"/></linearGradient><linearGradient id="gju271ps7xq791" x1="0%" x2="100%" y1="0%" y2="100%"><stop offset="0%" stop-color="#B7DDFC"/><stop offset="100%" stop-color="#FFFFFF"/></linearGradient></defs><g><!--cluster laserGameSystem--><rect fill="#FFFFFF" filter="url(#fju271ps7xq79)" height="1046" style="stroke: #000000; stroke-width: 1.5;" width="1646" x="22" y="24"/><path d="M172,25 L172,33.4883 L162,43.4883 L22,43.4883 " fill="none" style="stroke: #000000; stroke-width: 1.5;"/><text fill="#000000" font-family="sans-serif" font-size="14" font-weight="bold" lengthAdjust="spacingAndGlyphs" textLength="140" x="25" y="38.5352">Laser Game System</text><!--cluster Platforms--><rect fill="#FFFFFF" filter="url(#fju271ps7xq79)" height="158" style="stroke: #000000; stroke-width: 1.5;" width="781" x="278" y="888"/><path d="M359,889 L359,897.4883 L349,907.4883 L278,907.4883 " fill="none" style="stroke: #000000; stroke-width: 1.5;"/><text fill="#000000" font-family="sans-serif" font-size="14" font-weight="bold" lengthAdjust="spacingAndGlyphs" textLength="71" x="281" y="902.5352">Platforms</text><!--cluster PC--><polygon fill="#FFFFFF" filter="url(#fju271ps7xq79)" points="851,931,876,931,883,953.4883,1035,953.4883,1035,1022,851,1022,851,931" style="stroke: #000000; stroke-width: 1.5;"/><line style="stroke: #000000; stroke-width: 1.5;" x1="851" x2="883" y1="953.4883" y2="953.4883"/><text fill="#000000" font-family="sans-serif" font-size="14" font-weight="bold" lengthAdjust="spacingAndGlyphs" textLength="19" x="855" y="946.5352">PC</text><!--cluster Arduino--><polygon fill="#FFFFFF" filter="url(#fju271ps7xq79)" points="725,931,788,931,795,953.4883,827,953.4883,827,1022,725,1022,725,931" style="stroke: #000000; stroke-width: 1.5;"/><line style="stroke: #000000; stroke-width: 1.5;" x1="725" x2="795" y1="953.4883" y2="953.4883"/><text fill="#000000" font-family="sans-serif" font-size="14" font-weight="bold" lengthAdjust="spacingAndGlyphs" textLength="57" x="729" y="946.5352">Arduino</text><!--cluster Nucleo--><polygon fill="#FFFFFF" filter="url(#fju271ps7xq79)" points="605,931,660,931,667,953.4883,701,953.4883,701,1022,605,1022,605,931" style="stroke: #000000; stroke-width: 1.5;"/><line style="stroke: #000000; stroke-width: 1.5;" x1="605" x2="667" y1="953.4883" y2="953.4883"/><text fill="#000000" font-family="sans-serif" font-size="14" font-weight="bold" lengthAdjust="spacingAndGlyphs" textLength="49" x="609" y="946.5352">Nucleo</text><!--cluster hwAbstraction--><rect fill="#FFFFFF" filter="url(#fju271ps7xq79)" height="321" style="stroke: #000000; stroke-width: 1.5;" width="960" x="46" y="543"/><path d="M168,544 L168,552.4883 L158,562.4883 L46,562.4883 " fill="none" style="stroke: #000000; stroke-width: 1.5;"/><text fill="#000000" font-family="sans-serif" font-size="14" font-weight="bold" lengthAdjust="spacingAndGlyphs" textLength="112" x="49" y="557.5352">HW Abstraction</text><!--cluster gameSystem--><rect fill="#FFFFFF" filter="url(#fju271ps7xq79)" height="452" style="stroke: #000000; stroke-width: 1.5;" width="1091" x="46" y="67"/><path d="M153,68 L153,76.4883 L143,86.4883 L46,86.4883 " fill="none" style="stroke: #000000; stroke-width: 1.5;"/><text fill="#000000" font-family="sans-serif" font-size="14" font-weight="bold" lengthAdjust="spacingAndGlyphs" textLength="97" x="49" y="81.5352">Game System</text><!--cluster Drivers--><polygon fill="#FFFFFF" filter="url(#fju271ps7xq79)" points="337,210,395,210,402,232.4883,872,232.4883,872,495,337,495,337,210" style="stroke: #000000; stroke-width: 1.5;"/><line style="stroke: #000000; stroke-width: 1.5;" x1="337" x2="402" y1="232.4883" y2="232.4883"/><text fill="#000000" font-family="sans-serif" font-size="14" font-weight="bold" lengthAdjust="spacingAndGlyphs" textLength="52" x="341" y="225.5352">Drivers</text><!--cluster programs--><rect fill="#FFFFFF" filter="url(#fju271ps7xq79)" height="255" style="stroke: #000000; stroke-width: 1.5;" width="483" x="1161" y="391"/><path d="M1240,392 L1240,400.4883 L1230,410.4883 L1161,410.4883 " fill="none" style="stroke: #000000; stroke-width: 1.5;"/><text fill="#000000" font-family="sans-serif" font-size="14" font-weight="bold" lengthAdjust="spacingAndGlyphs" textLength="69" x="1164" y="405.5352">Programs</text><path d="M294.5,958 L294.5,1013.9316 L585.5,1013.9316 L585.5,968 L575.5,958 L294.5,958 " fill="url(#gju271ps7xq790)" filter="url(#fju271ps7xq79)" style="stroke: #000000; stroke-width: 1.0;"/><path d="M575.5,958 L575.5,968 L585.5,968 L575.5,958 " fill="url(#gju271ps7xq790)" style="stroke: #000000; stroke-width: 1.0;"/><text fill="#000000" font-family="sans-serif" font-size="13" lengthAdjust="spacingAndGlyphs" textLength="270" x="300.5" y="975.5684">The various hardware platforms implement</text><text fill="#000000" font-family="sans-serif" font-size="13" lengthAdjust="spacingAndGlyphs" textLength="239" x="300.5" y="990.8789">the specific instances of the hardware</text><text fill="#000000" font-family="sans-serif" font-size="13" lengthAdjust="spacingAndGlyphs" textLength="82" x="300.5" y="1006.1895">components.</text><!--class PC.sdlLib--><rect fill="url(#gju271ps7xq791)" filter="url(#fju271ps7xq79)" height="40.1328" id="PC.sdlLib" style="stroke: #000000; stroke-width: 1.5;" width="152" x="867" y="966"/><text fill="#000000" font-family="sans-serif" font-size="12" lengthAdjust="spacingAndGlyphs" textLength="146" x="870" y="982.6016">Simple DirectMedia Layer</text><line style="stroke: #000000; stroke-width: 1.5;" x1="868" x2="1018" y1="990.1328" y2="990.1328"/><line style="stroke: #000000; stroke-width: 1.5;" x1="868" x2="1018" y1="998.1328" y2="998.1328"/><!--class Arduino.ArduinoHal--><rect fill="url(#gju271ps7xq791)" filter="url(#fju271ps7xq79)" height="40.1328" id="Arduino.ArduinoHal" style="stroke: #000000; stroke-width: 1.5;" width="70" x="741" y="966"/><text fill="#000000" font-family="sans-serif" font-size="12" lengthAdjust="spacingAndGlyphs" textLength="64" x="744" y="982.6016">ArduinoHal</text><line style="stroke: #000000; stroke-width: 1.5;" x1="742" x2="810" y1="990.1328" y2="990.1328"/><line style="stroke: #000000; stroke-width: 1.5;" x1="742" x2="810" y1="998.1328" y2="998.1328"/><!--class Nucleo.NucleoHal--><rect fill="url(#gju271ps7xq791)" filter="url(#fju271ps7xq79)" height="40.1328" id="Nucleo.NucleoHal" style="stroke: #000000; stroke-width: 1.5;" width="64" x="621" y="966"/><text fill="#000000" font-family="sans-serif" font-size="12" lengthAdjust="spacingAndGlyphs" textLength="58" x="624" y="982.6016">NucleoHal</text><line style="stroke: #000000; stroke-width: 1.5;" x1="622" x2="684" y1="990.1328" y2="990.1328"/><line style="stroke: #000000; stroke-width: 1.5;" x1="622" x2="684" y1="998.1328" y2="998.1328"/><path d="M752,589.5 L752,645.4316 L990,645.4316 L990,599.5 L980,589.5 L752,589.5 " fill="url(#gju271ps7xq790)" filter="url(#fju271ps7xq79)" style="stroke: #000000; stroke-width: 1.0;"/><path d="M980,589.5 L980,599.5 L990,599.5 L980,589.5 " fill="url(#gju271ps7xq790)" style="stroke: #000000; stroke-width: 1.0;"/><text fill="#000000" font-family="sans-serif" font-size="13" lengthAdjust="spacingAndGlyphs" textLength="217" x="758" y="607.0684">The HW Abstraction layer provides</text><text fill="#000000" font-family="sans-serif" font-size="13" lengthAdjust="spacingAndGlyphs" textLength="182" x="758" y="622.3789">abstract classes for common</text><text fill="#000000" font-family="sans-serif" font-size="13" lengthAdjust="spacingAndGlyphs" textLength="143" x="758" y="637.6895">hardware components.</text><!--class rotaryEncoder--><rect fill="url(#gju271ps7xq791)" filter="url(#fju271ps7xq79)" height="66.043" id="rotaryEncoder" style="stroke: #000000; stroke-width: 1.5;" width="139" x="418.5" y="584.5"/><text fill="#000000" font-family="sans-serif" font-size="12" font-style="italic" lengthAdjust="spacingAndGlyphs" textLength="84" x="446" y="601.1016">RotaryEncoder</text><line style="stroke: #000000; stroke-width: 1.5;" x1="419.5" x2="556.5" y1="608.6328" y2="608.6328"/><rect fill="none" height="6" style="stroke: #C82930; stroke-width: 1.0;" width="6" x="426.5" y="617.6104"/><text fill="#000000" font-family="sans-serif" font-size="11" lengthAdjust="spacingAndGlyphs" textLength="88" x="438.5" y="623.2676">position: int16_t</text><line style="stroke: #000000; stroke-width: 1.5;" x1="419.5" x2="556.5" y1="629.5879" y2="629.5879"/><ellipse cx="429.5" cy="641.5654" fill="#84BE84" rx="3" ry="3" style="stroke: #038048; stroke-width: 1.0;"/><text fill="#000000" font-family="sans-serif" font-size="11" lengthAdjust="spacingAndGlyphs" textLength="113" x="438.5" y="644.2227">GetPosition(): int16_t</text><!--class pushButton--><rect fill="url(#gju271ps7xq791)" filter="url(#fju271ps7xq79)" height="66.043" id="pushButton" style="stroke: #000000; stroke-width: 1.5;" width="124" x="593" y="584.5"/><text fill="#000000" font-family="sans-serif" font-size="12" font-style="italic" lengthAdjust="spacingAndGlyphs" textLength="63" x="623.5" y="601.1016">PushButton</text><line style="stroke: #000000; stroke-width: 1.5;" x1="594" x2="716" y1="608.6328" y2="608.6328"/><rect fill="none" height="6" style="stroke: #C82930; stroke-width: 1.0;" width="6" x="601" y="617.6104"/><text fill="#000000" font-family="sans-serif" font-size="11" lengthAdjust="spacingAndGlyphs" textLength="81" x="613" y="623.2676">isPressed: bool</text><line style="stroke: #000000; stroke-width: 1.5;" x1="594" x2="716" y1="629.5879" y2="629.5879"/><ellipse cx="604" cy="641.5654" fill="#84BE84" rx="3" ry="3" style="stroke: #038048; stroke-width: 1.0;"/><text fill="#000000" font-family="sans-serif" font-size="11" lengthAdjust="spacingAndGlyphs" textLength="98" x="613" y="644.2227">GetPressed(): bool</text><!--class servo--><rect fill="url(#gju271ps7xq791)" filter="url(#fju271ps7xq79)" height="53.0879" id="servo" style="stroke: #000000; stroke-width: 1.5;" width="186" x="197" y="591"/><text fill="#000000" font-family="sans-serif" font-size="12" font-style="italic" lengthAdjust="spacingAndGlyphs" textLength="31" x="274.5" y="607.6016">Servo</text><line style="stroke: #000000; stroke-width: 1.5;" x1="198" x2="382" y1="615.1328" y2="615.1328"/><line style="stroke: #000000; stroke-width: 1.5;" x1="198" x2="382" y1="623.1328" y2="623.1328"/><ellipse cx="208" cy="635.1104" fill="#84BE84" rx="3" ry="3" style="stroke: #038048; stroke-width: 1.0;"/><text fill="#000000" font-family="sans-serif" font-size="11" lengthAdjust="spacingAndGlyphs" textLength="160" x="217" y="637.7676">SetPosition(pos: int16_t): void</text><!--class onOffSwitch--><rect fill="url(#gju271ps7xq791)" filter="url(#fju271ps7xq79)" height="78.998" id="onOffSwitch" style="stroke: #000000; stroke-width: 1.5;" width="100" x="62" y="578"/><text fill="#000000" font-family="sans-serif" font-size="12" font-style="italic" lengthAdjust="spacingAndGlyphs" textLength="68" x="78" y="594.6016">OnOffSwitch</text><line style="stroke: #000000; stroke-width: 1.5;" x1="63" x2="161" y1="602.1328" y2="602.1328"/><line style="stroke: #000000; stroke-width: 1.5;" x1="63" x2="161" y1="610.1328" y2="610.1328"/><ellipse cx="73" cy="622.1104" fill="#84BE84" rx="3" ry="3" style="stroke: #038048; stroke-width: 1.0;"/><text fill="#000000" font-family="sans-serif" font-size="11" lengthAdjust="spacingAndGlyphs" textLength="53" x="82" y="624.7676">On(): void</text><ellipse cx="73" cy="635.0654" fill="#84BE84" rx="3" ry="3" style="stroke: #038048; stroke-width: 1.0;"/><text fill="#000000" font-family="sans-serif" font-size="11" lengthAdjust="spacingAndGlyphs" textLength="54" x="82" y="637.7227">Off(): void</text><ellipse cx="73" cy="648.0205" fill="#84BE84" rx="3" ry="3" style="stroke: #038048; stroke-width: 1.0;"/><text fill="#000000" font-family="sans-serif" font-size="11" lengthAdjust="spacingAndGlyphs" textLength="74" x="82" y="650.6777">Toggle(): void</text><!--class Hal--><rect fill="url(#gju271ps7xq791)" filter="url(#fju271ps7xq79)" height="130.8184" id="Hal" style="stroke: #000000; stroke-width: 1.5;" width="240" x="451" y="717"/><text fill="#000000" font-family="sans-serif" font-size="12" lengthAdjust="spacingAndGlyphs" textLength="19" x="559.5" y="733.6016">Hal</text><line style="stroke: #000000; stroke-width: 1.5;" x1="452" x2="690" y1="741.1328" y2="741.1328"/><line style="stroke: #000000; stroke-width: 1.5;" x1="452" x2="690" y1="749.1328" y2="749.1328"/><ellipse cx="462" cy="761.1104" fill="#84BE84" rx="3" ry="3" style="stroke: #038048; stroke-width: 1.0;"/><text fill="#000000" font-family="sans-serif" font-size="11" font-style="italic" lengthAdjust="spacingAndGlyphs" textLength="55" x="471" y="763.7676">Init(): bool</text><ellipse cx="462" cy="774.0654" fill="#84BE84" rx="3" ry="3" style="stroke: #038048; stroke-width: 1.0;"/><text fill="#000000" font-family="sans-serif" font-size="11" font-style="italic" lengthAdjust="spacingAndGlyphs" textLength="102" x="471" y="776.7227">Delay(ms: int): void</text><ellipse cx="462" cy="787.0205" fill="#84BE84" rx="3" ry="3" style="stroke: #038048; stroke-width: 1.0;"/><text fill="#000000" font-family="sans-serif" font-size="11" font-style="italic" lengthAdjust="spacingAndGlyphs" textLength="156" x="471" y="789.6777">GetNumRotaryEncoders(): int</text><ellipse cx="462" cy="799.9756" fill="#84BE84" rx="3" ry="3" style="stroke: #038048; stroke-width: 1.0;"/><text fill="#000000" font-family="sans-serif" font-size="11" font-style="italic" lengthAdjust="spacingAndGlyphs" textLength="138" x="471" y="802.6328">GetNumPushButtons(): int</text><ellipse cx="462" cy="812.9307" fill="#84BE84" rx="3" ry="3" style="stroke: #038048; stroke-width: 1.0;"/><text fill="#000000" font-family="sans-serif" font-size="11" font-style="italic" lengthAdjust="spacingAndGlyphs" textLength="133" x="471" y="815.5879">GetNumPushServos(): int</text><ellipse cx="462" cy="825.8857" fill="#84BE84" rx="3" ry="3" style="stroke: #038048; stroke-width: 1.0;"/><text fill="#000000" font-family="sans-serif" font-size="11" font-style="italic" lengthAdjust="spacingAndGlyphs" textLength="176" x="471" y="828.543">GetNumPushOnOffSwitches(): int</text><ellipse cx="462" cy="838.8408" fill="#84BE84" rx="3" ry="3" style="stroke: #038048; stroke-width: 1.0;"/><text fill="#000000" font-family="sans-serif" font-size="11" font-style="italic" lengthAdjust="spacingAndGlyphs" textLength="214" x="471" y="841.498">GetOnOffSwitch(id: HalId): OnOffSwitch*</text><!--class ButtonId--><rect fill="url(#gju271ps7xq791)" filter="url(#fju271ps7xq79)" height="111.041" id="ButtonId" style="stroke: #000000; stroke-width: 1.5;" width="115" x="202.5" y="242"/><text fill="#000000" font-family="sans-serif" font-size="12" font-style="italic" lengthAdjust="spacingAndGlyphs" textLength="44" x="238" y="258.6016">«enum»</text><text fill="#000000" font-family="sans-serif" font-size="12" lengthAdjust="spacingAndGlyphs" textLength="47" x="236.5" y="272.7344">ButtonId</text><line style="stroke: #000000; stroke-width: 1.5;" x1="203.5" x2="316.5" y1="280.2656" y2="280.2656"/><text fill="#000000" font-family="sans-serif" font-size="11" lengthAdjust="spacingAndGlyphs" textLength="76" x="208.5" y="294.9004">BUTTON_ID_A</text><text fill="#000000" font-family="sans-serif" font-size="11" lengthAdjust="spacingAndGlyphs" textLength="74" x="208.5" y="307.8555">BUTTON_ID_B</text><text fill="#000000" font-family="sans-serif" font-size="11" lengthAdjust="spacingAndGlyphs" textLength="76" x="208.5" y="320.8105">BUTTON_ID_C</text><text fill="#000000" font-family="sans-serif" font-size="11" lengthAdjust="spacingAndGlyphs" textLength="76" x="208.5" y="333.7656">BUTTON_ID_D</text><text fill="#000000" font-family="sans-serif" font-size="11" lengthAdjust="spacingAndGlyphs" textLength="103" x="208.5" y="346.7207">BUTTON_ID_START</text><!--class AxisId--><rect fill="url(#gju271ps7xq791)" filter="url(#fju271ps7xq79)" height="98.0859" id="AxisId" style="stroke: #000000; stroke-width: 1.5;" width="105" x="62.5" y="248.5"/><text fill="#000000" font-family="sans-serif" font-size="12" font-style="italic" lengthAdjust="spacingAndGlyphs" textLength="44" x="93" y="265.1016">«enum»</text><text fill="#000000" font-family="sans-serif" font-size="12" lengthAdjust="spacingAndGlyphs" textLength="35" x="97.5" y="279.2344">AxisId</text><line style="stroke: #000000; stroke-width: 1.5;" x1="63.5" x2="166.5" y1="286.7656" y2="286.7656"/><text fill="#000000" font-family="sans-serif" font-size="11" lengthAdjust="spacingAndGlyphs" textLength="85" x="68.5" y="301.4004">AXIS_ID_LEFT_X</text><text fill="#000000" font-family="sans-serif" font-size="11" lengthAdjust="spacingAndGlyphs" textLength="85" x="68.5" y="314.3555">AXIS_ID_LEFT_Y</text><text fill="#000000" font-family="sans-serif" font-size="11" lengthAdjust="spacingAndGlyphs" textLength="93" x="68.5" y="327.3105">AXIS_ID_RIGHT_X</text><text fill="#000000" font-family="sans-serif" font-size="11" lengthAdjust="spacingAndGlyphs" textLength="93" x="68.5" y="340.2656">AXIS_ID_RIGHT_Y</text><!--class Button--><rect fill="url(#gju271ps7xq791)" filter="url(#fju271ps7xq79)" height="80.1758" id="Button" style="stroke: #000000; stroke-width: 1.5;" width="99" x="211.5" y="102"/><text fill="#000000" font-family="sans-serif" font-size="12" font-style="italic" lengthAdjust="spacingAndGlyphs" textLength="44" x="239" y="118.6016">«struct»</text><text fill="#000000" font-family="sans-serif" font-size="12" lengthAdjust="spacingAndGlyphs" textLength="36" x="243" y="132.7344">Button</text><line style="stroke: #000000; stroke-width: 1.5;" x1="212.5" x2="309.5" y1="140.2656" y2="140.2656"/><ellipse cx="222.5" cy="152.2432" fill="none" rx="3" ry="3" style="stroke: #038048; stroke-width: 1.0;"/><text fill="#000000" font-family="sans-serif" font-size="11" lengthAdjust="spacingAndGlyphs" textLength="61" x="231.5" y="154.9004">id: ButtonId</text><ellipse cx="222.5" cy="165.1982" fill="none" rx="3" ry="3" style="stroke: #038048; stroke-width: 1.0;"/><text fill="#000000" font-family="sans-serif" font-size="11" lengthAdjust="spacingAndGlyphs" textLength="73" x="231.5" y="167.8555">pressed: bool</text><line style="stroke: #000000; stroke-width: 1.5;" x1="212.5" x2="309.5" y1="174.1758" y2="174.1758"/><!--class Axis--><rect fill="url(#gju271ps7xq791)" filter="url(#fju271ps7xq79)" height="80.1758" id="Axis" style="stroke: #000000; stroke-width: 1.5;" width="114" x="62" y="102"/><text fill="#000000" font-family="sans-serif" font-size="12" font-style="italic" lengthAdjust="spacingAndGlyphs" textLength="44" x="97" y="118.6016">«struct»</text><text fill="#000000" font-family="sans-serif" font-size="12" lengthAdjust="spacingAndGlyphs" textLength="24" x="107" y="132.7344">Axis</text><line style="stroke: #000000; stroke-width: 1.5;" x1="63" x2="175" y1="140.2656" y2="140.2656"/><ellipse cx="73" cy="152.2432" fill="none" rx="3" ry="3" style="stroke: #038048; stroke-width: 1.0;"/><text fill="#000000" font-family="sans-serif" font-size="11" lengthAdjust="spacingAndGlyphs" textLength="50" x="82" y="154.9004">id: AxisId</text><ellipse cx="73" cy="165.1982" fill="none" rx="3" ry="3" style="stroke: #038048; stroke-width: 1.0;"/><text fill="#000000" font-family="sans-serif" font-size="11" lengthAdjust="spacingAndGlyphs" textLength="88" x="82" y="167.8555">position: int16_t</text><line style="stroke: #000000; stroke-width: 1.5;" x1="63" x2="175" y1="174.1758" y2="174.1758"/><!--class GameSystem--><rect fill="url(#gju271ps7xq791)" filter="url(#fju271ps7xq79)" height="78.998" id="GameSystem" style="stroke: #000000; stroke-width: 1.5;" width="217" x="707.5" y="102.5"/><text fill="#000000" font-family="sans-serif" font-size="12" lengthAdjust="spacingAndGlyphs" textLength="74" x="779" y="119.1016">GameSystem</text><line style="stroke: #000000; stroke-width: 1.5;" x1="708.5" x2="923.5" y1="126.6328" y2="126.6328"/><line style="stroke: #000000; stroke-width: 1.5;" x1="708.5" x2="923.5" y1="134.6328" y2="134.6328"/><ellipse cx="718.5" cy="146.6104" fill="#84BE84" rx="3" ry="3" style="stroke: #038048; stroke-width: 1.0;"/><text fill="#000000" font-family="sans-serif" font-size="11" lengthAdjust="spacingAndGlyphs" textLength="110" x="727.5" y="149.2676">GetDisplay(): Display</text><ellipse cx="718.5" cy="159.5654" fill="#84BE84" rx="3" ry="3" style="stroke: #038048; stroke-width: 1.0;"/><text fill="#000000" font-family="sans-serif" font-size="11" lengthAdjust="spacingAndGlyphs" textLength="157" x="727.5" y="162.2227">GetNumGamePads(): uint16_t</text><ellipse cx="718.5" cy="172.5205" fill="#84BE84" rx="3" ry="3" style="stroke: #038048; stroke-width: 1.0;"/><text fill="#000000" font-family="sans-serif" font-size="11" lengthAdjust="spacingAndGlyphs" textLength="191" x="727.5" y="175.1777">GetGamePad(id: uint16_t): GamePad</text><!--class Program--><rect fill="url(#gju271ps7xq791)" filter="url(#fju271ps7xq79)" height="104.9082" id="Program" style="stroke: #000000; stroke-width: 1.5;" width="229" x="891.5" y="245"/><text fill="#000000" font-family="sans-serif" font-size="12" lengthAdjust="spacingAndGlyphs" textLength="49" x="981.5" y="261.6016">Program</text><line style="stroke: #000000; stroke-width: 1.5;" x1="892.5" x2="1119.5" y1="269.1328" y2="269.1328"/><line style="stroke: #000000; stroke-width: 1.5;" x1="892.5" x2="1119.5" y1="277.1328" y2="277.1328"/><ellipse cx="902.5" cy="289.1104" fill="#84BE84" rx="3" ry="3" style="stroke: #038048; stroke-width: 1.0;"/><text fill="#000000" font-family="sans-serif" font-size="11" lengthAdjust="spacingAndGlyphs" textLength="203" x="911.5" y="291.7676">Init(gameSystem: GameSystem&amp;): void</text><ellipse cx="902.5" cy="302.0654" fill="#84BE84" rx="3" ry="3" style="stroke: #038048; stroke-width: 1.0;"/><text fill="#000000" font-family="sans-serif" font-size="11" lengthAdjust="spacingAndGlyphs" textLength="62" x="911.5" y="304.7227">Start(): void</text><ellipse cx="902.5" cy="315.0205" fill="#84BE84" rx="3" ry="3" style="stroke: #038048; stroke-width: 1.0;"/><text fill="#000000" font-family="sans-serif" font-size="11" lengthAdjust="spacingAndGlyphs" textLength="75" x="911.5" y="317.6777">Update(): void</text><ellipse cx="902.5" cy="327.9756" fill="#84BE84" rx="3" ry="3" style="stroke: #038048; stroke-width: 1.0;"/><text fill="#000000" font-family="sans-serif" font-size="11" lengthAdjust="spacingAndGlyphs" textLength="144" x="911.5" y="330.6328">HandleEvent(e: Event): void</text><ellipse cx="902.5" cy="340.9307" fill="#84BE84" rx="3" ry="3" style="stroke: #038048; stroke-width: 1.0;"/><text fill="#000000" font-family="sans-serif" font-size="11" lengthAdjust="spacingAndGlyphs" textLength="61" x="911.5" y="343.5879">Stop(): void</text><!--class GameSystemLaser--><rect fill="url(#gju271ps7xq791)" filter="url(#fju271ps7xq79)" height="40.1328" id="GameSystemLaser" style="stroke: #000000; stroke-width: 1.5;" width="111" x="959.5" y="122"/><text fill="#000000" font-family="sans-serif" font-size="12" lengthAdjust="spacingAndGlyphs" textLength="105" x="962.5" y="138.6016">GameSystemLaser</text><line style="stroke: #000000; stroke-width: 1.5;" x1="960.5" x2="1069.5" y1="146.1328" y2="146.1328"/><line style="stroke: #000000; stroke-width: 1.5;" x1="960.5" x2="1069.5" y1="154.1328" y2="154.1328"/><!--class GameSystemPC--><rect fill="url(#gju271ps7xq791)" filter="url(#fju271ps7xq79)" height="40.1328" id="GameSystemPC" style="stroke: #000000; stroke-width: 1.5;" width="95" x="577.5" y="122"/><text fill="#000000" font-family="sans-serif" font-size="12" lengthAdjust="spacingAndGlyphs" textLength="89" x="580.5" y="138.6016">GameSystemPC</text><line style="stroke: #000000; stroke-width: 1.5;" x1="578.5" x2="671.5" y1="146.1328" y2="146.1328"/><line style="stroke: #000000; stroke-width: 1.5;" x1="578.5" x2="671.5" y1="154.1328" y2="154.1328"/><!--class Drivers.display--><rect fill="url(#gju271ps7xq791)" filter="url(#fju271ps7xq79)" height="104.9082" id="Drivers.display" style="stroke: #000000; stroke-width: 1.5;" width="290" x="353" y="245"/><text fill="#000000" font-family="sans-serif" font-size="12" font-style="italic" lengthAdjust="spacingAndGlyphs" textLength="42" x="477" y="261.6016">Display</text><line style="stroke: #000000; stroke-width: 1.5;" x1="354" x2="642" y1="269.1328" y2="269.1328"/><line style="stroke: #000000; stroke-width: 1.5;" x1="354" x2="642" y1="277.1328" y2="277.1328"/><ellipse cx="364" cy="289.1104" fill="#84BE84" rx="3" ry="3" style="stroke: #038048; stroke-width: 1.0;"/><text fill="#000000" font-family="sans-serif" font-size="11" font-style="italic" lengthAdjust="spacingAndGlyphs" textLength="65" x="373" y="291.7676">Clear(): void</text><ellipse cx="364" cy="302.0654" fill="#84BE84" rx="3" ry="3" style="stroke: #038048; stroke-width: 1.0;"/><text fill="#000000" font-family="sans-serif" font-size="11" font-style="italic" lengthAdjust="spacingAndGlyphs" textLength="207" x="373" y="304.7227">DrawLine(start: Point, stop: Point): void</text><ellipse cx="364" cy="315.0205" fill="#84BE84" rx="3" ry="3" style="stroke: #038048; stroke-width: 1.0;"/><text fill="#000000" font-family="sans-serif" font-size="11" font-style="italic" lengthAdjust="spacingAndGlyphs" textLength="253" x="373" y="317.6777">DrawCircle(center: Point, radius: uint16_t): void</text><ellipse cx="364" cy="327.9756" fill="#84BE84" rx="3" ry="3" style="stroke: #038048; stroke-width: 1.0;"/><text fill="#000000" font-family="sans-serif" font-size="11" font-style="italic" lengthAdjust="spacingAndGlyphs" textLength="264" x="373" y="330.6328">DrawRect(topLeft: Point, bottomRight: Point): void</text><ellipse cx="364" cy="340.9307" fill="#84BE84" rx="3" ry="3" style="stroke: #038048; stroke-width: 1.0;"/><text fill="#000000" font-family="sans-serif" font-size="11" font-style="italic" lengthAdjust="spacingAndGlyphs" textLength="111" x="373" y="343.5879">DrawBezier(???): void</text><!--class Drivers.LaserDisplay--><rect fill="url(#gju271ps7xq791)" filter="url(#fju271ps7xq79)" height="40.1328" id="Drivers.LaserDisplay" style="stroke: #000000; stroke-width: 1.5;" width="79" x="390.5" y="426"/><text fill="#000000" font-family="sans-serif" font-size="12" lengthAdjust="spacingAndGlyphs" textLength="73" x="393.5" y="442.6016">LaserDisplay</text><line style="stroke: #000000; stroke-width: 1.5;" x1="391.5" x2="468.5" y1="450.1328" y2="450.1328"/><line style="stroke: #000000; stroke-width: 1.5;" x1="391.5" x2="468.5" y1="458.1328" y2="458.1328"/><!--class Drivers.SdlDisplay--><rect fill="url(#gju271ps7xq791)" filter="url(#fju271ps7xq79)" height="40.1328" id="Drivers.SdlDisplay" style="stroke: #000000; stroke-width: 1.5;" width="65" x="678.5" y="426"/><text fill="#000000" font-family="sans-serif" font-size="12" lengthAdjust="spacingAndGlyphs" textLength="59" x="681.5" y="442.6016">SdlDisplay</text><line style="stroke: #000000; stroke-width: 1.5;" x1="679.5" x2="742.5" y1="450.1328" y2="450.1328"/><line style="stroke: #000000; stroke-width: 1.5;" x1="679.5" x2="742.5" y1="458.1328" y2="458.1328"/><!--class Drivers.gamePad--><rect fill="url(#gju271ps7xq791)" filter="url(#fju271ps7xq79)" height="66.043" id="Drivers.gamePad" style="stroke: #000000; stroke-width: 1.5;" width="178" x="678" y="264.5"/><text fill="#000000" font-family="sans-serif" font-size="12" font-style="italic" lengthAdjust="spacingAndGlyphs" textLength="56" x="739" y="281.1016">GamePad</text><line style="stroke: #000000; stroke-width: 1.5;" x1="679" x2="855" y1="288.6328" y2="288.6328"/><line style="stroke: #000000; stroke-width: 1.5;" x1="679" x2="855" y1="296.6328" y2="296.6328"/><ellipse cx="689" cy="308.6104" fill="#84BE84" rx="3" ry="3" style="stroke: #038048; stroke-width: 1.0;"/><text fill="#000000" font-family="sans-serif" font-size="11" font-style="italic" lengthAdjust="spacingAndGlyphs" textLength="152" x="698" y="311.2676">GetButton(id: ButtonId): bool</text><ellipse cx="689" cy="321.5654" fill="#84BE84" rx="3" ry="3" style="stroke: #038048; stroke-width: 1.0;"/><text fill="#000000" font-family="sans-serif" font-size="11" font-style="italic" lengthAdjust="spacingAndGlyphs" textLength="144" x="698" y="324.2227">GetAxis(id: AxisId): int16_t</text><!--class Drivers.GamePadPaddle--><rect fill="url(#gju271ps7xq791)" filter="url(#fju271ps7xq79)" height="66.043" id="Drivers.GamePadPaddle" style="stroke: #000000; stroke-width: 1.5;" width="103" x="540.5" y="413"/><text fill="#000000" font-family="sans-serif" font-size="12" lengthAdjust="spacingAndGlyphs" textLength="96" x="544" y="429.6016">GamePadPaddle</text><line style="stroke: #000000; stroke-width: 1.5;" x1="541.5" x2="642.5" y1="437.1328" y2="437.1328"/><rect fill="none" height="6" style="stroke: #C82930; stroke-width: 1.0;" width="6" x="548.5" y="446.1104"/><text fill="#000000" font-family="sans-serif" font-size="11" lengthAdjust="spacingAndGlyphs" textLength="77" x="560.5" y="451.7676">button: Button</text><rect fill="none" height="6" style="stroke: #C82930; stroke-width: 1.0;" width="6" x="548.5" y="459.0654"/><text fill="#000000" font-family="sans-serif" font-size="11" lengthAdjust="spacingAndGlyphs" textLength="60" x="560.5" y="464.7227">wheel: Axis</text><line style="stroke: #000000; stroke-width: 1.5;" x1="541.5" x2="642.5" y1="471.043" y2="471.043"/><!--class Drivers.GamePadPC--><rect fill="url(#gju271ps7xq791)" filter="url(#fju271ps7xq79)" height="40.1328" id="Drivers.GamePadPC" style="stroke: #000000; stroke-width: 1.5;" width="77" x="778.5" y="426"/><text fill="#000000" font-family="sans-serif" font-size="12" lengthAdjust="spacingAndGlyphs" textLength="71" x="781.5" y="442.6016">GamePadPC</text><line style="stroke: #000000; stroke-width: 1.5;" x1="779.5" x2="854.5" y1="450.1328" y2="450.1328"/><line style="stroke: #000000; stroke-width: 1.5;" x1="779.5" x2="854.5" y1="458.1328" y2="458.1328"/><!--class breakout--><rect fill="url(#gju271ps7xq791)" filter="url(#fju271ps7xq79)" height="40.1328" id="breakout" style="stroke: #000000; stroke-width: 1.5;" width="87" x="1540.5" y="426"/><text fill="#000000" font-family="sans-serif" font-size="12" lengthAdjust="spacingAndGlyphs" textLength="81" x="1543.5" y="442.6016">GiantBreakout</text><line style="stroke: #000000; stroke-width: 1.5;" x1="1541.5" x2="1626.5" y1="450.1328" y2="450.1328"/><line style="stroke: #000000; stroke-width: 1.5;" x1="1541.5" x2="1626.5" y1="458.1328" y2="458.1328"/><!--class asteroids--><rect fill="url(#gju271ps7xq791)" filter="url(#fju271ps7xq79)" height="40.1328" id="asteroids" style="stroke: #000000; stroke-width: 1.5;" width="90" x="1415" y="426"/><text fill="#000000" font-family="sans-serif" font-size="12" lengthAdjust="spacingAndGlyphs" textLength="84" x="1418" y="442.6016">GiantAsteroids</text><line style="stroke: #000000; stroke-width: 1.5;" x1="1416" x2="1504" y1="450.1328" y2="450.1328"/><line style="stroke: #000000; stroke-width: 1.5;" x1="1416" x2="1504" y1="458.1328" y2="458.1328"/><!--class logo--><rect fill="url(#gju271ps7xq791)" filter="url(#fju271ps7xq79)" height="40.1328" id="logo" style="stroke: #000000; stroke-width: 1.5;" width="104" x="1276" y="426"/><text fill="#000000" font-family="sans-serif" font-size="12" lengthAdjust="spacingAndGlyphs" textLength="98" x="1279" y="442.6016">VectorSpaceLogo</text><line style="stroke: #000000; stroke-width: 1.5;" x1="1277" x2="1379" y1="450.1328" y2="450.1328"/><line style="stroke: #000000; stroke-width: 1.5;" x1="1277" x2="1379" y1="458.1328" y2="458.1328"/><!--class pong--><rect fill="url(#gju271ps7xq791)" filter="url(#fju271ps7xq79)" height="40.1328" id="pong" style="stroke: #000000; stroke-width: 1.5;" width="64" x="1177" y="426"/><text fill="#000000" font-family="sans-serif" font-size="12" lengthAdjust="spacingAndGlyphs" textLength="58" x="1180" y="442.6016">GiantPong</text><line style="stroke: #000000; stroke-width: 1.5;" x1="1178" x2="1240" y1="450.1328" y2="450.1328"/><line style="stroke: #000000; stroke-width: 1.5;" x1="1178" x2="1240" y1="458.1328" y2="458.1328"/><path d="M1489,605 L1489,630.3105 L1555,630.3105 L1555,615 L1545,605 L1489,605 " fill="url(#gju271ps7xq790)" filter="url(#fju271ps7xq79)" style="stroke: #000000; stroke-width: 1.0;"/><path d="M1545,605 L1545,615 L1555,615 L1545,605 " fill="url(#gju271ps7xq790)" style="stroke: #000000; stroke-width: 1.0;"/><text fill="#000000" font-family="sans-serif" font-size="13" lengthAdjust="spacingAndGlyphs" textLength="45" x="1495" y="622.5684">Future?</text><!--link onOffSwitch to Hal--><path d="M162.256,648.894 C167.821,651.802 173.474,654.568 179,657 C262.735,693.847 360.838,724.995 437.956,746.92 " fill="none" id="onOffSwitch-Hal" style="stroke: #000000; stroke-width: 1.0;"/><polygon fill="#FFFFFF" points="450.634,750.495,445.945,745.0165,439.0845,747.2377,443.7735,752.7162,450.634,750.495" style="stroke: #000000; stroke-width: 1.0;"/><!--link rotaryEncoder to Hal--><path d="M504.398,650.704 C512.417,666.451 522.439,686.133 532.254,705.409 " fill="none" id="rotaryEncoder-Hal" style="stroke: #000000; stroke-width: 1.0;"/><polygon fill="#FFFFFF" points="538.155,716.998,538.9963,709.8361,532.7089,706.305,531.8676,713.4669,538.155,716.998" style="stroke: #000000; stroke-width: 1.0;"/><!--link servo to Hal--><path d="M334.215,644.148 C365.013,662.013 407.704,686.777 448.366,710.364 " fill="none" id="servo-Hal" style="stroke: #000000; stroke-width: 1.0;"/><polygon fill="#FFFFFF" points="459.77,716.978,456.5878,710.507,449.3907,710.9556,452.5729,717.4266,459.77,716.978" style="stroke: #000000; stroke-width: 1.0;"/><!--link pushButton to Hal--><path d="M638.404,650.704 C630.289,666.451 620.146,686.133 610.213,705.409 " fill="none" id="pushButton-Hal" style="stroke: #000000; stroke-width: 1.0;"/><polygon fill="#FFFFFF" points="604.24,716.998,610.544,713.4966,609.7365,706.3308,603.4325,709.8323,604.24,716.998" style="stroke: #000000; stroke-width: 1.0;"/><!--link Hal to Arduino.ArduinoHal--><path d="M681.073,861.229 C688.027,867.341 694.738,873.623 701,880 C727.367,906.855 751.427,943.682 764.853,965.828 " fill="none" id="Hal-Arduino.ArduinoHal" style="stroke: #000000; stroke-width: 1.0;"/><polygon fill="none" points="676.333,866.389,665.546,848.15,685.352,855.681,676.333,866.389" style="stroke: #000000; stroke-width: 1.0;"/><!--link Hal to Nucleo.NucleoHal--><path d="M611.366,866.649 C613.319,871.144 615.21,875.614 617,880 C629.017,909.439 640.498,944.548 647.143,965.789 " fill="none" id="Hal-Nucleo.NucleoHal" style="stroke: #000000; stroke-width: 1.0;"/><polygon fill="none" points="604.885,869.303,603.082,848.19,617.657,863.571,604.885,869.303" style="stroke: #000000; stroke-width: 1.0;"/><!--link Button to ButtonId--><path d="M260.745,182.132 C260.627,200.252 260.485,222.089 260.356,241.804 " fill="none" id="Button-ButtonId" style="stroke: #000000; stroke-width: 1.0;"/><!--link Axis to AxisId--><path d="M117.98,182.132 C117.455,202.295 116.81,227.06 116.254,248.383 " fill="none" id="Axis-AxisId" style="stroke: #000000; stroke-width: 1.0;"/><!--link Drivers.display to Drivers.LaserDisplay--><path d="M465.553,368.403 C455.769,389.483 445.813,410.932 438.935,425.75 " fill="none" id="Drivers.display-Drivers.LaserDisplay" style="stroke: #000000; stroke-width: 1.0;"/><polygon fill="none" points="459.256,365.344,474.026,350.15,471.955,371.239,459.256,365.344" style="stroke: #000000; stroke-width: 1.0;"/><!--link Drivers.display to Drivers.SdlDisplay--><path d="M630.016,360.732 C640.874,367.684 651.363,375.124 661,383 C675.99,395.251 689.538,412.645 698.738,425.893 " fill="none" id="Drivers.display-Drivers.SdlDisplay" style="stroke: #000000; stroke-width: 1.0;"/><polygon fill="none" points="626.172,366.587,612.721,350.214,633.447,354.625,626.172,366.587" style="stroke: #000000; stroke-width: 1.0;"/><!--link Drivers.gamePad to Drivers.GamePadPaddle--><path d="M709.793,343.094 C693.843,355.799 676.613,369.782 661,383 C649.815,392.469 637.863,403.041 627.103,412.734 " fill="none" id="Drivers.gamePad-Drivers.GamePadPaddle" style="stroke: #000000; stroke-width: 1.0;"/><polygon fill="none" points="705.491,337.571,725.518,330.647,714.18,348.549,705.491,337.571" style="stroke: #000000; stroke-width: 1.0;"/><!--link Drivers.gamePad to Drivers.GamePadPC--><path d="M784.488,349.741 C793.488,376.11 803.92,406.675 810.489,425.924 " fill="none" id="Drivers.gamePad-Drivers.GamePadPC" style="stroke: #000000; stroke-width: 1.0;"/><polygon fill="none" points="777.808,351.839,777.973,330.65,791.058,347.317,777.808,351.839" style="stroke: #000000; stroke-width: 1.0;"/><!--link Drivers.GamePadPaddle to rotaryEncoder--><path d="M565.347,490.439 C547.372,519.734 524.049,557.748 507.733,584.34 " fill="none" id="Drivers.GamePadPaddle-rotaryEncoder" style="stroke: #000000; stroke-width: 1.0;"/><polygon fill="#000000" points="572.194,479.281,565.6467,482.3031,565.9182,489.5091,572.4654,486.487,572.194,479.281" style="stroke: #000000; stroke-width: 1.0;"/><!--link Drivers.GamePadPaddle to pushButton--><path d="M608.581,491.61 C619.408,520.742 633.294,558.101 643.047,584.34 " fill="none" id="Drivers.GamePadPaddle-pushButton" style="stroke: #000000; stroke-width: 1.0;"/><polygon fill="#000000" points="603.998,479.281,602.3387,486.2986,608.1782,490.5294,609.8376,483.5118,603.998,479.281" style="stroke: #000000; stroke-width: 1.0;"/><!--link Drivers.LaserDisplay to servo--><path d="M405.819,476.277 C379.137,508.58 336.616,560.061 311.193,590.841 " fill="none" id="Drivers.LaserDisplay-servo" style="stroke: #000000; stroke-width: 1.0;"/><polygon fill="#000000" points="414.212,466.114,407.307,468.1927,406.5701,475.3661,413.4751,473.2873,414.212,466.114" style="stroke: #000000; stroke-width: 1.0;"/><text fill="#000000" font-family="sans-serif" font-size="13" lengthAdjust="spacingAndGlyphs" textLength="8" x="307.3838" y="580.1102">2</text><!--link Drivers.GamePadPC to PC.sdlLib--><path d="M855.791,449.965 C906.85,456.19 994.822,475.453 1035,535 C1118.77,659.159 1085.18,730.879 1035,872 C1021.35,910.375 988.484,945.176 965.967,965.72 " fill="none" id="Drivers.GamePadPC-PC.sdlLib" style="stroke: #000000; stroke-width: 1.0;"/><!--link Drivers.SdlDisplay to PC.sdlLib--><path d="M716.973,466.082 C724.091,485.241 738.006,513.761 761,527 C784.604,540.591 987.058,515.429 1006,535 C1032.04,561.906 1015.42,835.76 1006,872 C996.677,907.869 973.2,944.443 957.688,965.913 " fill="none" id="Drivers.SdlDisplay-PC.sdlLib" style="stroke: #000000; stroke-width: 1.0;"/><!--link GameSystem to Drivers.gamePad--><path d="M799.666,194.168 C792.279,217.311 783.772,243.958 777.293,264.257 " fill="none" id="GameSystem-Drivers.gamePad" style="stroke: #000000; stroke-width: 1.0;"/><polygon fill="#000000" points="803.635,181.735,797.9995,186.234,799.985,193.1664,805.6205,188.6674,803.635,181.735" style="stroke: #000000; stroke-width: 1.0;"/><text fill="#000000" font-family="sans-serif" font-size="13" lengthAdjust="spacingAndGlyphs" textLength="22" x="755.1538" y="253.8304">1..*</text><!--link GameSystem to Drivers.display--><path d="M694.797,186.551 C682.925,191.499 671.155,196.683 660,202 C633.4,214.68 605.362,230.204 580.226,244.978 " fill="none" id="GameSystem-Drivers.display" style="stroke: #000000; stroke-width: 1.0;"/><polygon fill="#000000" points="707.183,181.485,700.1153,180.0541,696.0761,186.0277,703.1438,187.4587,707.183,181.485" style="stroke: #000000; stroke-width: 1.0;"/><text fill="#000000" font-family="sans-serif" font-size="13" lengthAdjust="spacingAndGlyphs" textLength="8" x="583.2265" y="234.1341">1</text><!--link GameSystem to Program--><path d="M862.62,190.256 C882.897,207.507 907.066,227.102 929.785,244.726 " fill="none" id="GameSystem-Program" style="stroke: #000000; stroke-width: 1.0;"/><polygon fill="#FFFFFF" points="852.702,181.735,854.6463,188.6791,861.804,189.5551,859.8597,182.6111,852.702,181.735" style="stroke: #000000; stroke-width: 1.0;"/><text fill="#000000" font-family="sans-serif" font-size="13" lengthAdjust="spacingAndGlyphs" textLength="8" x="850.1183" y="202.1525">1</text><text fill="#000000" font-family="sans-serif" font-size="13" lengthAdjust="spacingAndGlyphs" textLength="6" x="913.1405" y="234.2221">*</text><!--link Program to GameSystem--><path d="M954.952,244.89 C931.789,225.31 904.292,203.276 879.805,184.721 " fill="none" id="Program-GameSystem" style="stroke: #000000; stroke-width: 1.0; stroke-dasharray: 7.0,7.0;"/><polygon fill="#000000" points="875.586,181.536,880.3614,190.1497,879.5774,184.5474,885.1797,183.7634,875.586,181.536" style="stroke: #000000; stroke-width: 1.0;"/><!--link GameSystem to GameSystemLaser--><path d="M945.054,142 C949.818,142 954.583,142 959.347,142 " fill="none" id="GameSystem-GameSystemLaser" style="stroke: #000000; stroke-width: 1.0;"/><polygon fill="none" points="944.828,149,924.828,142,944.828,135,944.828,149" style="stroke: #000000; stroke-width: 1.0;"/><!--link GameSystemPC to GameSystem--><path d="M672.75,142 C677.629,142 682.508,142 687.386,142 " fill="none" id="GameSystemPC-GameSystem" style="stroke: #000000; stroke-width: 1.0;"/><polygon fill="none" points="687.443,135,707.443,142,687.443,149,687.443,135" style="stroke: #000000; stroke-width: 1.0;"/><!--link breakout to future--><path d="M1577.01,466.114 C1564.09,501.439 1536.83,575.961 1526.29,604.779 " fill="none" id="breakout-future" style="stroke: #000000; stroke-width: 1.0; stroke-dasharray: 7.0,7.0;"/><!--link asteroids to future--><path d="M1466.99,466.114 C1479.91,501.439 1507.17,575.961 1517.71,604.779 " fill="none" id="asteroids-future" style="stroke: #000000; stroke-width: 1.0; stroke-dasharray: 7.0,7.0;"/><!--link Program to pong--><path d="M1094.09,362.072 C1126.13,385.193 1159.98,409.624 1182.58,425.93 " fill="none" id="Program-pong" style="stroke: #000000; stroke-width: 1.0;"/><polygon fill="none" points="1089.69,367.531,1077.57,350.15,1097.88,356.178,1089.69,367.531" style="stroke: #000000; stroke-width: 1.0;"/><!--link Program to logo--><path d="M1140.03,332.006 C1179.8,344.879 1222.46,361.727 1259,383 C1278.76,394.505 1297.83,412.323 1310.9,425.91 " fill="none" id="Program-logo" style="stroke: #000000; stroke-width: 1.0;"/><polygon fill="none" points="1137.79,338.641,1120.78,326.004,1141.96,325.275,1137.79,338.641" style="stroke: #000000; stroke-width: 1.0;"/><!--link Program to breakout--><path d="M1140.61,310.942 C1270.96,324.685 1458.11,349.399 1523,383 C1542.44,393.067 1559.43,411.621 1570.51,425.818 " fill="none" id="Program-breakout" style="stroke: #000000; stroke-width: 1.0;"/><polygon fill="none" points="1139.78,317.894,1120.61,308.872,1141.23,303.968,1139.78,317.894" style="stroke: #000000; stroke-width: 1.0;"/><!--link Program to asteroids--><path d="M1141.02,308.472 C1219.83,318.832 1318.98,339.951 1398,383 C1417.25,393.487 1434.46,411.793 1445.84,425.804 " fill="none" id="Program-asteroids" style="stroke: #000000; stroke-width: 1.0;"/><polygon fill="none" points="1139.93,315.39,1120.93,306.004,1141.63,301.494,1139.93,315.39" style="stroke: #000000; stroke-width: 1.0;"/><!--
@startuml

skinparam class {
backgroundcolor   #b7ddfc/White
bordercolor       black
ArrowColor        black
}

hide enum methods
hide circle

skinparam note {
backgroundcolor   Ivory/White
bordercolor       black
}

package "Laser Game System" as laserGameSystem <<Frame>> {

package "Platforms" <<Frame>> {
note as platformsNote1
The various hardware platforms implement
the specific instances of the hardware
components.
end note

namespace PC {
class "Simple DirectMedia Layer" as sdlLib
}

namespace Arduino {
class ArduinoHal
}

namespace Nucleo {
class NucleoHal
}
}

package "HW Abstraction" as hwAbstraction <<Frame>> {
note as hwAbstractNote1
The HW Abstraction layer provides
abstract classes for common
hardware components.
end note

class "<i>RotaryEncoder</i>" as rotaryEncoder {
- position: int16_t
+ GetPosition(): int16_t
}

class "<i>PushButton</i>" as pushButton {
- isPressed: bool
+ GetPressed(): bool
}

class "<i>Servo</i>" as servo {
+ SetPosition(pos: int16_t): void
}

class "<i>OnOffSwitch</i>" as onOffSwitch {
+ On(): void
+ Off(): void
+ Toggle(): void
}

class "Hal " as Hal{
+ {abstract} Init(): bool
+ {abstract} Delay(ms: int): void
+ {abstract} GetNumRotaryEncoders(): int
+ {abstract} GetNumPushButtons(): int
+ {abstract} GetNumPushServos(): int
+ {abstract} GetNumPushOnOffSwitches(): int
+ {abstract} GetOnOffSwitch(id: HalId): OnOffSwitch*
}

onOffSwitch - -o Hal
rotaryEncoder - -o Hal
servo - -o Hal
pushButton - -o Hal
}

Hal <|- - Arduino.ArduinoHal
Hal <|- - Nucleo.NucleoHal

package "Game System" as gameSystem <<Frame>> {
enum ButtonId <<enum>> {
BUTTON_ID_A
BUTTON_ID_B
BUTTON_ID_C
BUTTON_ID_D
BUTTON_ID_START
}

enum AxisId <<enum>> {
AXIS_ID_LEFT_X
AXIS_ID_LEFT_Y
AXIS_ID_RIGHT_X
AXIS_ID_RIGHT_Y
}

class Button <<struct>> {
+ id: ButtonId
+ pressed: bool
}

Button - - ButtonId

class Axis <<struct>> {
+ id: AxisId
+ position: int16_t
}

Axis - - AxisId

namespace Drivers {
class "<i>Display</i>" as display {
+ {abstract} Clear(): void
+ {abstract} DrawLine(start: Point, stop: Point): void
+ {abstract} DrawCircle(center: Point, radius: uint16_t): void
+ {abstract} DrawRect(topLeft: Point, bottomRight: Point): void
+ {abstract} DrawBezier(???): void
}

class LaserDisplay {
}

class SdlDisplay {
}

display <|- - LaserDisplay
display <|- - SdlDisplay

class "<i>GamePad</i>" as gamePad {
+ {abstract} GetButton(id: ButtonId): bool
+ {abstract} GetAxis(id: AxisId): int16_t
}

class GamePadPaddle {
- button: Button
- wheel: Axis
}

class GamePadPC {
}

gamePad <|- - GamePadPaddle
gamePad <|- - GamePadPC
}

class GameSystem {
+ GetDisplay(): Display
+ GetNumGamePads(): uint16_t
+ GetGamePad(id: uint16_t): GamePad
}

class Program {
+ Init(gameSystem: GameSystem&): void
+ Start(): void
+ Update(): void
+ HandleEvent(e: Event): void
+ Stop(): void
}

class GameSystemLaser
class GameSystemPC

Drivers.GamePadPaddle *- - rotaryEncoder
Drivers.GamePadPaddle *- - pushButton
Drivers.LaserDisplay *- - "2" servo

Drivers.GamePadPC - - PC.sdlLib
Drivers.SdlDisplay - - PC.sdlLib

GameSystem *- - "1..*" Drivers.gamePad
GameSystem *- - "1" Drivers.display
GameSystem "1" o- - "*" Program
Program ..> GameSystem
GameSystem <|-right- GameSystemLaser
GameSystem <|-left- GameSystemPC
}

package "Programs" as programs <<Frame>> {
class "GiantBreakout" as breakout
class "GiantAsteroids" as asteroids
class "VectorSpaceLogo" as logo
class "GiantPong" as pong

note "Future?" as future
breakout .. future
asteroids .. future
}

Program <|- - pong
Program <|- - logo
Program <|- - breakout
Program <|- - asteroids
}

@enduml

PlantUML version 1.2018.12(Sun Oct 21 06:15:15 EDT 2018)
(EPL source distribution)
Java Runtime: Java(TM) SE Runtime Environment
JVM: Java HotSpot(TM) 64-Bit Server VM
Java Version: 1.8.0_51-b16
Operating System: Mac OS X
OS Version: 10.14.2
Default Encoding: UTF-8
Language: en
Country: US
--></g></svg>