<?xml version="1.0" encoding="UTF-8" standalone="no"?><svg xmlns="http://www.w3.org/2000/svg" xmlns:xlink="http://www.w3.org/1999/xlink" contentScriptType="application/ecmascript" contentStyleType="text/css" height="1245px" preserveAspectRatio="none" style="width:1679px;height:1245px;" version="1.1" viewBox="0 0 1679 1245" width="1679px" zoomAndPan="magnify"><defs><filter height="300%" id="f8rtf4apca6bs" width="300%" x="-1" y="-1"><feGaussianBlur result="blurOut" stdDeviation="2.0"/><feColorMatrix in="blurOut" result="blurOut2" type="matrix" values="0 0 0 0 0 0 0 0 0 0 0 0 0 0 0 0 0 0 .4 0"/><feOffset dx="4.0" dy="4.0" in="blurOut2" result="blurOut3"/><feBlend in="SourceGraphic" in2="blurOut3" mode="normal"/></filter><linearGradient id="g8rtf4apca6bs0" x1="0%" x2="100%" y1="0%" y2="100%"><stop offset="0%" stop-color="#FFFFF0"/><stop offset="100%" stop-color="#FFFFFF"/></linearGradient><linearGradient id="g8rtf4apca6bs1" x1="0%" x2="100%" y1="0%" y2="100%"><stop offset="0%" stop-color="#B7DDFC"/><stop offset="100%" stop-color="#FFFFFF"/></linearGradient></defs><g><!--cluster laserGameSystem--><rect fill="#FFFFFF" filter="url(#f8rtf4apca6bs)" height="1210" style="stroke: #000000; stroke-width: 1.5;" width="1646" x="22" y="24"/><path d="M172,25 L172,33.4883 L162,43.4883 L22,43.4883 " fill="none" style="stroke: #000000; stroke-width: 1.5;"/><text fill="#000000" font-family="sans-serif" font-size="14" font-weight="bold" lengthAdjust="spacingAndGlyphs" textLength="140" x="25" y="38.5352">Laser Game System</text><!--cluster Platforms--><rect fill="#FFFFFF" filter="url(#f8rtf4apca6bs)" height="158" style="stroke: #000000; stroke-width: 1.5;" width="781" x="342" y="1052"/><path d="M423,1053 L423,1061.4883 L413,1071.4883 L342,1071.4883 " fill="none" style="stroke: #000000; stroke-width: 1.5;"/><text fill="#000000" font-family="sans-serif" font-size="14" font-weight="bold" lengthAdjust="spacingAndGlyphs" textLength="71" x="345" y="1066.5352">Platforms</text><!--cluster PC--><polygon fill="#FFFFFF" filter="url(#f8rtf4apca6bs)" points="915,1095,940,1095,947,1117.4883,1099,1117.4883,1099,1186,915,1186,915,1095" style="stroke: #000000; stroke-width: 1.5;"/><line style="stroke: #000000; stroke-width: 1.5;" x1="915" x2="947" y1="1117.4883" y2="1117.4883"/><text fill="#000000" font-family="sans-serif" font-size="14" font-weight="bold" lengthAdjust="spacingAndGlyphs" textLength="19" x="919" y="1110.5352">PC</text><!--cluster Arduino--><polygon fill="#FFFFFF" filter="url(#f8rtf4apca6bs)" points="669,1095,732,1095,739,1117.4883,771,1117.4883,771,1186,669,1186,669,1095" style="stroke: #000000; stroke-width: 1.5;"/><line style="stroke: #000000; stroke-width: 1.5;" x1="669" x2="739" y1="1117.4883" y2="1117.4883"/><text fill="#000000" font-family="sans-serif" font-size="14" font-weight="bold" lengthAdjust="spacingAndGlyphs" textLength="57" x="673" y="1110.5352">Arduino</text><!--cluster Nucleo--><polygon fill="#FFFFFF" filter="url(#f8rtf4apca6bs)" points="795,1095,850,1095,857,1117.4883,891,1117.4883,891,1186,795,1186,795,1095" style="stroke: #000000; stroke-width: 1.5;"/><line style="stroke: #000000; stroke-width: 1.5;" x1="795" x2="857" y1="1117.4883" y2="1117.4883"/><text fill="#000000" font-family="sans-serif" font-size="14" font-weight="bold" lengthAdjust="spacingAndGlyphs" textLength="49" x="799" y="1110.5352">Nucleo</text><!--cluster hwAbstraction--><rect fill="#FFFFFF" filter="url(#f8rtf4apca6bs)" height="322" style="stroke: #000000; stroke-width: 1.5;" width="960" x="47" y="697"/><path d="M169,698 L169,706.4883 L159,716.4883 L47,716.4883 " fill="none" style="stroke: #000000; stroke-width: 1.5;"/><text fill="#000000" font-family="sans-serif" font-size="14" font-weight="bold" lengthAdjust="spacingAndGlyphs" textLength="112" x="50" y="711.5352">HW Abstraction</text><!--cluster gameSystem--><rect fill="#FFFFFF" filter="url(#f8rtf4apca6bs)" height="597" style="stroke: #000000; stroke-width: 1.5;" width="1091" x="46" y="67"/><path d="M153,68 L153,76.4883 L143,86.4883 L46,86.4883 " fill="none" style="stroke: #000000; stroke-width: 1.5;"/><text fill="#000000" font-family="sans-serif" font-size="14" font-weight="bold" lengthAdjust="spacingAndGlyphs" textLength="97" x="49" y="81.5352">Game System</text><!--cluster Drivers--><polygon fill="#FFFFFF" filter="url(#f8rtf4apca6bs)" points="337,229,395,229,402,251.4883,872,251.4883,872,640,337,640,337,229" style="stroke: #000000; stroke-width: 1.5;"/><line style="stroke: #000000; stroke-width: 1.5;" x1="337" x2="402" y1="251.4883" y2="251.4883"/><text fill="#000000" font-family="sans-serif" font-size="14" font-weight="bold" lengthAdjust="spacingAndGlyphs" textLength="52" x="341" y="244.5352">Drivers</text><!--cluster programs--><rect fill="#FFFFFF" filter="url(#f8rtf4apca6bs)" height="213.5" style="stroke: #000000; stroke-width: 1.5;" width="483" x="1161" y="419"/><path d="M1240,420 L1240,428.4883 L1230,438.4883 L1161,438.4883 " fill="none" style="stroke: #000000; stroke-width: 1.5;"/><text fill="#000000" font-family="sans-serif" font-size="14" font-weight="bold" lengthAdjust="spacingAndGlyphs" textLength="69" x="1164" y="433.5352">Programs</text><path d="M358.5,1122 L358.5,1177.9316 L649.5,1177.9316 L649.5,1132 L639.5,1122 L358.5,1122 " fill="url(#g8rtf4apca6bs0)" filter="url(#f8rtf4apca6bs)" style="stroke: #000000; stroke-width: 1.0;"/><path d="M639.5,1122 L639.5,1132 L649.5,1132 L639.5,1122 " fill="url(#g8rtf4apca6bs0)" style="stroke: #000000; stroke-width: 1.0;"/><text fill="#000000" font-family="sans-serif" font-size="13" lengthAdjust="spacingAndGlyphs" textLength="270" x="364.5" y="1139.5684">The various hardware platforms implement</text><text fill="#000000" font-family="sans-serif" font-size="13" lengthAdjust="spacingAndGlyphs" textLength="239" x="364.5" y="1154.8789">the specific instances of the hardware</text><text fill="#000000" font-family="sans-serif" font-size="13" lengthAdjust="spacingAndGlyphs" textLength="82" x="364.5" y="1170.1895">components.</text><!--class PC.sdlLib--><rect fill="url(#g8rtf4apca6bs1)" filter="url(#f8rtf4apca6bs)" height="40.1328" id="PC.sdlLib" style="stroke: #000000; stroke-width: 1.5;" width="152" x="931" y="1130"/><text fill="#000000" font-family="sans-serif" font-size="12" lengthAdjust="spacingAndGlyphs" textLength="146" x="934" y="1146.6016">Simple DirectMedia Layer</text><line style="stroke: #000000; stroke-width: 1.5;" x1="932" x2="1082" y1="1154.1328" y2="1154.1328"/><line style="stroke: #000000; stroke-width: 1.5;" x1="932" x2="1082" y1="1162.1328" y2="1162.1328"/><!--class Arduino.ArduinoHal--><rect fill="url(#g8rtf4apca6bs1)" filter="url(#f8rtf4apca6bs)" height="40.1328" id="Arduino.ArduinoHal" style="stroke: #000000; stroke-width: 1.5;" width="70" x="685" y="1130"/><text fill="#000000" font-family="sans-serif" font-size="12" lengthAdjust="spacingAndGlyphs" textLength="64" x="688" y="1146.6016">ArduinoHal</text><line style="stroke: #000000; stroke-width: 1.5;" x1="686" x2="754" y1="1154.1328" y2="1154.1328"/><line style="stroke: #000000; stroke-width: 1.5;" x1="686" x2="754" y1="1162.1328" y2="1162.1328"/><!--class Nucleo.NucleoHal--><rect fill="url(#g8rtf4apca6bs1)" filter="url(#f8rtf4apca6bs)" height="40.1328" id="Nucleo.NucleoHal" style="stroke: #000000; stroke-width: 1.5;" width="64" x="811" y="1130"/><text fill="#000000" font-family="sans-serif" font-size="12" lengthAdjust="spacingAndGlyphs" textLength="58" x="814" y="1146.6016">NucleoHal</text><line style="stroke: #000000; stroke-width: 1.5;" x1="812" x2="874" y1="1154.1328" y2="1154.1328"/><line style="stroke: #000000; stroke-width: 1.5;" x1="812" x2="874" y1="1162.1328" y2="1162.1328"/><path d="M753,743.5 L753,799.4316 L991,799.4316 L991,753.5 L981,743.5 L753,743.5 " fill="url(#g8rtf4apca6bs0)" filter="url(#f8rtf4apca6bs)" style="stroke: #000000; stroke-width: 1.0;"/><path d="M981,743.5 L981,753.5 L991,753.5 L981,743.5 " fill="url(#g8rtf4apca6bs0)" style="stroke: #000000; stroke-width: 1.0;"/><text fill="#000000" font-family="sans-serif" font-size="13" lengthAdjust="spacingAndGlyphs" textLength="217" x="759" y="761.0684">The HW Abstraction layer provides</text><text fill="#000000" font-family="sans-serif" font-size="13" lengthAdjust="spacingAndGlyphs" textLength="182" x="759" y="776.3789">abstract classes for common</text><text fill="#000000" font-family="sans-serif" font-size="13" lengthAdjust="spacingAndGlyphs" textLength="143" x="759" y="791.6895">hardware components.</text><!--class rotaryEncoder--><rect fill="url(#g8rtf4apca6bs1)" filter="url(#f8rtf4apca6bs)" height="66.043" id="rotaryEncoder" style="stroke: #000000; stroke-width: 1.5;" width="139" x="357.5" y="738.5"/><text fill="#000000" font-family="sans-serif" font-size="12" font-style="italic" lengthAdjust="spacingAndGlyphs" textLength="84" x="385" y="755.1016">RotaryEncoder</text><line style="stroke: #000000; stroke-width: 1.5;" x1="358.5" x2="495.5" y1="762.6328" y2="762.6328"/><rect fill="none" height="6" style="stroke: #C82930; stroke-width: 1.0;" width="6" x="365.5" y="771.6104"/><text fill="#000000" font-family="sans-serif" font-size="11" lengthAdjust="spacingAndGlyphs" textLength="88" x="377.5" y="777.2676">position: int16_t</text><line style="stroke: #000000; stroke-width: 1.5;" x1="358.5" x2="495.5" y1="783.5879" y2="783.5879"/><ellipse cx="368.5" cy="795.5654" fill="#84BE84" rx="3" ry="3" style="stroke: #038048; stroke-width: 1.0;"/><text fill="#000000" font-family="sans-serif" font-size="11" lengthAdjust="spacingAndGlyphs" textLength="113" x="377.5" y="798.2227">GetPosition(): int16_t</text><!--class pushButton--><rect fill="url(#g8rtf4apca6bs1)" filter="url(#f8rtf4apca6bs)" height="66.043" id="pushButton" style="stroke: #000000; stroke-width: 1.5;" width="124" x="198" y="738.5"/><text fill="#000000" font-family="sans-serif" font-size="12" font-style="italic" lengthAdjust="spacingAndGlyphs" textLength="63" x="228.5" y="755.1016">PushButton</text><line style="stroke: #000000; stroke-width: 1.5;" x1="199" x2="321" y1="762.6328" y2="762.6328"/><rect fill="none" height="6" style="stroke: #C82930; stroke-width: 1.0;" width="6" x="206" y="771.6104"/><text fill="#000000" font-family="sans-serif" font-size="11" lengthAdjust="spacingAndGlyphs" textLength="81" x="218" y="777.2676">isPressed: bool</text><line style="stroke: #000000; stroke-width: 1.5;" x1="199" x2="321" y1="783.5879" y2="783.5879"/><ellipse cx="209" cy="795.5654" fill="#84BE84" rx="3" ry="3" style="stroke: #038048; stroke-width: 1.0;"/><text fill="#000000" font-family="sans-serif" font-size="11" lengthAdjust="spacingAndGlyphs" textLength="98" x="218" y="798.2227">GetPressed(): bool</text><!--class servo--><rect fill="url(#g8rtf4apca6bs1)" filter="url(#f8rtf4apca6bs)" height="53.0879" id="servo" style="stroke: #000000; stroke-width: 1.5;" width="186" x="532" y="745"/><text fill="#000000" font-family="sans-serif" font-size="12" font-style="italic" lengthAdjust="spacingAndGlyphs" textLength="31" x="609.5" y="761.6016">Servo</text><line style="stroke: #000000; stroke-width: 1.5;" x1="533" x2="717" y1="769.1328" y2="769.1328"/><line style="stroke: #000000; stroke-width: 1.5;" x1="533" x2="717" y1="777.1328" y2="777.1328"/><ellipse cx="543" cy="789.1104" fill="#84BE84" rx="3" ry="3" style="stroke: #038048; stroke-width: 1.0;"/><text fill="#000000" font-family="sans-serif" font-size="11" lengthAdjust="spacingAndGlyphs" textLength="160" x="552" y="791.7676">SetPosition(pos: int16_t): void</text><!--class onOffSwitch--><rect fill="url(#g8rtf4apca6bs1)" filter="url(#f8rtf4apca6bs)" height="78.998" id="onOffSwitch" style="stroke: #000000; stroke-width: 1.5;" width="100" x="63" y="732"/><text fill="#000000" font-family="sans-serif" font-size="12" font-style="italic" lengthAdjust="spacingAndGlyphs" textLength="68" x="79" y="748.6016">OnOffSwitch</text><line style="stroke: #000000; stroke-width: 1.5;" x1="64" x2="162" y1="756.1328" y2="756.1328"/><line style="stroke: #000000; stroke-width: 1.5;" x1="64" x2="162" y1="764.1328" y2="764.1328"/><ellipse cx="74" cy="776.1104" fill="#84BE84" rx="3" ry="3" style="stroke: #038048; stroke-width: 1.0;"/><text fill="#000000" font-family="sans-serif" font-size="11" lengthAdjust="spacingAndGlyphs" textLength="53" x="83" y="778.7676">On(): void</text><ellipse cx="74" cy="789.0654" fill="#84BE84" rx="3" ry="3" style="stroke: #038048; stroke-width: 1.0;"/><text fill="#000000" font-family="sans-serif" font-size="11" lengthAdjust="spacingAndGlyphs" textLength="54" x="83" y="791.7227">Off(): void</text><ellipse cx="74" cy="802.0205" fill="#84BE84" rx="3" ry="3" style="stroke: #038048; stroke-width: 1.0;"/><text fill="#000000" font-family="sans-serif" font-size="11" lengthAdjust="spacingAndGlyphs" textLength="74" x="83" y="804.6777">Toggle(): void</text><!--class Hal--><rect fill="url(#g8rtf4apca6bs1)" filter="url(#f8rtf4apca6bs)" height="130.8184" id="Hal" style="stroke: #000000; stroke-width: 1.5;" width="240" x="366" y="872"/><text fill="#000000" font-family="sans-serif" font-size="12" lengthAdjust="spacingAndGlyphs" textLength="19" x="474.5" y="888.6016">Hal</text><line style="stroke: #000000; stroke-width: 1.5;" x1="367" x2="605" y1="896.1328" y2="896.1328"/><line style="stroke: #000000; stroke-width: 1.5;" x1="367" x2="605" y1="904.1328" y2="904.1328"/><ellipse cx="377" cy="916.1104" fill="#84BE84" rx="3" ry="3" style="stroke: #038048; stroke-width: 1.0;"/><text fill="#000000" font-family="sans-serif" font-size="11" font-style="italic" lengthAdjust="spacingAndGlyphs" textLength="55" x="386" y="918.7676">Init(): bool</text><ellipse cx="377" cy="929.0654" fill="#84BE84" rx="3" ry="3" style="stroke: #038048; stroke-width: 1.0;"/><text fill="#000000" font-family="sans-serif" font-size="11" font-style="italic" lengthAdjust="spacingAndGlyphs" textLength="102" x="386" y="931.7227">Delay(ms: int): void</text><ellipse cx="377" cy="942.0205" fill="#84BE84" rx="3" ry="3" style="stroke: #038048; stroke-width: 1.0;"/><text fill="#000000" font-family="sans-serif" font-size="11" font-style="italic" lengthAdjust="spacingAndGlyphs" textLength="156" x="386" y="944.6777">GetNumRotaryEncoders(): int</text><ellipse cx="377" cy="954.9756" fill="#84BE84" rx="3" ry="3" style="stroke: #038048; stroke-width: 1.0;"/><text fill="#000000" font-family="sans-serif" font-size="11" font-style="italic" lengthAdjust="spacingAndGlyphs" textLength="138" x="386" y="957.6328">GetNumPushButtons(): int</text><ellipse cx="377" cy="967.9307" fill="#84BE84" rx="3" ry="3" style="stroke: #038048; stroke-width: 1.0;"/><text fill="#000000" font-family="sans-serif" font-size="11" font-style="italic" lengthAdjust="spacingAndGlyphs" textLength="133" x="386" y="970.5879">GetNumPushServos(): int</text><ellipse cx="377" cy="980.8857" fill="#84BE84" rx="3" ry="3" style="stroke: #038048; stroke-width: 1.0;"/><text fill="#000000" font-family="sans-serif" font-size="11" font-style="italic" lengthAdjust="spacingAndGlyphs" textLength="176" x="386" y="983.543">GetNumPushOnOffSwitches(): int</text><ellipse cx="377" cy="993.8408" fill="#84BE84" rx="3" ry="3" style="stroke: #038048; stroke-width: 1.0;"/><text fill="#000000" font-family="sans-serif" font-size="11" font-style="italic" lengthAdjust="spacingAndGlyphs" textLength="214" x="386" y="996.498">GetOnOffSwitch(id: HalId): OnOffSwitch*</text><!--class ButtonId--><rect fill="url(#g8rtf4apca6bs1)" filter="url(#f8rtf4apca6bs)" height="111.041" id="ButtonId" style="stroke: #000000; stroke-width: 1.5;" width="115" x="202.5" y="261"/><text fill="#000000" font-family="sans-serif" font-size="12" font-style="italic" lengthAdjust="spacingAndGlyphs" textLength="44" x="238" y="277.6016">«enum»</text><text fill="#000000" font-family="sans-serif" font-size="12" lengthAdjust="spacingAndGlyphs" textLength="47" x="236.5" y="291.7344">ButtonId</text><line style="stroke: #000000; stroke-width: 1.5;" x1="203.5" x2="316.5" y1="299.2656" y2="299.2656"/><text fill="#000000" font-family="sans-serif" font-size="11" lengthAdjust="spacingAndGlyphs" textLength="76" x="208.5" y="313.9004">BUTTON_ID_A</text><text fill="#000000" font-family="sans-serif" font-size="11" lengthAdjust="spacingAndGlyphs" textLength="74" x="208.5" y="326.8555">BUTTON_ID_B</text><text fill="#000000" font-family="sans-serif" font-size="11" lengthAdjust="spacingAndGlyphs" textLength="76" x="208.5" y="339.8105">BUTTON_ID_C</text><text fill="#000000" font-family="sans-serif" font-size="11" lengthAdjust="spacingAndGlyphs" textLength="76" x="208.5" y="352.7656">BUTTON_ID_D</text><text fill="#000000" font-family="sans-serif" font-size="11" lengthAdjust="spacingAndGlyphs" textLength="103" x="208.5" y="365.7207">BUTTON_ID_START</text><!--class AxisId--><rect fill="url(#g8rtf4apca6bs1)" filter="url(#f8rtf4apca6bs)" height="98.0859" id="AxisId" style="stroke: #000000; stroke-width: 1.5;" width="105" x="62.5" y="267.5"/><text fill="#000000" font-family="sans-serif" font-size="12" font-style="italic" lengthAdjust="spacingAndGlyphs" textLength="44" x="93" y="284.1016">«enum»</text><text fill="#000000" font-family="sans-serif" font-size="12" lengthAdjust="spacingAndGlyphs" textLength="35" x="97.5" y="298.2344">AxisId</text><line style="stroke: #000000; stroke-width: 1.5;" x1="63.5" x2="166.5" y1="305.7656" y2="305.7656"/><text fill="#000000" font-family="sans-serif" font-size="11" lengthAdjust="spacingAndGlyphs" textLength="85" x="68.5" y="320.4004">AXIS_ID_LEFT_X</text><text fill="#000000" font-family="sans-serif" font-size="11" lengthAdjust="spacingAndGlyphs" textLength="85" x="68.5" y="333.3555">AXIS_ID_LEFT_Y</text><text fill="#000000" font-family="sans-serif" font-size="11" lengthAdjust="spacingAndGlyphs" textLength="93" x="68.5" y="346.3105">AXIS_ID_RIGHT_X</text><text fill="#000000" font-family="sans-serif" font-size="11" lengthAdjust="spacingAndGlyphs" textLength="93" x="68.5" y="359.2656">AXIS_ID_RIGHT_Y</text><!--class Button--><rect fill="url(#g8rtf4apca6bs1)" filter="url(#f8rtf4apca6bs)" height="80.1758" id="Button" style="stroke: #000000; stroke-width: 1.5;" width="99" x="211.5" y="102"/><text fill="#000000" font-family="sans-serif" font-size="12" font-style="italic" lengthAdjust="spacingAndGlyphs" textLength="44" x="239" y="118.6016">«struct»</text><text fill="#000000" font-family="sans-serif" font-size="12" lengthAdjust="spacingAndGlyphs" textLength="36" x="243" y="132.7344">Button</text><line style="stroke: #000000; stroke-width: 1.5;" x1="212.5" x2="309.5" y1="140.2656" y2="140.2656"/><ellipse cx="222.5" cy="152.2432" fill="none" rx="3" ry="3" style="stroke: #038048; stroke-width: 1.0;"/><text fill="#000000" font-family="sans-serif" font-size="11" lengthAdjust="spacingAndGlyphs" textLength="61" x="231.5" y="154.9004">id: ButtonId</text><ellipse cx="222.5" cy="165.1982" fill="none" rx="3" ry="3" style="stroke: #038048; stroke-width: 1.0;"/><text fill="#000000" font-family="sans-serif" font-size="11" lengthAdjust="spacingAndGlyphs" textLength="73" x="231.5" y="167.8555">pressed: bool</text><line style="stroke: #000000; stroke-width: 1.5;" x1="212.5" x2="309.5" y1="174.1758" y2="174.1758"/><!--class Axis--><rect fill="url(#g8rtf4apca6bs1)" filter="url(#f8rtf4apca6bs)" height="80.1758" id="Axis" style="stroke: #000000; stroke-width: 1.5;" width="114" x="62" y="102"/><text fill="#000000" font-family="sans-serif" font-size="12" font-style="italic" lengthAdjust="spacingAndGlyphs" textLength="44" x="97" y="118.6016">«struct»</text><text fill="#000000" font-family="sans-serif" font-size="12" lengthAdjust="spacingAndGlyphs" textLength="24" x="107" y="132.7344">Axis</text><line style="stroke: #000000; stroke-width: 1.5;" x1="63" x2="175" y1="140.2656" y2="140.2656"/><ellipse cx="73" cy="152.2432" fill="none" rx="3" ry="3" style="stroke: #038048; stroke-width: 1.0;"/><text fill="#000000" font-family="sans-serif" font-size="11" lengthAdjust="spacingAndGlyphs" textLength="50" x="82" y="154.9004">id: AxisId</text><ellipse cx="73" cy="165.1982" fill="none" rx="3" ry="3" style="stroke: #038048; stroke-width: 1.0;"/><text fill="#000000" font-family="sans-serif" font-size="11" lengthAdjust="spacingAndGlyphs" textLength="88" x="82" y="167.8555">position: int16_t</text><line style="stroke: #000000; stroke-width: 1.5;" x1="63" x2="175" y1="174.1758" y2="174.1758"/><!--class GameSystem--><rect fill="url(#g8rtf4apca6bs1)" filter="url(#f8rtf4apca6bs)" height="78.998" id="GameSystem" style="stroke: #000000; stroke-width: 1.5;" width="217" x="700.5" y="102.5"/><text fill="#000000" font-family="sans-serif" font-size="12" lengthAdjust="spacingAndGlyphs" textLength="74" x="772" y="119.1016">GameSystem</text><line style="stroke: #000000; stroke-width: 1.5;" x1="701.5" x2="916.5" y1="126.6328" y2="126.6328"/><line style="stroke: #000000; stroke-width: 1.5;" x1="701.5" x2="916.5" y1="134.6328" y2="134.6328"/><ellipse cx="711.5" cy="146.6104" fill="#84BE84" rx="3" ry="3" style="stroke: #038048; stroke-width: 1.0;"/><text fill="#000000" font-family="sans-serif" font-size="11" lengthAdjust="spacingAndGlyphs" textLength="110" x="720.5" y="149.2676">GetCanvas(): Canvas</text><ellipse cx="711.5" cy="159.5654" fill="#84BE84" rx="3" ry="3" style="stroke: #038048; stroke-width: 1.0;"/><text fill="#000000" font-family="sans-serif" font-size="11" lengthAdjust="spacingAndGlyphs" textLength="157" x="720.5" y="162.2227">GetNumGamePads(): uint16_t</text><ellipse cx="711.5" cy="172.5205" fill="#84BE84" rx="3" ry="3" style="stroke: #038048; stroke-width: 1.0;"/><text fill="#000000" font-family="sans-serif" font-size="11" lengthAdjust="spacingAndGlyphs" textLength="191" x="720.5" y="175.1777">GetGamePad(id: uint16_t): GamePad</text><!--class Program--><rect fill="url(#g8rtf4apca6bs1)" filter="url(#f8rtf4apca6bs)" height="104.9082" id="Program" style="stroke: #000000; stroke-width: 1.5;" width="229" x="891.5" y="264"/><text fill="#000000" font-family="sans-serif" font-size="12" lengthAdjust="spacingAndGlyphs" textLength="49" x="981.5" y="280.6016">Program</text><line style="stroke: #000000; stroke-width: 1.5;" x1="892.5" x2="1119.5" y1="288.1328" y2="288.1328"/><line style="stroke: #000000; stroke-width: 1.5;" x1="892.5" x2="1119.5" y1="296.1328" y2="296.1328"/><ellipse cx="902.5" cy="308.1104" fill="#84BE84" rx="3" ry="3" style="stroke: #038048; stroke-width: 1.0;"/><text fill="#000000" font-family="sans-serif" font-size="11" lengthAdjust="spacingAndGlyphs" textLength="203" x="911.5" y="310.7676">Init(gameSystem: GameSystem&amp;): void</text><ellipse cx="902.5" cy="321.0654" fill="#84BE84" rx="3" ry="3" style="stroke: #038048; stroke-width: 1.0;"/><text fill="#000000" font-family="sans-serif" font-size="11" lengthAdjust="spacingAndGlyphs" textLength="62" x="911.5" y="323.7227">Start(): void</text><ellipse cx="902.5" cy="334.0205" fill="#84BE84" rx="3" ry="3" style="stroke: #038048; stroke-width: 1.0;"/><text fill="#000000" font-family="sans-serif" font-size="11" lengthAdjust="spacingAndGlyphs" textLength="75" x="911.5" y="336.6777">Update(): void</text><ellipse cx="902.5" cy="346.9756" fill="#84BE84" rx="3" ry="3" style="stroke: #038048; stroke-width: 1.0;"/><text fill="#000000" font-family="sans-serif" font-size="11" lengthAdjust="spacingAndGlyphs" textLength="144" x="911.5" y="349.6328">HandleEvent(e: Event): void</text><ellipse cx="902.5" cy="359.9307" fill="#84BE84" rx="3" ry="3" style="stroke: #038048; stroke-width: 1.0;"/><text fill="#000000" font-family="sans-serif" font-size="11" lengthAdjust="spacingAndGlyphs" textLength="61" x="911.5" y="362.5879">Stop(): void</text><!--class GameSystemLaser--><rect fill="url(#g8rtf4apca6bs1)" filter="url(#f8rtf4apca6bs)" height="40.1328" id="GameSystemLaser" style="stroke: #000000; stroke-width: 1.5;" width="111" x="952.5" y="122"/><text fill="#000000" font-family="sans-serif" font-size="12" lengthAdjust="spacingAndGlyphs" textLength="105" x="955.5" y="138.6016">GameSystemLaser</text><line style="stroke: #000000; stroke-width: 1.5;" x1="953.5" x2="1062.5" y1="146.1328" y2="146.1328"/><line style="stroke: #000000; stroke-width: 1.5;" x1="953.5" x2="1062.5" y1="154.1328" y2="154.1328"/><!--class GameSystemPC--><rect fill="url(#g8rtf4apca6bs1)" filter="url(#f8rtf4apca6bs)" height="40.1328" id="GameSystemPC" style="stroke: #000000; stroke-width: 1.5;" width="95" x="570.5" y="122"/><text fill="#000000" font-family="sans-serif" font-size="12" lengthAdjust="spacingAndGlyphs" textLength="89" x="573.5" y="138.6016">GameSystemPC</text><line style="stroke: #000000; stroke-width: 1.5;" x1="571.5" x2="664.5" y1="146.1328" y2="146.1328"/><line style="stroke: #000000; stroke-width: 1.5;" x1="571.5" x2="664.5" y1="154.1328" y2="154.1328"/><!--class Drivers.Canvas--><rect fill="url(#g8rtf4apca6bs1)" filter="url(#f8rtf4apca6bs)" height="104.9082" id="Drivers.Canvas" style="stroke: #000000; stroke-width: 1.5;" width="290" x="566" y="264"/><text fill="#000000" font-family="sans-serif" font-size="12" lengthAdjust="spacingAndGlyphs" textLength="41" x="690.5" y="280.6016">Canvas</text><line style="stroke: #000000; stroke-width: 1.5;" x1="567" x2="855" y1="288.1328" y2="288.1328"/><line style="stroke: #000000; stroke-width: 1.5;" x1="567" x2="855" y1="296.1328" y2="296.1328"/><ellipse cx="577" cy="308.1104" fill="#84BE84" rx="3" ry="3" style="stroke: #038048; stroke-width: 1.0;"/><text fill="#000000" font-family="sans-serif" font-size="11" font-style="italic" lengthAdjust="spacingAndGlyphs" textLength="65" x="586" y="310.7676">Clear(): void</text><ellipse cx="577" cy="321.0654" fill="#84BE84" rx="3" ry="3" style="stroke: #038048; stroke-width: 1.0;"/><text fill="#000000" font-family="sans-serif" font-size="11" font-style="italic" lengthAdjust="spacingAndGlyphs" textLength="207" x="586" y="323.7227">DrawLine(start: Point, stop: Point): void</text><ellipse cx="577" cy="334.0205" fill="#84BE84" rx="3" ry="3" style="stroke: #038048; stroke-width: 1.0;"/><text fill="#000000" font-family="sans-serif" font-size="11" font-style="italic" lengthAdjust="spacingAndGlyphs" textLength="253" x="586" y="336.6777">DrawCircle(center: Point, radius: uint16_t): void</text><ellipse cx="577" cy="346.9756" fill="#84BE84" rx="3" ry="3" style="stroke: #038048; stroke-width: 1.0;"/><text fill="#000000" font-family="sans-serif" font-size="11" font-style="italic" lengthAdjust="spacingAndGlyphs" textLength="264" x="586" y="349.6328">DrawRect(topLeft: Point, bottomRight: Point): void</text><ellipse cx="577" cy="359.9307" fill="#84BE84" rx="3" ry="3" style="stroke: #038048; stroke-width: 1.0;"/><text fill="#000000" font-family="sans-serif" font-size="11" font-style="italic" lengthAdjust="spacingAndGlyphs" textLength="111" x="586" y="362.5879">DrawBezier(???): void</text><!--class Drivers.DisplayIfc--><rect fill="url(#g8rtf4apca6bs1)" filter="url(#f8rtf4apca6bs)" height="53.0879" id="Drivers.DisplayIfc" style="stroke: #000000; stroke-width: 1.5;" width="101" x="642.5" y="447.5"/><text fill="#000000" font-family="sans-serif" font-size="12" font-style="italic" lengthAdjust="spacingAndGlyphs" textLength="55" x="665.5" y="464.1016">DisplayIfc</text><line style="stroke: #000000; stroke-width: 1.5;" x1="643.5" x2="742.5" y1="471.6328" y2="471.6328"/><line style="stroke: #000000; stroke-width: 1.5;" x1="643.5" x2="742.5" y1="479.6328" y2="479.6328"/><ellipse cx="653.5" cy="491.6104" fill="#84BE84" rx="3" ry="3" style="stroke: #038048; stroke-width: 1.0;"/><text fill="#000000" font-family="sans-serif" font-size="11" font-style="italic" lengthAdjust="spacingAndGlyphs" textLength="75" x="662.5" y="494.2676">Render(): void</text><!--class Drivers.LaserDisplay--><rect fill="url(#g8rtf4apca6bs1)" filter="url(#f8rtf4apca6bs)" height="40.1328" id="Drivers.LaserDisplay" style="stroke: #000000; stroke-width: 1.5;" width="79" x="592.5" y="584"/><text fill="#000000" font-family="sans-serif" font-size="12" lengthAdjust="spacingAndGlyphs" textLength="73" x="595.5" y="600.6016">LaserDisplay</text><line style="stroke: #000000; stroke-width: 1.5;" x1="593.5" x2="670.5" y1="608.1328" y2="608.1328"/><line style="stroke: #000000; stroke-width: 1.5;" x1="593.5" x2="670.5" y1="616.1328" y2="616.1328"/><!--class Drivers.SdlDisplay--><rect fill="url(#g8rtf4apca6bs1)" filter="url(#f8rtf4apca6bs)" height="40.1328" id="Drivers.SdlDisplay" style="stroke: #000000; stroke-width: 1.5;" width="65" x="759.5" y="584"/><text fill="#000000" font-family="sans-serif" font-size="12" lengthAdjust="spacingAndGlyphs" textLength="59" x="762.5" y="600.6016">SdlDisplay</text><line style="stroke: #000000; stroke-width: 1.5;" x1="760.5" x2="823.5" y1="608.1328" y2="608.1328"/><line style="stroke: #000000; stroke-width: 1.5;" x1="760.5" x2="823.5" y1="616.1328" y2="616.1328"/><!--class Drivers.gamePad--><rect fill="url(#g8rtf4apca6bs1)" filter="url(#f8rtf4apca6bs)" height="66.043" id="Drivers.gamePad" style="stroke: #000000; stroke-width: 1.5;" width="178" x="353" y="283.5"/><text fill="#000000" font-family="sans-serif" font-size="12" font-style="italic" lengthAdjust="spacingAndGlyphs" textLength="56" x="414" y="300.1016">GamePad</text><line style="stroke: #000000; stroke-width: 1.5;" x1="354" x2="530" y1="307.6328" y2="307.6328"/><line style="stroke: #000000; stroke-width: 1.5;" x1="354" x2="530" y1="315.6328" y2="315.6328"/><ellipse cx="364" cy="327.6104" fill="#84BE84" rx="3" ry="3" style="stroke: #038048; stroke-width: 1.0;"/><text fill="#000000" font-family="sans-serif" font-size="11" font-style="italic" lengthAdjust="spacingAndGlyphs" textLength="152" x="373" y="330.2676">GetButton(id: ButtonId): bool</text><ellipse cx="364" cy="340.5654" fill="#84BE84" rx="3" ry="3" style="stroke: #038048; stroke-width: 1.0;"/><text fill="#000000" font-family="sans-serif" font-size="11" font-style="italic" lengthAdjust="spacingAndGlyphs" textLength="144" x="373" y="343.2227">GetAxis(id: AxisId): int16_t</text><!--class Drivers.GamePadPaddle--><rect fill="url(#g8rtf4apca6bs1)" filter="url(#f8rtf4apca6bs)" height="66.043" id="Drivers.GamePadPaddle" style="stroke: #000000; stroke-width: 1.5;" width="103" x="375.5" y="441"/><text fill="#000000" font-family="sans-serif" font-size="12" lengthAdjust="spacingAndGlyphs" textLength="96" x="379" y="457.6016">GamePadPaddle</text><line style="stroke: #000000; stroke-width: 1.5;" x1="376.5" x2="477.5" y1="465.1328" y2="465.1328"/><rect fill="none" height="6" style="stroke: #C82930; stroke-width: 1.0;" width="6" x="383.5" y="474.1104"/><text fill="#000000" font-family="sans-serif" font-size="11" lengthAdjust="spacingAndGlyphs" textLength="77" x="395.5" y="479.7676">button: Button</text><rect fill="none" height="6" style="stroke: #C82930; stroke-width: 1.0;" width="6" x="383.5" y="487.0654"/><text fill="#000000" font-family="sans-serif" font-size="11" lengthAdjust="spacingAndGlyphs" textLength="60" x="395.5" y="492.7227">wheel: Axis</text><line style="stroke: #000000; stroke-width: 1.5;" x1="376.5" x2="477.5" y1="499.043" y2="499.043"/><!--class Drivers.GamePadPC--><rect fill="url(#g8rtf4apca6bs1)" filter="url(#f8rtf4apca6bs)" height="40.1328" id="Drivers.GamePadPC" style="stroke: #000000; stroke-width: 1.5;" width="77" x="778.5" y="454"/><text fill="#000000" font-family="sans-serif" font-size="12" lengthAdjust="spacingAndGlyphs" textLength="71" x="781.5" y="470.6016">GamePadPC</text><line style="stroke: #000000; stroke-width: 1.5;" x1="779.5" x2="854.5" y1="478.1328" y2="478.1328"/><line style="stroke: #000000; stroke-width: 1.5;" x1="779.5" x2="854.5" y1="486.1328" y2="486.1328"/><!--class breakout--><rect fill="url(#g8rtf4apca6bs1)" filter="url(#f8rtf4apca6bs)" height="40.1328" id="breakout" style="stroke: #000000; stroke-width: 1.5;" width="87" x="1276.5" y="454"/><text fill="#000000" font-family="sans-serif" font-size="12" lengthAdjust="spacingAndGlyphs" textLength="81" x="1279.5" y="470.6016">GiantBreakout</text><line style="stroke: #000000; stroke-width: 1.5;" x1="1277.5" x2="1362.5" y1="478.1328" y2="478.1328"/><line style="stroke: #000000; stroke-width: 1.5;" x1="1277.5" x2="1362.5" y1="486.1328" y2="486.1328"/><!--class asteroids--><rect fill="url(#g8rtf4apca6bs1)" filter="url(#f8rtf4apca6bs)" height="40.1328" id="asteroids" style="stroke: #000000; stroke-width: 1.5;" width="90" x="1399" y="454"/><text fill="#000000" font-family="sans-serif" font-size="12" lengthAdjust="spacingAndGlyphs" textLength="84" x="1402" y="470.6016">GiantAsteroids</text><line style="stroke: #000000; stroke-width: 1.5;" x1="1400" x2="1488" y1="478.1328" y2="478.1328"/><line style="stroke: #000000; stroke-width: 1.5;" x1="1400" x2="1488" y1="486.1328" y2="486.1328"/><!--class logo--><rect fill="url(#g8rtf4apca6bs1)" filter="url(#f8rtf4apca6bs)" height="40.1328" id="logo" style="stroke: #000000; stroke-width: 1.5;" width="104" x="1524" y="454"/><text fill="#000000" font-family="sans-serif" font-size="12" lengthAdjust="spacingAndGlyphs" textLength="98" x="1527" y="470.6016">VectorSpaceLogo</text><line style="stroke: #000000; stroke-width: 1.5;" x1="1525" x2="1627" y1="478.1328" y2="478.1328"/><line style="stroke: #000000; stroke-width: 1.5;" x1="1525" x2="1627" y1="486.1328" y2="486.1328"/><!--class pong--><rect fill="url(#g8rtf4apca6bs1)" filter="url(#f8rtf4apca6bs)" height="40.1328" id="pong" style="stroke: #000000; stroke-width: 1.5;" width="64" x="1177" y="454"/><text fill="#000000" font-family="sans-serif" font-size="12" lengthAdjust="spacingAndGlyphs" textLength="58" x="1180" y="470.6016">GiantPong</text><line style="stroke: #000000; stroke-width: 1.5;" x1="1178" x2="1240" y1="478.1328" y2="478.1328"/><line style="stroke: #000000; stroke-width: 1.5;" x1="1178" x2="1240" y1="486.1328" y2="486.1328"/><path d="M1348,591.5 L1348,616.8105 L1414,616.8105 L1414,601.5 L1404,591.5 L1348,591.5 " fill="url(#g8rtf4apca6bs0)" filter="url(#f8rtf4apca6bs)" style="stroke: #000000; stroke-width: 1.0;"/><path d="M1404,591.5 L1404,601.5 L1414,601.5 L1404,591.5 " fill="url(#g8rtf4apca6bs0)" style="stroke: #000000; stroke-width: 1.0;"/><text fill="#000000" font-family="sans-serif" font-size="13" lengthAdjust="spacingAndGlyphs" textLength="45" x="1354" y="609.0684">Future?</text><!--link onOffSwitch to Hal--><path d="M163.099,802.238 C168.744,805.304 174.458,808.286 180,811 C235.853,838.352 299.218,865.023 353.742,886.695 " fill="none" id="onOffSwitch-Hal" style="stroke: #000000; stroke-width: 1.0;"/><polygon fill="#FFFFFF" points="365.954,891.524,361.845,885.5981,354.7945,887.1119,358.9036,893.0378,365.954,891.524" style="stroke: #000000; stroke-width: 1.0;"/><!--link rotaryEncoder to Hal--><path d="M438.516,804.51 C444.21,820.337 451.349,840.182 458.349,859.64 " fill="none" id="rotaryEncoder-Hal" style="stroke: #000000; stroke-width: 1.0;"/><polygon fill="#FFFFFF" points="462.793,871.994,464.5262,864.9943,458.7315,860.7022,456.9983,867.7019,462.793,871.994" style="stroke: #000000; stroke-width: 1.0;"/><!--link servo to Hal--><path d="M603.281,798.125 C588.715,815.311 568.722,838.901 549.367,861.736 " fill="none" id="servo-Hal" style="stroke: #000000; stroke-width: 1.0;"/><polygon fill="#FFFFFF" points="540.837,871.801,547.7677,869.8097,548.5952,862.6462,541.6645,864.6375,540.837,871.801" style="stroke: #000000; stroke-width: 1.0;"/><!--link pushButton to Hal--><path d="M304.112,804.51 C327.679,821.613 357.712,843.406 386.551,864.333 " fill="none" id="pushButton-Hal" style="stroke: #000000; stroke-width: 1.0;"/><polygon fill="#FFFFFF" points="397.107,871.994,394.6004,865.2326,387.395,864.9457,389.9016,871.7072,397.107,871.994" style="stroke: #000000; stroke-width: 1.0;"/><!--link Hal to Arduino.ArduinoHal--><path d="M623.355,996.187 C644.634,1009.553 664.866,1025.428 681,1044 C702.68,1068.957 712.764,1107.07 717.093,1129.862 " fill="none" id="Hal-Arduino.ArduinoHal" style="stroke: #000000; stroke-width: 1.0;"/><polygon fill="none" points="619.779,1002.204,606.123,986.001,626.902,990.152,619.779,1002.204" style="stroke: #000000; stroke-width: 1.0;"/><!--link Hal to Nucleo.NucleoHal--><path d="M625.615,971.305 C674.961,987.563 728.663,1010.997 771,1044 C800.81,1067.237 822.921,1106.28 834.317,1129.645 " fill="none" id="Hal-Nucleo.NucleoHal" style="stroke: #000000; stroke-width: 1.0;"/><polygon fill="none" points="623.207,977.886,606.231,965.204,627.41,964.531,623.207,977.886" style="stroke: #000000; stroke-width: 1.0;"/><!--link Button to ButtonId--><path d="M260.773,182.14 C260.638,205.4 260.465,235.26 260.317,260.82 " fill="none" id="Button-ButtonId" style="stroke: #000000; stroke-width: 1.0;"/><!--link Axis to AxisId--><path d="M118.092,182.14 C117.507,207.39 116.741,240.41 116.118,267.274 " fill="none" id="Axis-AxisId" style="stroke: #000000; stroke-width: 1.0;"/><!--link Drivers.Canvas to Drivers.DisplayIfc--><path d="M705.006,369.279 C702.216,393.388 698.989,421.26 696.584,442.036 " fill="none" id="Drivers.Canvas-Drivers.DisplayIfc" style="stroke: #000000; stroke-width: 1.0;"/><polygon fill="#000000" points="695.991,447.159,700.9982,438.678,696.5653,442.1921,693.0511,437.7591,695.991,447.159" style="stroke: #000000; stroke-width: 1.0;"/><!--link Drivers.DisplayIfc to Drivers.LaserDisplay--><path d="M653.086,516.393 C648.391,522.912 644.157,529.867 641,537 C634.447,551.805 632.37,570.155 631.833,583.746 " fill="none" id="Drivers.DisplayIfc-Drivers.LaserDisplay" style="stroke: #000000; stroke-width: 1.0;"/><polygon fill="none" points="647.715,511.902,665.756,500.788,658.584,520.727,647.715,511.902" style="stroke: #000000; stroke-width: 1.0;"/><text fill="#000000" font-family="sans-serif" font-size="13" lengthAdjust="spacingAndGlyphs" textLength="74" x="642" y="550.5684">implements</text><!--link Drivers.DisplayIfc to Drivers.SdlDisplay--><path d="M725.066,516.459 C742.547,539.061 763.355,565.964 777.078,583.707 " fill="none" id="Drivers.DisplayIfc-Drivers.SdlDisplay" style="stroke: #000000; stroke-width: 1.0;"/><polygon fill="none" points="719.495,520.698,712.796,500.595,730.569,512.133,719.495,520.698" style="stroke: #000000; stroke-width: 1.0;"/><text fill="#000000" font-family="sans-serif" font-size="13" lengthAdjust="spacingAndGlyphs" textLength="74" x="753" y="550.5684">implements</text><!--link Drivers.gamePad to Drivers.GamePadPaddle--><path d="M436.968,369.662 C434.696,393.215 432.084,420.293 430.104,440.822 " fill="none" id="Drivers.gamePad-Drivers.GamePadPaddle" style="stroke: #000000; stroke-width: 1.0;"/><polygon fill="none" points="430.004,368.955,438.892,349.72,443.939,370.299,430.004,368.955" style="stroke: #000000; stroke-width: 1.0;"/><!--link Drivers.gamePad to Drivers.GamePadPC--><path d="M495.491,361.755 C518.016,377.799 545.386,394.142 573,403 C612.817,415.772 723.156,393.213 761,411 C780.297,420.07 795.897,439.166 805.683,453.784 " fill="none" id="Drivers.gamePad-Drivers.GamePadPC" style="stroke: #000000; stroke-width: 1.0;"/><polygon fill="none" points="491.137,367.24,479.287,349.673,499.505,356.016,491.137,367.24" style="stroke: #000000; stroke-width: 1.0;"/><!--link Drivers.GamePadPaddle to rotaryEncoder--><path d="M427,520.414 C427,580.695 427,685.645 427,738.353 " fill="none" id="Drivers.GamePadPaddle-rotaryEncoder" style="stroke: #000000; stroke-width: 1.0;"/><polygon fill="#000000" points="427,507.186,423,513.186,427,519.186,431,513.186,427,507.186" style="stroke: #000000; stroke-width: 1.0;"/><!--link Drivers.GamePadPaddle to pushButton--><path d="M402.402,518.525 C368.519,578.48 308.269,685.091 278.167,738.353 " fill="none" id="Drivers.GamePadPaddle-pushButton" style="stroke: #000000; stroke-width: 1.0;"/><polygon fill="#000000" points="408.81,507.186,402.3753,510.4409,402.905,517.6326,409.3397,514.3776,408.81,507.186" style="stroke: #000000; stroke-width: 1.0;"/><!--link Drivers.LaserDisplay to servo--><path d="M630.624,637.535 C629.295,668.964 627.308,715.933 626.086,744.818 " fill="none" id="Drivers.LaserDisplay-servo" style="stroke: #000000; stroke-width: 1.0;"/><polygon fill="#000000" points="631.183,624.309,626.9327,630.1344,630.6753,636.2983,634.9256,630.4729,631.183,624.309" style="stroke: #000000; stroke-width: 1.0;"/><text fill="#000000" font-family="sans-serif" font-size="13" lengthAdjust="spacingAndGlyphs" textLength="8" x="617.3757" y="734.0816">2</text><!--link Drivers.GamePadPC to PC.sdlLib--><path d="M855.594,477.613 C925.062,484.634 1064,510.268 1064,603 C1064,603 1064,603 1064,938.5 C1064,1011.194 1031.94,1093.253 1015.91,1129.739 " fill="none" id="Drivers.GamePadPC-PC.sdlLib" style="stroke: #000000; stroke-width: 1.0;"/><!--link Drivers.SdlDisplay to PC.sdlLib--><path d="M824.792,606.861 C874.051,611.63 965.755,628.605 1007,689 C1056.82,761.957 1020.53,1052.4 1009.75,1129.906 " fill="none" id="Drivers.SdlDisplay-PC.sdlLib" style="stroke: #000000; stroke-width: 1.0;"/><!--link GameSystem to Drivers.gamePad--><path d="M687.844,180.55 C686.22,181.04 684.604,181.52 683,182 C623.167,199.9 602.668,190.8 548,221 C518.65,237.21 490.569,262.869 470.691,283.361 " fill="none" id="GameSystem-Drivers.gamePad" style="stroke: #000000; stroke-width: 1.0;"/><polygon fill="#000000" points="700.447,176.74,693.5476,174.6429,688.9582,180.2051,695.8576,182.3022,700.447,176.74" style="stroke: #000000; stroke-width: 1.0;"/><text fill="#000000" font-family="sans-serif" font-size="13" lengthAdjust="spacingAndGlyphs" textLength="22" x="452.3398" y="272.5752">1..*</text><!--link GameSystem to Drivers.Canvas--><path d="M780.451,193.25 C767.849,215.43 753.049,241.49 740.356,263.828 " fill="none" id="GameSystem-Drivers.Canvas" style="stroke: #000000; stroke-width: 1.0;"/><polygon fill="#000000" points="787.007,181.71,780.5668,184.9541,781.0843,192.1466,787.5245,188.9025,787.007,181.71" style="stroke: #000000; stroke-width: 1.0;"/><text fill="#000000" font-family="sans-serif" font-size="13" lengthAdjust="spacingAndGlyphs" textLength="8" x="735.7632" y="253.34">1</text><!--link GameSystem to Program--><path d="M852.056,190.82 C876.457,213.51 907.388,240.66 935.198,263.828 " fill="none" id="GameSystem-Program" style="stroke: #000000; stroke-width: 1.0;"/><polygon fill="#FFFFFF" points="842.367,181.71,843.9998,188.7338,851.1113,189.9281,849.4785,182.9043,842.367,181.71" style="stroke: #000000; stroke-width: 1.0;"/><text fill="#000000" font-family="sans-serif" font-size="13" lengthAdjust="spacingAndGlyphs" textLength="8" x="839.2309" y="202.1234">1</text><text fill="#000000" font-family="sans-serif" font-size="13" lengthAdjust="spacingAndGlyphs" textLength="6" x="919.2809" y="253.34">*</text><!--link Program to GameSystem--><path d="M959.475,263.828 C932.227,238.6 897.779,208.65 868.59,184.88 " fill="none" id="Program-GameSystem" style="stroke: #000000; stroke-width: 1.0; stroke-dasharray: 7.0,7.0;"/><polygon fill="#000000" points="864.692,181.71,869.1624,190.4858,868.5754,184.8595,874.2017,184.2724,864.692,181.71" style="stroke: #000000; stroke-width: 1.0;"/><!--link GameSystem to GameSystemLaser--><path d="M938.054,142 C942.818,142 947.583,142 952.347,142 " fill="none" id="GameSystem-GameSystemLaser" style="stroke: #000000; stroke-width: 1.0;"/><polygon fill="none" points="937.828,149,917.828,142,937.828,135,937.828,149" style="stroke: #000000; stroke-width: 1.0;"/><!--link GameSystemPC to GameSystem--><path d="M665.75,142 C670.629,142 675.508,142 680.386,142 " fill="none" id="GameSystemPC-GameSystem" style="stroke: #000000; stroke-width: 1.0;"/><polygon fill="none" points="680.443,135,700.443,142,680.443,149,680.443,135" style="stroke: #000000; stroke-width: 1.0;"/><!--link breakout to future--><path d="M1329.13,494.163 C1341.96,521.083 1364.93,569.273 1375.45,591.361 " fill="none" id="breakout-future" style="stroke: #000000; stroke-width: 1.0; stroke-dasharray: 7.0,7.0;"/><!--link asteroids to future--><path d="M1434.57,494.163 C1421.32,521.083 1397.6,569.273 1386.73,591.361 " fill="none" id="asteroids-future" style="stroke: #000000; stroke-width: 1.0; stroke-dasharray: 7.0,7.0;"/><!--link Program to pong--><path d="M1089.28,381.292 C1123.47,407.481 1160.51,435.855 1184.19,453.996 " fill="none" id="Program-pong" style="stroke: #000000; stroke-width: 1.0;"/><polygon fill="none" points="1084.93,386.782,1073.31,369.063,1093.45,375.668,1084.93,386.782" style="stroke: #000000; stroke-width: 1.0;"/><!--link Program to logo--><path d="M1140.74,322.874 C1245.33,331.605 1391.48,354.015 1507,411 C1527.94,421.331 1547.3,439.849 1560.14,453.966 " fill="none" id="Program-logo" style="stroke: #000000; stroke-width: 1.0;"/><polygon fill="none" points="1140.13,329.848,1120.73,321.328,1141.21,315.89,1140.13,329.848" style="stroke: #000000; stroke-width: 1.0;"/><!--link Program to breakout--><path d="M1139.7,354.586 C1179.82,368.898 1222.75,387.575 1259,411 C1277.01,422.639 1293.81,440.442 1305.2,453.99 " fill="none" id="Program-breakout" style="stroke: #000000; stroke-width: 1.0;"/><polygon fill="none" points="1137.22,361.136,1120.58,348.012,1141.77,347.897,1137.22,361.136" style="stroke: #000000; stroke-width: 1.0;"/><!--link Program to asteroids--><path d="M1140.52,333.311 C1214.99,346.301 1307.15,369.604 1381,411 C1400.28,421.805 1417.8,440.071 1429.44,453.986 " fill="none" id="Program-asteroids" style="stroke: #000000; stroke-width: 1.0;"/><polygon fill="none" points="1139.1,340.17,1120.51,329.992,1141.39,326.359,1139.1,340.17" style="stroke: #000000; stroke-width: 1.0;"/><!--
@startuml

skinparam class {
backgroundcolor   #b7ddfc/White
bordercolor       black
ArrowColor        black
}

hide enum methods
hide circle

skinparam note {
backgroundcolor   Ivory/White
bordercolor       black
}

package "Laser Game System" as laserGameSystem <<Frame>> {

package "Platforms" <<Frame>> {
note as platformsNote1
The various hardware platforms implement
the specific instances of the hardware
components.
end note

namespace PC {
class "Simple DirectMedia Layer" as sdlLib
}

namespace Arduino {
class ArduinoHal
}

namespace Nucleo {
class NucleoHal
}
}

package "HW Abstraction" as hwAbstraction <<Frame>> {
note as hwAbstractNote1
The HW Abstraction layer provides
abstract classes for common
hardware components.
end note

class "<i>RotaryEncoder</i>" as rotaryEncoder {
- position: int16_t
+ GetPosition(): int16_t
}

class "<i>PushButton</i>" as pushButton {
- isPressed: bool
+ GetPressed(): bool
}

class "<i>Servo</i>" as servo {
+ SetPosition(pos: int16_t): void
}

class "<i>OnOffSwitch</i>" as onOffSwitch {
+ On(): void
+ Off(): void
+ Toggle(): void
}

class "Hal " as Hal{
+ {abstract} Init(): bool
+ {abstract} Delay(ms: int): void
+ {abstract} GetNumRotaryEncoders(): int
+ {abstract} GetNumPushButtons(): int
+ {abstract} GetNumPushServos(): int
+ {abstract} GetNumPushOnOffSwitches(): int
+ {abstract} GetOnOffSwitch(id: HalId): OnOffSwitch*
}

onOffSwitch - -o Hal
rotaryEncoder - -o Hal
servo - -o Hal
pushButton - -o Hal
}

Hal <|- - Arduino.ArduinoHal
Hal <|- - Nucleo.NucleoHal

package "Game System" as gameSystem <<Frame>> {
enum ButtonId <<enum>> {
BUTTON_ID_A
BUTTON_ID_B
BUTTON_ID_C
BUTTON_ID_D
BUTTON_ID_START
}

enum AxisId <<enum>> {
AXIS_ID_LEFT_X
AXIS_ID_LEFT_Y
AXIS_ID_RIGHT_X
AXIS_ID_RIGHT_Y
}

class Button <<struct>> {
+ id: ButtonId
+ pressed: bool
}

Button - - ButtonId

class Axis <<struct>> {
+ id: AxisId
+ position: int16_t
}

Axis - - AxisId

namespace Drivers {
class Canvas {
+ {abstract} Clear(): void
+ {abstract} DrawLine(start: Point, stop: Point): void
+ {abstract} DrawCircle(center: Point, radius: uint16_t): void
+ {abstract} DrawRect(topLeft: Point, bottomRight: Point): void
+ {abstract} DrawBezier(???): void
}

class "<i>DisplayIfc</i>" as DisplayIfc {
+ {abstract} Render(): void
}

class LaserDisplay {
}

class SdlDisplay {
}

Canvas - -> DisplayIfc
DisplayIfc <|- - LaserDisplay: implements
DisplayIfc <|- - SdlDisplay: implements

class "<i>GamePad</i>" as gamePad {
+ {abstract} GetButton(id: ButtonId): bool
+ {abstract} GetAxis(id: AxisId): int16_t
}

class GamePadPaddle {
- button: Button
- wheel: Axis
}

class GamePadPC {
}

gamePad <|- - GamePadPaddle
gamePad <|- - GamePadPC
}

class GameSystem {
+ GetCanvas(): Canvas
+ GetNumGamePads(): uint16_t
+ GetGamePad(id: uint16_t): GamePad
}

class Program {
+ Init(gameSystem: GameSystem&): void
+ Start(): void
+ Update(): void
+ HandleEvent(e: Event): void
+ Stop(): void
}

class GameSystemLaser
class GameSystemPC

Drivers.GamePadPaddle *- - rotaryEncoder
Drivers.GamePadPaddle *- - pushButton
Drivers.LaserDisplay *- - "2" servo

Drivers.GamePadPC - - PC.sdlLib
Drivers.SdlDisplay - - PC.sdlLib

GameSystem *- - "1..*" Drivers.gamePad
GameSystem *- - "1" Drivers.Canvas
GameSystem "1" o- - "*" Program
Program ..> GameSystem
GameSystem <|-right- GameSystemLaser
GameSystem <|-left- GameSystemPC
}

package "Programs" as programs <<Frame>> {
class "GiantBreakout" as breakout
class "GiantAsteroids" as asteroids
class "VectorSpaceLogo" as logo
class "GiantPong" as pong

note "Future?" as future
breakout .. future
asteroids .. future
}

Program <|- - pong
Program <|- - logo
Program <|- - breakout
Program <|- - asteroids
}

@enduml

PlantUML version 1.2018.12(Sun Oct 21 06:15:15 EDT 2018)
(EPL source distribution)
Java Runtime: Java(TM) SE Runtime Environment
JVM: Java HotSpot(TM) 64-Bit Server VM
Java Version: 1.8.0_51-b16
Operating System: Mac OS X
OS Version: 10.14.2
Default Encoding: UTF-8
Language: en
Country: US
--></g></svg>