G04 #@! TF.GenerationSoftware,KiCad,Pcbnew,5.0.1*
G04 #@! TF.CreationDate,2019-02-20T16:22:45-05:00*
G04 #@! TF.ProjectId,pongPCB,706F6E675043422E6B696361645F7063,rev?*
G04 #@! TF.SameCoordinates,Original*
G04 #@! TF.FileFunction,Legend,Top*
G04 #@! TF.FilePolarity,Positive*
%FSLAX46Y46*%
G04 Gerber Fmt 4.6, Leading zero omitted, Abs format (unit mm)*
G04 Created by KiCad (PCBNEW 5.0.1) date Wed 20 Feb 2019 04:22:45 PM EST*
%MOMM*%
%LPD*%
G01*
G04 APERTURE LIST*
%ADD10C,0.120000*%
%ADD11C,0.150000*%
G04 APERTURE END LIST*
D10*
G04 #@! TO.C,C1*
X160520000Y-116920000D02*
X164160000Y-116920000D01*
X160520000Y-119260000D02*
X164160000Y-119260000D01*
X160520000Y-116920000D02*
X160520000Y-117165000D01*
X160520000Y-119015000D02*
X160520000Y-119260000D01*
X164160000Y-116920000D02*
X164160000Y-117165000D01*
X164160000Y-119015000D02*
X164160000Y-119260000D01*
G04 #@! TO.C,C2*
X142270000Y-114825000D02*
X142270000Y-115070000D01*
X142270000Y-112730000D02*
X142270000Y-112975000D01*
X138630000Y-114825000D02*
X138630000Y-115070000D01*
X138630000Y-112730000D02*
X138630000Y-112975000D01*
X138630000Y-115070000D02*
X142270000Y-115070000D01*
X138630000Y-112730000D02*
X142270000Y-112730000D01*
G04 #@! TO.C,R1*
X137220000Y-133120000D02*
X141060000Y-133120000D01*
X137220000Y-131280000D02*
X141060000Y-131280000D01*
G04 #@! TO.C,R2*
X154920000Y-114720000D02*
X158760000Y-114720000D01*
X154920000Y-112880000D02*
X158760000Y-112880000D01*
G04 #@! TO.C,R3*
X149010000Y-132410000D02*
X152850000Y-132410000D01*
X149010000Y-134250000D02*
X152850000Y-134250000D01*
G04 #@! TO.C,R4*
X149010000Y-129170000D02*
X152850000Y-129170000D01*
X149010000Y-127330000D02*
X152850000Y-127330000D01*
G04 #@! TO.C,R5*
X149010000Y-115900000D02*
X152850000Y-115900000D01*
X149010000Y-117740000D02*
X152850000Y-117740000D01*
G04 #@! TO.C,R6*
X157120000Y-98180000D02*
X160960000Y-98180000D01*
X157120000Y-100020000D02*
X160960000Y-100020000D01*
G04 #@! TO.C,R7*
X149010000Y-122820000D02*
X152850000Y-122820000D01*
X149010000Y-120980000D02*
X152850000Y-120980000D01*
G04 #@! TO.C,R8*
X156920000Y-91580000D02*
X160760000Y-91580000D01*
X156920000Y-93420000D02*
X160760000Y-93420000D01*
G04 #@! TO.C,R9*
X160720000Y-126320000D02*
X160720000Y-130160000D01*
X158880000Y-126320000D02*
X158880000Y-130160000D01*
G04 #@! TO.C,RV1*
X159230000Y-143175000D02*
X159230000Y-140480000D01*
X165770000Y-143175000D02*
X165770000Y-140480000D01*
X159230000Y-140480000D02*
X165770000Y-140480000D01*
X161066000Y-144221000D02*
X163935000Y-144221000D01*
X161380000Y-144221000D02*
X161380000Y-140480000D01*
X163620000Y-144221000D02*
X163620000Y-140480000D01*
X161380000Y-144221000D02*
X163620000Y-144221000D01*
X161380000Y-140480000D02*
X163620000Y-140480000D01*
G04 #@! TO.C,RV2*
X135230000Y-143175000D02*
X135230000Y-140480000D01*
X141770000Y-143175000D02*
X141770000Y-140480000D01*
X135230000Y-140480000D02*
X141770000Y-140480000D01*
X137066000Y-144221000D02*
X139935000Y-144221000D01*
X137380000Y-144221000D02*
X137380000Y-140480000D01*
X139620000Y-144221000D02*
X139620000Y-140480000D01*
X137380000Y-144221000D02*
X139620000Y-144221000D01*
X137380000Y-140480000D02*
X139620000Y-140480000D01*
G04 #@! TO.C,RV3*
X149380000Y-140480000D02*
X151620000Y-140480000D01*
X149380000Y-144221000D02*
X151620000Y-144221000D01*
X151620000Y-144221000D02*
X151620000Y-140480000D01*
X149380000Y-144221000D02*
X149380000Y-140480000D01*
X149066000Y-144221000D02*
X151935000Y-144221000D01*
X147230000Y-140480000D02*
X153770000Y-140480000D01*
X153770000Y-143175000D02*
X153770000Y-140480000D01*
X147230000Y-143175000D02*
X147230000Y-140480000D01*
G04 #@! TO.C,RV4*
X171230000Y-143175000D02*
X171230000Y-140480000D01*
X177770000Y-143175000D02*
X177770000Y-140480000D01*
X171230000Y-140480000D02*
X177770000Y-140480000D01*
X173066000Y-144221000D02*
X175935000Y-144221000D01*
X173380000Y-144221000D02*
X173380000Y-140480000D01*
X175620000Y-144221000D02*
X175620000Y-140480000D01*
X173380000Y-144221000D02*
X175620000Y-144221000D01*
X173380000Y-140480000D02*
X175620000Y-140480000D01*
G04 #@! TO.C,RV5*
X133520000Y-62320000D02*
X131280000Y-62320000D01*
X133520000Y-58579000D02*
X131280000Y-58579000D01*
X131280000Y-58579000D02*
X131280000Y-62320000D01*
X133520000Y-58579000D02*
X133520000Y-62320000D01*
X133834000Y-58579000D02*
X130965000Y-58579000D01*
X135670000Y-62320000D02*
X129130000Y-62320000D01*
X129130000Y-59625000D02*
X129130000Y-62320000D01*
X135670000Y-59625000D02*
X135670000Y-62320000D01*
G04 #@! TO.C,U1*
X120310000Y-59570000D02*
G75*
G02X118310000Y-59570000I-1000000J0D01*
G01*
X118310000Y-59570000D02*
X116660000Y-59570000D01*
X116660000Y-59570000D02*
X116660000Y-77470000D01*
X116660000Y-77470000D02*
X121960000Y-77470000D01*
X121960000Y-77470000D02*
X121960000Y-59570000D01*
X121960000Y-59570000D02*
X120310000Y-59570000D01*
G04 #@! TO.C,U2*
X140500000Y-118030000D02*
G75*
G02X138500000Y-118030000I-1000000J0D01*
G01*
X138500000Y-118030000D02*
X136850000Y-118030000D01*
X136850000Y-118030000D02*
X136850000Y-128310000D01*
X136850000Y-128310000D02*
X142150000Y-128310000D01*
X142150000Y-128310000D02*
X142150000Y-118030000D01*
X142150000Y-118030000D02*
X140500000Y-118030000D01*
G04 #@! TO.C,U3*
X121460000Y-101970000D02*
X119810000Y-101970000D01*
X121460000Y-117330000D02*
X121460000Y-101970000D01*
X116160000Y-117330000D02*
X121460000Y-117330000D01*
X116160000Y-101970000D02*
X116160000Y-117330000D01*
X117810000Y-101970000D02*
X116160000Y-101970000D01*
X119810000Y-101970000D02*
G75*
G02X117810000Y-101970000I-1000000J0D01*
G01*
G04 #@! TO.C,U4*
X120010000Y-81870000D02*
G75*
G02X118010000Y-81870000I-1000000J0D01*
G01*
X118010000Y-81870000D02*
X116360000Y-81870000D01*
X116360000Y-81870000D02*
X116360000Y-97230000D01*
X116360000Y-97230000D02*
X121660000Y-97230000D01*
X121660000Y-97230000D02*
X121660000Y-81870000D01*
X121660000Y-81870000D02*
X120010000Y-81870000D01*
G04 #@! TO.C,U5*
X132210000Y-105570000D02*
G75*
G02X130210000Y-105570000I-1000000J0D01*
G01*
X130210000Y-105570000D02*
X128560000Y-105570000D01*
X128560000Y-105570000D02*
X128560000Y-115850000D01*
X128560000Y-115850000D02*
X133860000Y-115850000D01*
X133860000Y-115850000D02*
X133860000Y-105570000D01*
X133860000Y-105570000D02*
X132210000Y-105570000D01*
G04 #@! TO.C,U6*
X135960000Y-77370000D02*
X134310000Y-77370000D01*
X135960000Y-87650000D02*
X135960000Y-77370000D01*
X130660000Y-87650000D02*
X135960000Y-87650000D01*
X130660000Y-77370000D02*
X130660000Y-87650000D01*
X132310000Y-77370000D02*
X130660000Y-77370000D01*
X134310000Y-77370000D02*
G75*
G02X132310000Y-77370000I-1000000J0D01*
G01*
G04 #@! TO.C,D1*
X138720000Y-67270000D02*
X136880000Y-67270000D01*
X136880000Y-67270000D02*
X136880000Y-70550000D01*
X136880000Y-70550000D02*
X138720000Y-70550000D01*
X138720000Y-70550000D02*
X138720000Y-67270000D01*
X137800000Y-66090000D02*
X137800000Y-67270000D01*
X137800000Y-71730000D02*
X137800000Y-70550000D01*
X138720000Y-67846000D02*
X136880000Y-67846000D01*
X138720000Y-67966000D02*
X136880000Y-67966000D01*
X138720000Y-67726000D02*
X136880000Y-67726000D01*
G04 #@! TO.C,D2*
X131980000Y-70274000D02*
X133820000Y-70274000D01*
X131980000Y-70034000D02*
X133820000Y-70034000D01*
X131980000Y-70154000D02*
X133820000Y-70154000D01*
X132900000Y-66270000D02*
X132900000Y-67450000D01*
X132900000Y-71910000D02*
X132900000Y-70730000D01*
X131980000Y-67450000D02*
X131980000Y-70730000D01*
X133820000Y-67450000D02*
X131980000Y-67450000D01*
X133820000Y-70730000D02*
X133820000Y-67450000D01*
X131980000Y-70730000D02*
X133820000Y-70730000D01*
G04 #@! TO.C,CN7*
X106510000Y-106600000D02*
X111710000Y-106600000D01*
X106510000Y-60820000D02*
X106510000Y-106600000D01*
X111710000Y-58220000D02*
X111710000Y-106600000D01*
X106510000Y-60820000D02*
X109110000Y-60820000D01*
X109110000Y-60820000D02*
X109110000Y-58220000D01*
X109110000Y-58220000D02*
X111710000Y-58220000D01*
X106510000Y-59550000D02*
X106510000Y-58220000D01*
X106510000Y-58220000D02*
X107840000Y-58220000D01*
G04 #@! TO.C,CN10*
X167370000Y-57970000D02*
X168700000Y-57970000D01*
X167370000Y-59300000D02*
X167370000Y-57970000D01*
X169970000Y-57970000D02*
X172570000Y-57970000D01*
X169970000Y-60570000D02*
X169970000Y-57970000D01*
X167370000Y-60570000D02*
X169970000Y-60570000D01*
X172570000Y-57970000D02*
X172570000Y-106350000D01*
X167370000Y-60570000D02*
X167370000Y-106350000D01*
X167370000Y-106350000D02*
X172570000Y-106350000D01*
G04 #@! TO.C,J1*
X174470000Y-121110000D02*
X177130000Y-121110000D01*
X174470000Y-115970000D02*
X174470000Y-121110000D01*
X177130000Y-115970000D02*
X177130000Y-121110000D01*
X174470000Y-115970000D02*
X177130000Y-115970000D01*
X174470000Y-114700000D02*
X174470000Y-113370000D01*
X174470000Y-113370000D02*
X175800000Y-113370000D01*
G04 #@! TO.C,J2*
X174470000Y-126370000D02*
X175800000Y-126370000D01*
X174470000Y-127700000D02*
X174470000Y-126370000D01*
X174470000Y-128970000D02*
X177130000Y-128970000D01*
X177130000Y-128970000D02*
X177130000Y-134110000D01*
X174470000Y-128970000D02*
X174470000Y-134110000D01*
X174470000Y-134110000D02*
X177130000Y-134110000D01*
G04 #@! TO.C,J3*
X127750000Y-97580000D02*
X130410000Y-97580000D01*
X127750000Y-97520000D02*
X127750000Y-97580000D01*
X130410000Y-97520000D02*
X130410000Y-97580000D01*
X127750000Y-97520000D02*
X130410000Y-97520000D01*
X127750000Y-96250000D02*
X127750000Y-94920000D01*
X127750000Y-94920000D02*
X129080000Y-94920000D01*
G04 #@! TO.C,J6*
X135870000Y-95070000D02*
X137200000Y-95070000D01*
X135870000Y-96400000D02*
X135870000Y-95070000D01*
X135870000Y-97670000D02*
X138530000Y-97670000D01*
X138530000Y-97670000D02*
X138530000Y-97730000D01*
X135870000Y-97670000D02*
X135870000Y-97730000D01*
X135870000Y-97730000D02*
X138530000Y-97730000D01*
G04 #@! TO.C,J7*
X158570000Y-60930000D02*
X161230000Y-60930000D01*
X158570000Y-60870000D02*
X158570000Y-60930000D01*
X161230000Y-60870000D02*
X161230000Y-60930000D01*
X158570000Y-60870000D02*
X161230000Y-60870000D01*
X158570000Y-59600000D02*
X158570000Y-58270000D01*
X158570000Y-58270000D02*
X159900000Y-58270000D01*
G04 #@! TO.C,Joy1*
X98950000Y-137550000D02*
X98950000Y-138800000D01*
X100200000Y-137550000D02*
X98950000Y-137550000D01*
X113600000Y-143050000D02*
X106800000Y-143050000D01*
X113600000Y-140100000D02*
X113600000Y-143050000D01*
X114350000Y-140100000D02*
X113600000Y-140100000D01*
X106800000Y-143050000D02*
X101060000Y-143050000D01*
X100000000Y-140100000D02*
X100000000Y-141440000D01*
X99250000Y-140100000D02*
X100000000Y-140100000D01*
X114350000Y-137850000D02*
X112550000Y-137850000D01*
X114350000Y-138600000D02*
X114350000Y-137850000D01*
X112550000Y-138600000D02*
X114350000Y-138600000D01*
X112550000Y-137850000D02*
X112550000Y-138600000D01*
X101050000Y-137850000D02*
X99250000Y-137850000D01*
X101050000Y-138600000D02*
X101050000Y-137850000D01*
X99250000Y-138600000D02*
X101050000Y-138600000D01*
X99250000Y-137850000D02*
X99250000Y-138600000D01*
X111050000Y-137850000D02*
X102550000Y-137850000D01*
X111050000Y-138600000D02*
X111050000Y-137850000D01*
X102550000Y-138600000D02*
X111050000Y-138600000D01*
X102550000Y-137850000D02*
X102550000Y-138600000D01*
X114360000Y-137840000D02*
X99240000Y-137840000D01*
X114360000Y-143810000D02*
X114360000Y-137840000D01*
X99240000Y-143810000D02*
X114360000Y-143810000D01*
X99240000Y-137840000D02*
X99240000Y-143810000D01*
G04 #@! TO.C,Joy2*
X116240000Y-137840000D02*
X116240000Y-143810000D01*
X116240000Y-143810000D02*
X131360000Y-143810000D01*
X131360000Y-143810000D02*
X131360000Y-137840000D01*
X131360000Y-137840000D02*
X116240000Y-137840000D01*
X119550000Y-137850000D02*
X119550000Y-138600000D01*
X119550000Y-138600000D02*
X128050000Y-138600000D01*
X128050000Y-138600000D02*
X128050000Y-137850000D01*
X128050000Y-137850000D02*
X119550000Y-137850000D01*
X116250000Y-137850000D02*
X116250000Y-138600000D01*
X116250000Y-138600000D02*
X118050000Y-138600000D01*
X118050000Y-138600000D02*
X118050000Y-137850000D01*
X118050000Y-137850000D02*
X116250000Y-137850000D01*
X129550000Y-137850000D02*
X129550000Y-138600000D01*
X129550000Y-138600000D02*
X131350000Y-138600000D01*
X131350000Y-138600000D02*
X131350000Y-137850000D01*
X131350000Y-137850000D02*
X129550000Y-137850000D01*
X116250000Y-140100000D02*
X117000000Y-140100000D01*
X117000000Y-140100000D02*
X117000000Y-141440000D01*
X123800000Y-143050000D02*
X118060000Y-143050000D01*
X131350000Y-140100000D02*
X130600000Y-140100000D01*
X130600000Y-140100000D02*
X130600000Y-143050000D01*
X130600000Y-143050000D02*
X123800000Y-143050000D01*
X117200000Y-137550000D02*
X115950000Y-137550000D01*
X115950000Y-137550000D02*
X115950000Y-138800000D01*
G04 #@! TO.C,Rotary1*
X99240000Y-126840000D02*
X99240000Y-132810000D01*
X99240000Y-132810000D02*
X114360000Y-132810000D01*
X114360000Y-132810000D02*
X114360000Y-126840000D01*
X114360000Y-126840000D02*
X99240000Y-126840000D01*
X102550000Y-126850000D02*
X102550000Y-127600000D01*
X102550000Y-127600000D02*
X111050000Y-127600000D01*
X111050000Y-127600000D02*
X111050000Y-126850000D01*
X111050000Y-126850000D02*
X102550000Y-126850000D01*
X99250000Y-126850000D02*
X99250000Y-127600000D01*
X99250000Y-127600000D02*
X101050000Y-127600000D01*
X101050000Y-127600000D02*
X101050000Y-126850000D01*
X101050000Y-126850000D02*
X99250000Y-126850000D01*
X112550000Y-126850000D02*
X112550000Y-127600000D01*
X112550000Y-127600000D02*
X114350000Y-127600000D01*
X114350000Y-127600000D02*
X114350000Y-126850000D01*
X114350000Y-126850000D02*
X112550000Y-126850000D01*
X99250000Y-129100000D02*
X100000000Y-129100000D01*
X100000000Y-129100000D02*
X100000000Y-130440000D01*
X106800000Y-132050000D02*
X101060000Y-132050000D01*
X114350000Y-129100000D02*
X113600000Y-129100000D01*
X113600000Y-129100000D02*
X113600000Y-132050000D01*
X113600000Y-132050000D02*
X106800000Y-132050000D01*
X100200000Y-126550000D02*
X98950000Y-126550000D01*
X98950000Y-126550000D02*
X98950000Y-127800000D01*
G04 #@! TO.C,Rotary2*
X115950000Y-126550000D02*
X115950000Y-127800000D01*
X117200000Y-126550000D02*
X115950000Y-126550000D01*
X130600000Y-132050000D02*
X123800000Y-132050000D01*
X130600000Y-129100000D02*
X130600000Y-132050000D01*
X131350000Y-129100000D02*
X130600000Y-129100000D01*
X123800000Y-132050000D02*
X118060000Y-132050000D01*
X117000000Y-129100000D02*
X117000000Y-130440000D01*
X116250000Y-129100000D02*
X117000000Y-129100000D01*
X131350000Y-126850000D02*
X129550000Y-126850000D01*
X131350000Y-127600000D02*
X131350000Y-126850000D01*
X129550000Y-127600000D02*
X131350000Y-127600000D01*
X129550000Y-126850000D02*
X129550000Y-127600000D01*
X118050000Y-126850000D02*
X116250000Y-126850000D01*
X118050000Y-127600000D02*
X118050000Y-126850000D01*
X116250000Y-127600000D02*
X118050000Y-127600000D01*
X116250000Y-126850000D02*
X116250000Y-127600000D01*
X128050000Y-126850000D02*
X119550000Y-126850000D01*
X128050000Y-127600000D02*
X128050000Y-126850000D01*
X119550000Y-127600000D02*
X128050000Y-127600000D01*
X119550000Y-126850000D02*
X119550000Y-127600000D01*
X131360000Y-126840000D02*
X116240000Y-126840000D01*
X131360000Y-132810000D02*
X131360000Y-126840000D01*
X116240000Y-132810000D02*
X131360000Y-132810000D01*
X116240000Y-126840000D02*
X116240000Y-132810000D01*
G04 #@! TO.C,U8*
X149010000Y-82070000D02*
G75*
G02X147010000Y-82070000I-1000000J0D01*
G01*
X147010000Y-82070000D02*
X145360000Y-82070000D01*
X145360000Y-82070000D02*
X145360000Y-99970000D01*
X145360000Y-99970000D02*
X150660000Y-99970000D01*
X150660000Y-99970000D02*
X150660000Y-82070000D01*
X150660000Y-82070000D02*
X149010000Y-82070000D01*
G04 #@! TO.C,J4*
X108730000Y-111850000D02*
X106070000Y-111850000D01*
X108730000Y-119530000D02*
X108730000Y-111850000D01*
X106070000Y-119530000D02*
X106070000Y-111850000D01*
X108730000Y-119530000D02*
X106070000Y-119530000D01*
X108730000Y-120800000D02*
X108730000Y-122130000D01*
X108730000Y-122130000D02*
X107400000Y-122130000D01*
G04 #@! TO.C,U7*
X148710000Y-58470000D02*
G75*
G02X146710000Y-58470000I-1000000J0D01*
G01*
X146710000Y-58470000D02*
X145060000Y-58470000D01*
X145060000Y-58470000D02*
X145060000Y-76370000D01*
X145060000Y-76370000D02*
X150360000Y-76370000D01*
X150360000Y-76370000D02*
X150360000Y-58470000D01*
X150360000Y-58470000D02*
X148710000Y-58470000D01*
G04 #@! TO.C,X-J1*
X166440000Y-119890000D02*
X169100000Y-119890000D01*
X166440000Y-114750000D02*
X166440000Y-119890000D01*
X169100000Y-114750000D02*
X169100000Y-119890000D01*
X166440000Y-114750000D02*
X169100000Y-114750000D01*
X166440000Y-113480000D02*
X166440000Y-112150000D01*
X166440000Y-112150000D02*
X167770000Y-112150000D01*
G04 #@! TO.C,X-J2*
X168980000Y-119890000D02*
X171640000Y-119890000D01*
X168980000Y-114750000D02*
X168980000Y-119890000D01*
X171640000Y-114750000D02*
X171640000Y-119890000D01*
X168980000Y-114750000D02*
X171640000Y-114750000D01*
X168980000Y-113480000D02*
X168980000Y-112150000D01*
X168980000Y-112150000D02*
X170310000Y-112150000D01*
G04 #@! TO.C,Y-J1*
X166140000Y-124450000D02*
X167470000Y-124450000D01*
X166140000Y-125780000D02*
X166140000Y-124450000D01*
X166140000Y-127050000D02*
X168800000Y-127050000D01*
X168800000Y-127050000D02*
X168800000Y-132190000D01*
X166140000Y-127050000D02*
X166140000Y-132190000D01*
X166140000Y-132190000D02*
X168800000Y-132190000D01*
G04 #@! TO.C,Y-J2*
X168680000Y-124450000D02*
X170010000Y-124450000D01*
X168680000Y-125780000D02*
X168680000Y-124450000D01*
X168680000Y-127050000D02*
X171340000Y-127050000D01*
X171340000Y-127050000D02*
X171340000Y-132190000D01*
X168680000Y-127050000D02*
X168680000Y-132190000D01*
X168680000Y-132190000D02*
X171340000Y-132190000D01*
G04 #@! TO.C,C1*
D11*
X162173333Y-116147142D02*
X162125714Y-116194761D01*
X161982857Y-116242380D01*
X161887619Y-116242380D01*
X161744761Y-116194761D01*
X161649523Y-116099523D01*
X161601904Y-116004285D01*
X161554285Y-115813809D01*
X161554285Y-115670952D01*
X161601904Y-115480476D01*
X161649523Y-115385238D01*
X161744761Y-115290000D01*
X161887619Y-115242380D01*
X161982857Y-115242380D01*
X162125714Y-115290000D01*
X162173333Y-115337619D01*
X163125714Y-116242380D02*
X162554285Y-116242380D01*
X162840000Y-116242380D02*
X162840000Y-115242380D01*
X162744761Y-115385238D01*
X162649523Y-115480476D01*
X162554285Y-115528095D01*
G04 #@! TO.C,C2*
X140283333Y-111957142D02*
X140235714Y-112004761D01*
X140092857Y-112052380D01*
X139997619Y-112052380D01*
X139854761Y-112004761D01*
X139759523Y-111909523D01*
X139711904Y-111814285D01*
X139664285Y-111623809D01*
X139664285Y-111480952D01*
X139711904Y-111290476D01*
X139759523Y-111195238D01*
X139854761Y-111100000D01*
X139997619Y-111052380D01*
X140092857Y-111052380D01*
X140235714Y-111100000D01*
X140283333Y-111147619D01*
X140664285Y-111147619D02*
X140711904Y-111100000D01*
X140807142Y-111052380D01*
X141045238Y-111052380D01*
X141140476Y-111100000D01*
X141188095Y-111147619D01*
X141235714Y-111242857D01*
X141235714Y-111338095D01*
X141188095Y-111480952D01*
X140616666Y-112052380D01*
X141235714Y-112052380D01*
G04 #@! TO.C,R1*
X138973333Y-130732380D02*
X138640000Y-130256190D01*
X138401904Y-130732380D02*
X138401904Y-129732380D01*
X138782857Y-129732380D01*
X138878095Y-129780000D01*
X138925714Y-129827619D01*
X138973333Y-129922857D01*
X138973333Y-130065714D01*
X138925714Y-130160952D01*
X138878095Y-130208571D01*
X138782857Y-130256190D01*
X138401904Y-130256190D01*
X139925714Y-130732380D02*
X139354285Y-130732380D01*
X139640000Y-130732380D02*
X139640000Y-129732380D01*
X139544761Y-129875238D01*
X139449523Y-129970476D01*
X139354285Y-130018095D01*
G04 #@! TO.C,R2*
X156673333Y-112332380D02*
X156340000Y-111856190D01*
X156101904Y-112332380D02*
X156101904Y-111332380D01*
X156482857Y-111332380D01*
X156578095Y-111380000D01*
X156625714Y-111427619D01*
X156673333Y-111522857D01*
X156673333Y-111665714D01*
X156625714Y-111760952D01*
X156578095Y-111808571D01*
X156482857Y-111856190D01*
X156101904Y-111856190D01*
X157054285Y-111427619D02*
X157101904Y-111380000D01*
X157197142Y-111332380D01*
X157435238Y-111332380D01*
X157530476Y-111380000D01*
X157578095Y-111427619D01*
X157625714Y-111522857D01*
X157625714Y-111618095D01*
X157578095Y-111760952D01*
X157006666Y-112332380D01*
X157625714Y-112332380D01*
G04 #@! TO.C,R3*
X150763333Y-131862380D02*
X150430000Y-131386190D01*
X150191904Y-131862380D02*
X150191904Y-130862380D01*
X150572857Y-130862380D01*
X150668095Y-130910000D01*
X150715714Y-130957619D01*
X150763333Y-131052857D01*
X150763333Y-131195714D01*
X150715714Y-131290952D01*
X150668095Y-131338571D01*
X150572857Y-131386190D01*
X150191904Y-131386190D01*
X151096666Y-130862380D02*
X151715714Y-130862380D01*
X151382380Y-131243333D01*
X151525238Y-131243333D01*
X151620476Y-131290952D01*
X151668095Y-131338571D01*
X151715714Y-131433809D01*
X151715714Y-131671904D01*
X151668095Y-131767142D01*
X151620476Y-131814761D01*
X151525238Y-131862380D01*
X151239523Y-131862380D01*
X151144285Y-131814761D01*
X151096666Y-131767142D01*
G04 #@! TO.C,R4*
X150763333Y-126782380D02*
X150430000Y-126306190D01*
X150191904Y-126782380D02*
X150191904Y-125782380D01*
X150572857Y-125782380D01*
X150668095Y-125830000D01*
X150715714Y-125877619D01*
X150763333Y-125972857D01*
X150763333Y-126115714D01*
X150715714Y-126210952D01*
X150668095Y-126258571D01*
X150572857Y-126306190D01*
X150191904Y-126306190D01*
X151620476Y-126115714D02*
X151620476Y-126782380D01*
X151382380Y-125734761D02*
X151144285Y-126449047D01*
X151763333Y-126449047D01*
G04 #@! TO.C,R5*
X150763333Y-115352380D02*
X150430000Y-114876190D01*
X150191904Y-115352380D02*
X150191904Y-114352380D01*
X150572857Y-114352380D01*
X150668095Y-114400000D01*
X150715714Y-114447619D01*
X150763333Y-114542857D01*
X150763333Y-114685714D01*
X150715714Y-114780952D01*
X150668095Y-114828571D01*
X150572857Y-114876190D01*
X150191904Y-114876190D01*
X151668095Y-114352380D02*
X151191904Y-114352380D01*
X151144285Y-114828571D01*
X151191904Y-114780952D01*
X151287142Y-114733333D01*
X151525238Y-114733333D01*
X151620476Y-114780952D01*
X151668095Y-114828571D01*
X151715714Y-114923809D01*
X151715714Y-115161904D01*
X151668095Y-115257142D01*
X151620476Y-115304761D01*
X151525238Y-115352380D01*
X151287142Y-115352380D01*
X151191904Y-115304761D01*
X151144285Y-115257142D01*
G04 #@! TO.C,R6*
X158873333Y-97632380D02*
X158540000Y-97156190D01*
X158301904Y-97632380D02*
X158301904Y-96632380D01*
X158682857Y-96632380D01*
X158778095Y-96680000D01*
X158825714Y-96727619D01*
X158873333Y-96822857D01*
X158873333Y-96965714D01*
X158825714Y-97060952D01*
X158778095Y-97108571D01*
X158682857Y-97156190D01*
X158301904Y-97156190D01*
X159730476Y-96632380D02*
X159540000Y-96632380D01*
X159444761Y-96680000D01*
X159397142Y-96727619D01*
X159301904Y-96870476D01*
X159254285Y-97060952D01*
X159254285Y-97441904D01*
X159301904Y-97537142D01*
X159349523Y-97584761D01*
X159444761Y-97632380D01*
X159635238Y-97632380D01*
X159730476Y-97584761D01*
X159778095Y-97537142D01*
X159825714Y-97441904D01*
X159825714Y-97203809D01*
X159778095Y-97108571D01*
X159730476Y-97060952D01*
X159635238Y-97013333D01*
X159444761Y-97013333D01*
X159349523Y-97060952D01*
X159301904Y-97108571D01*
X159254285Y-97203809D01*
G04 #@! TO.C,R7*
X150763333Y-120432380D02*
X150430000Y-119956190D01*
X150191904Y-120432380D02*
X150191904Y-119432380D01*
X150572857Y-119432380D01*
X150668095Y-119480000D01*
X150715714Y-119527619D01*
X150763333Y-119622857D01*
X150763333Y-119765714D01*
X150715714Y-119860952D01*
X150668095Y-119908571D01*
X150572857Y-119956190D01*
X150191904Y-119956190D01*
X151096666Y-119432380D02*
X151763333Y-119432380D01*
X151334761Y-120432380D01*
G04 #@! TO.C,R8*
X158673333Y-91032380D02*
X158340000Y-90556190D01*
X158101904Y-91032380D02*
X158101904Y-90032380D01*
X158482857Y-90032380D01*
X158578095Y-90080000D01*
X158625714Y-90127619D01*
X158673333Y-90222857D01*
X158673333Y-90365714D01*
X158625714Y-90460952D01*
X158578095Y-90508571D01*
X158482857Y-90556190D01*
X158101904Y-90556190D01*
X159244761Y-90460952D02*
X159149523Y-90413333D01*
X159101904Y-90365714D01*
X159054285Y-90270476D01*
X159054285Y-90222857D01*
X159101904Y-90127619D01*
X159149523Y-90080000D01*
X159244761Y-90032380D01*
X159435238Y-90032380D01*
X159530476Y-90080000D01*
X159578095Y-90127619D01*
X159625714Y-90222857D01*
X159625714Y-90270476D01*
X159578095Y-90365714D01*
X159530476Y-90413333D01*
X159435238Y-90460952D01*
X159244761Y-90460952D01*
X159149523Y-90508571D01*
X159101904Y-90556190D01*
X159054285Y-90651428D01*
X159054285Y-90841904D01*
X159101904Y-90937142D01*
X159149523Y-90984761D01*
X159244761Y-91032380D01*
X159435238Y-91032380D01*
X159530476Y-90984761D01*
X159578095Y-90937142D01*
X159625714Y-90841904D01*
X159625714Y-90651428D01*
X159578095Y-90556190D01*
X159530476Y-90508571D01*
X159435238Y-90460952D01*
G04 #@! TO.C,R9*
X162172380Y-128406666D02*
X161696190Y-128740000D01*
X162172380Y-128978095D02*
X161172380Y-128978095D01*
X161172380Y-128597142D01*
X161220000Y-128501904D01*
X161267619Y-128454285D01*
X161362857Y-128406666D01*
X161505714Y-128406666D01*
X161600952Y-128454285D01*
X161648571Y-128501904D01*
X161696190Y-128597142D01*
X161696190Y-128978095D01*
X162172380Y-127930476D02*
X162172380Y-127740000D01*
X162124761Y-127644761D01*
X162077142Y-127597142D01*
X161934285Y-127501904D01*
X161743809Y-127454285D01*
X161362857Y-127454285D01*
X161267619Y-127501904D01*
X161220000Y-127549523D01*
X161172380Y-127644761D01*
X161172380Y-127835238D01*
X161220000Y-127930476D01*
X161267619Y-127978095D01*
X161362857Y-128025714D01*
X161600952Y-128025714D01*
X161696190Y-127978095D01*
X161743809Y-127930476D01*
X161791428Y-127835238D01*
X161791428Y-127644761D01*
X161743809Y-127549523D01*
X161696190Y-127501904D01*
X161600952Y-127454285D01*
G04 #@! TO.C,RV1*
X158392380Y-144695238D02*
X157916190Y-145028571D01*
X158392380Y-145266666D02*
X157392380Y-145266666D01*
X157392380Y-144885714D01*
X157440000Y-144790476D01*
X157487619Y-144742857D01*
X157582857Y-144695238D01*
X157725714Y-144695238D01*
X157820952Y-144742857D01*
X157868571Y-144790476D01*
X157916190Y-144885714D01*
X157916190Y-145266666D01*
X157392380Y-144409523D02*
X158392380Y-144076190D01*
X157392380Y-143742857D01*
X158392380Y-142885714D02*
X158392380Y-143457142D01*
X158392380Y-143171428D02*
X157392380Y-143171428D01*
X157535238Y-143266666D01*
X157630476Y-143361904D01*
X157678095Y-143457142D01*
G04 #@! TO.C,RV2*
X134392380Y-144695238D02*
X133916190Y-145028571D01*
X134392380Y-145266666D02*
X133392380Y-145266666D01*
X133392380Y-144885714D01*
X133440000Y-144790476D01*
X133487619Y-144742857D01*
X133582857Y-144695238D01*
X133725714Y-144695238D01*
X133820952Y-144742857D01*
X133868571Y-144790476D01*
X133916190Y-144885714D01*
X133916190Y-145266666D01*
X133392380Y-144409523D02*
X134392380Y-144076190D01*
X133392380Y-143742857D01*
X133487619Y-143457142D02*
X133440000Y-143409523D01*
X133392380Y-143314285D01*
X133392380Y-143076190D01*
X133440000Y-142980952D01*
X133487619Y-142933333D01*
X133582857Y-142885714D01*
X133678095Y-142885714D01*
X133820952Y-142933333D01*
X134392380Y-143504761D01*
X134392380Y-142885714D01*
G04 #@! TO.C,RV3*
X146392380Y-144695238D02*
X145916190Y-145028571D01*
X146392380Y-145266666D02*
X145392380Y-145266666D01*
X145392380Y-144885714D01*
X145440000Y-144790476D01*
X145487619Y-144742857D01*
X145582857Y-144695238D01*
X145725714Y-144695238D01*
X145820952Y-144742857D01*
X145868571Y-144790476D01*
X145916190Y-144885714D01*
X145916190Y-145266666D01*
X145392380Y-144409523D02*
X146392380Y-144076190D01*
X145392380Y-143742857D01*
X145392380Y-143504761D02*
X145392380Y-142885714D01*
X145773333Y-143219047D01*
X145773333Y-143076190D01*
X145820952Y-142980952D01*
X145868571Y-142933333D01*
X145963809Y-142885714D01*
X146201904Y-142885714D01*
X146297142Y-142933333D01*
X146344761Y-142980952D01*
X146392380Y-143076190D01*
X146392380Y-143361904D01*
X146344761Y-143457142D01*
X146297142Y-143504761D01*
G04 #@! TO.C,RV4*
X170392380Y-144695238D02*
X169916190Y-145028571D01*
X170392380Y-145266666D02*
X169392380Y-145266666D01*
X169392380Y-144885714D01*
X169440000Y-144790476D01*
X169487619Y-144742857D01*
X169582857Y-144695238D01*
X169725714Y-144695238D01*
X169820952Y-144742857D01*
X169868571Y-144790476D01*
X169916190Y-144885714D01*
X169916190Y-145266666D01*
X169392380Y-144409523D02*
X170392380Y-144076190D01*
X169392380Y-143742857D01*
X169725714Y-142980952D02*
X170392380Y-142980952D01*
X169344761Y-143219047D02*
X170059047Y-143457142D01*
X170059047Y-142838095D01*
G04 #@! TO.C,RV5*
X137412380Y-59295238D02*
X136936190Y-59628571D01*
X137412380Y-59866666D02*
X136412380Y-59866666D01*
X136412380Y-59485714D01*
X136460000Y-59390476D01*
X136507619Y-59342857D01*
X136602857Y-59295238D01*
X136745714Y-59295238D01*
X136840952Y-59342857D01*
X136888571Y-59390476D01*
X136936190Y-59485714D01*
X136936190Y-59866666D01*
X136412380Y-59009523D02*
X137412380Y-58676190D01*
X136412380Y-58342857D01*
X136412380Y-57533333D02*
X136412380Y-58009523D01*
X136888571Y-58057142D01*
X136840952Y-58009523D01*
X136793333Y-57914285D01*
X136793333Y-57676190D01*
X136840952Y-57580952D01*
X136888571Y-57533333D01*
X136983809Y-57485714D01*
X137221904Y-57485714D01*
X137317142Y-57533333D01*
X137364761Y-57580952D01*
X137412380Y-57676190D01*
X137412380Y-57914285D01*
X137364761Y-58009523D01*
X137317142Y-58057142D01*
G04 #@! TO.C,U1*
X118548095Y-58022380D02*
X118548095Y-58831904D01*
X118595714Y-58927142D01*
X118643333Y-58974761D01*
X118738571Y-59022380D01*
X118929047Y-59022380D01*
X119024285Y-58974761D01*
X119071904Y-58927142D01*
X119119523Y-58831904D01*
X119119523Y-58022380D01*
X120119523Y-59022380D02*
X119548095Y-59022380D01*
X119833809Y-59022380D02*
X119833809Y-58022380D01*
X119738571Y-58165238D01*
X119643333Y-58260476D01*
X119548095Y-58308095D01*
G04 #@! TO.C,U2*
X138738095Y-116482380D02*
X138738095Y-117291904D01*
X138785714Y-117387142D01*
X138833333Y-117434761D01*
X138928571Y-117482380D01*
X139119047Y-117482380D01*
X139214285Y-117434761D01*
X139261904Y-117387142D01*
X139309523Y-117291904D01*
X139309523Y-116482380D01*
X139738095Y-116577619D02*
X139785714Y-116530000D01*
X139880952Y-116482380D01*
X140119047Y-116482380D01*
X140214285Y-116530000D01*
X140261904Y-116577619D01*
X140309523Y-116672857D01*
X140309523Y-116768095D01*
X140261904Y-116910952D01*
X139690476Y-117482380D01*
X140309523Y-117482380D01*
G04 #@! TO.C,U3*
X118048095Y-100422380D02*
X118048095Y-101231904D01*
X118095714Y-101327142D01*
X118143333Y-101374761D01*
X118238571Y-101422380D01*
X118429047Y-101422380D01*
X118524285Y-101374761D01*
X118571904Y-101327142D01*
X118619523Y-101231904D01*
X118619523Y-100422380D01*
X119000476Y-100422380D02*
X119619523Y-100422380D01*
X119286190Y-100803333D01*
X119429047Y-100803333D01*
X119524285Y-100850952D01*
X119571904Y-100898571D01*
X119619523Y-100993809D01*
X119619523Y-101231904D01*
X119571904Y-101327142D01*
X119524285Y-101374761D01*
X119429047Y-101422380D01*
X119143333Y-101422380D01*
X119048095Y-101374761D01*
X119000476Y-101327142D01*
G04 #@! TO.C,U4*
X118248095Y-80322380D02*
X118248095Y-81131904D01*
X118295714Y-81227142D01*
X118343333Y-81274761D01*
X118438571Y-81322380D01*
X118629047Y-81322380D01*
X118724285Y-81274761D01*
X118771904Y-81227142D01*
X118819523Y-81131904D01*
X118819523Y-80322380D01*
X119724285Y-80655714D02*
X119724285Y-81322380D01*
X119486190Y-80274761D02*
X119248095Y-80989047D01*
X119867142Y-80989047D01*
G04 #@! TO.C,U5*
X130448095Y-104022380D02*
X130448095Y-104831904D01*
X130495714Y-104927142D01*
X130543333Y-104974761D01*
X130638571Y-105022380D01*
X130829047Y-105022380D01*
X130924285Y-104974761D01*
X130971904Y-104927142D01*
X131019523Y-104831904D01*
X131019523Y-104022380D01*
X131971904Y-104022380D02*
X131495714Y-104022380D01*
X131448095Y-104498571D01*
X131495714Y-104450952D01*
X131590952Y-104403333D01*
X131829047Y-104403333D01*
X131924285Y-104450952D01*
X131971904Y-104498571D01*
X132019523Y-104593809D01*
X132019523Y-104831904D01*
X131971904Y-104927142D01*
X131924285Y-104974761D01*
X131829047Y-105022380D01*
X131590952Y-105022380D01*
X131495714Y-104974761D01*
X131448095Y-104927142D01*
G04 #@! TO.C,U6*
X132548095Y-75822380D02*
X132548095Y-76631904D01*
X132595714Y-76727142D01*
X132643333Y-76774761D01*
X132738571Y-76822380D01*
X132929047Y-76822380D01*
X133024285Y-76774761D01*
X133071904Y-76727142D01*
X133119523Y-76631904D01*
X133119523Y-75822380D01*
X134024285Y-75822380D02*
X133833809Y-75822380D01*
X133738571Y-75870000D01*
X133690952Y-75917619D01*
X133595714Y-76060476D01*
X133548095Y-76250952D01*
X133548095Y-76631904D01*
X133595714Y-76727142D01*
X133643333Y-76774761D01*
X133738571Y-76822380D01*
X133929047Y-76822380D01*
X134024285Y-76774761D01*
X134071904Y-76727142D01*
X134119523Y-76631904D01*
X134119523Y-76393809D01*
X134071904Y-76298571D01*
X134024285Y-76250952D01*
X133929047Y-76203333D01*
X133738571Y-76203333D01*
X133643333Y-76250952D01*
X133595714Y-76298571D01*
X133548095Y-76393809D01*
G04 #@! TO.C,D1*
X140172380Y-69648095D02*
X139172380Y-69648095D01*
X139172380Y-69410000D01*
X139220000Y-69267142D01*
X139315238Y-69171904D01*
X139410476Y-69124285D01*
X139600952Y-69076666D01*
X139743809Y-69076666D01*
X139934285Y-69124285D01*
X140029523Y-69171904D01*
X140124761Y-69267142D01*
X140172380Y-69410000D01*
X140172380Y-69648095D01*
X140172380Y-68124285D02*
X140172380Y-68695714D01*
X140172380Y-68410000D02*
X139172380Y-68410000D01*
X139315238Y-68505238D01*
X139410476Y-68600476D01*
X139458095Y-68695714D01*
X140002380Y-65361904D02*
X139002380Y-65361904D01*
X140002380Y-64790476D02*
X139430952Y-65219047D01*
X139002380Y-64790476D02*
X139573809Y-65361904D01*
G04 #@! TO.C,D2*
X131432380Y-69828095D02*
X130432380Y-69828095D01*
X130432380Y-69590000D01*
X130480000Y-69447142D01*
X130575238Y-69351904D01*
X130670476Y-69304285D01*
X130860952Y-69256666D01*
X131003809Y-69256666D01*
X131194285Y-69304285D01*
X131289523Y-69351904D01*
X131384761Y-69447142D01*
X131432380Y-69590000D01*
X131432380Y-69828095D01*
X130527619Y-68875714D02*
X130480000Y-68828095D01*
X130432380Y-68732857D01*
X130432380Y-68494761D01*
X130480000Y-68399523D01*
X130527619Y-68351904D01*
X130622857Y-68304285D01*
X130718095Y-68304285D01*
X130860952Y-68351904D01*
X131432380Y-68923333D01*
X131432380Y-68304285D01*
X131602380Y-73161904D02*
X130602380Y-73161904D01*
X131602380Y-72590476D02*
X131030952Y-73019047D01*
X130602380Y-72590476D02*
X131173809Y-73161904D01*
G04 #@! TO.C,CN7*
X108419523Y-57577142D02*
X108371904Y-57624761D01*
X108229047Y-57672380D01*
X108133809Y-57672380D01*
X107990952Y-57624761D01*
X107895714Y-57529523D01*
X107848095Y-57434285D01*
X107800476Y-57243809D01*
X107800476Y-57100952D01*
X107848095Y-56910476D01*
X107895714Y-56815238D01*
X107990952Y-56720000D01*
X108133809Y-56672380D01*
X108229047Y-56672380D01*
X108371904Y-56720000D01*
X108419523Y-56767619D01*
X108848095Y-57672380D02*
X108848095Y-56672380D01*
X109419523Y-57672380D01*
X109419523Y-56672380D01*
X109800476Y-56672380D02*
X110467142Y-56672380D01*
X110038571Y-57672380D01*
G04 #@! TO.C,CN10*
X168803333Y-57327142D02*
X168755714Y-57374761D01*
X168612857Y-57422380D01*
X168517619Y-57422380D01*
X168374761Y-57374761D01*
X168279523Y-57279523D01*
X168231904Y-57184285D01*
X168184285Y-56993809D01*
X168184285Y-56850952D01*
X168231904Y-56660476D01*
X168279523Y-56565238D01*
X168374761Y-56470000D01*
X168517619Y-56422380D01*
X168612857Y-56422380D01*
X168755714Y-56470000D01*
X168803333Y-56517619D01*
X169231904Y-57422380D02*
X169231904Y-56422380D01*
X169803333Y-57422380D01*
X169803333Y-56422380D01*
X170803333Y-57422380D02*
X170231904Y-57422380D01*
X170517619Y-57422380D02*
X170517619Y-56422380D01*
X170422380Y-56565238D01*
X170327142Y-56660476D01*
X170231904Y-56708095D01*
X171422380Y-56422380D02*
X171517619Y-56422380D01*
X171612857Y-56470000D01*
X171660476Y-56517619D01*
X171708095Y-56612857D01*
X171755714Y-56803333D01*
X171755714Y-57041428D01*
X171708095Y-57231904D01*
X171660476Y-57327142D01*
X171612857Y-57374761D01*
X171517619Y-57422380D01*
X171422380Y-57422380D01*
X171327142Y-57374761D01*
X171279523Y-57327142D01*
X171231904Y-57231904D01*
X171184285Y-57041428D01*
X171184285Y-56803333D01*
X171231904Y-56612857D01*
X171279523Y-56517619D01*
X171327142Y-56470000D01*
X171422380Y-56422380D01*
G04 #@! TO.C,J1*
X175466666Y-111822380D02*
X175466666Y-112536666D01*
X175419047Y-112679523D01*
X175323809Y-112774761D01*
X175180952Y-112822380D01*
X175085714Y-112822380D01*
X176466666Y-112822380D02*
X175895238Y-112822380D01*
X176180952Y-112822380D02*
X176180952Y-111822380D01*
X176085714Y-111965238D01*
X175990476Y-112060476D01*
X175895238Y-112108095D01*
G04 #@! TO.C,J2*
X175466666Y-124822380D02*
X175466666Y-125536666D01*
X175419047Y-125679523D01*
X175323809Y-125774761D01*
X175180952Y-125822380D01*
X175085714Y-125822380D01*
X175895238Y-124917619D02*
X175942857Y-124870000D01*
X176038095Y-124822380D01*
X176276190Y-124822380D01*
X176371428Y-124870000D01*
X176419047Y-124917619D01*
X176466666Y-125012857D01*
X176466666Y-125108095D01*
X176419047Y-125250952D01*
X175847619Y-125822380D01*
X176466666Y-125822380D01*
G04 #@! TO.C,J3*
X128746666Y-93372380D02*
X128746666Y-94086666D01*
X128699047Y-94229523D01*
X128603809Y-94324761D01*
X128460952Y-94372380D01*
X128365714Y-94372380D01*
X129127619Y-93372380D02*
X129746666Y-93372380D01*
X129413333Y-93753333D01*
X129556190Y-93753333D01*
X129651428Y-93800952D01*
X129699047Y-93848571D01*
X129746666Y-93943809D01*
X129746666Y-94181904D01*
X129699047Y-94277142D01*
X129651428Y-94324761D01*
X129556190Y-94372380D01*
X129270476Y-94372380D01*
X129175238Y-94324761D01*
X129127619Y-94277142D01*
G04 #@! TO.C,J6*
X136866666Y-93522380D02*
X136866666Y-94236666D01*
X136819047Y-94379523D01*
X136723809Y-94474761D01*
X136580952Y-94522380D01*
X136485714Y-94522380D01*
X137771428Y-93522380D02*
X137580952Y-93522380D01*
X137485714Y-93570000D01*
X137438095Y-93617619D01*
X137342857Y-93760476D01*
X137295238Y-93950952D01*
X137295238Y-94331904D01*
X137342857Y-94427142D01*
X137390476Y-94474761D01*
X137485714Y-94522380D01*
X137676190Y-94522380D01*
X137771428Y-94474761D01*
X137819047Y-94427142D01*
X137866666Y-94331904D01*
X137866666Y-94093809D01*
X137819047Y-93998571D01*
X137771428Y-93950952D01*
X137676190Y-93903333D01*
X137485714Y-93903333D01*
X137390476Y-93950952D01*
X137342857Y-93998571D01*
X137295238Y-94093809D01*
G04 #@! TO.C,J7*
X159566666Y-56722380D02*
X159566666Y-57436666D01*
X159519047Y-57579523D01*
X159423809Y-57674761D01*
X159280952Y-57722380D01*
X159185714Y-57722380D01*
X159947619Y-56722380D02*
X160614285Y-56722380D01*
X160185714Y-57722380D01*
G04 #@! TO.C,Joy1*
X105633333Y-136202380D02*
X105633333Y-136916666D01*
X105585714Y-137059523D01*
X105490476Y-137154761D01*
X105347619Y-137202380D01*
X105252380Y-137202380D01*
X106252380Y-137202380D02*
X106157142Y-137154761D01*
X106109523Y-137107142D01*
X106061904Y-137011904D01*
X106061904Y-136726190D01*
X106109523Y-136630952D01*
X106157142Y-136583333D01*
X106252380Y-136535714D01*
X106395238Y-136535714D01*
X106490476Y-136583333D01*
X106538095Y-136630952D01*
X106585714Y-136726190D01*
X106585714Y-137011904D01*
X106538095Y-137107142D01*
X106490476Y-137154761D01*
X106395238Y-137202380D01*
X106252380Y-137202380D01*
X106919047Y-136535714D02*
X107157142Y-137202380D01*
X107395238Y-136535714D02*
X107157142Y-137202380D01*
X107061904Y-137440476D01*
X107014285Y-137488095D01*
X106919047Y-137535714D01*
X108300000Y-137202380D02*
X107728571Y-137202380D01*
X108014285Y-137202380D02*
X108014285Y-136202380D01*
X107919047Y-136345238D01*
X107823809Y-136440476D01*
X107728571Y-136488095D01*
G04 #@! TO.C,Joy2*
X122633333Y-136202380D02*
X122633333Y-136916666D01*
X122585714Y-137059523D01*
X122490476Y-137154761D01*
X122347619Y-137202380D01*
X122252380Y-137202380D01*
X123252380Y-137202380D02*
X123157142Y-137154761D01*
X123109523Y-137107142D01*
X123061904Y-137011904D01*
X123061904Y-136726190D01*
X123109523Y-136630952D01*
X123157142Y-136583333D01*
X123252380Y-136535714D01*
X123395238Y-136535714D01*
X123490476Y-136583333D01*
X123538095Y-136630952D01*
X123585714Y-136726190D01*
X123585714Y-137011904D01*
X123538095Y-137107142D01*
X123490476Y-137154761D01*
X123395238Y-137202380D01*
X123252380Y-137202380D01*
X123919047Y-136535714D02*
X124157142Y-137202380D01*
X124395238Y-136535714D02*
X124157142Y-137202380D01*
X124061904Y-137440476D01*
X124014285Y-137488095D01*
X123919047Y-137535714D01*
X124728571Y-136297619D02*
X124776190Y-136250000D01*
X124871428Y-136202380D01*
X125109523Y-136202380D01*
X125204761Y-136250000D01*
X125252380Y-136297619D01*
X125300000Y-136392857D01*
X125300000Y-136488095D01*
X125252380Y-136630952D01*
X124680952Y-137202380D01*
X125300000Y-137202380D01*
G04 #@! TO.C,Rotary1*
X104752380Y-126202380D02*
X104419047Y-125726190D01*
X104180952Y-126202380D02*
X104180952Y-125202380D01*
X104561904Y-125202380D01*
X104657142Y-125250000D01*
X104704761Y-125297619D01*
X104752380Y-125392857D01*
X104752380Y-125535714D01*
X104704761Y-125630952D01*
X104657142Y-125678571D01*
X104561904Y-125726190D01*
X104180952Y-125726190D01*
X105323809Y-126202380D02*
X105228571Y-126154761D01*
X105180952Y-126107142D01*
X105133333Y-126011904D01*
X105133333Y-125726190D01*
X105180952Y-125630952D01*
X105228571Y-125583333D01*
X105323809Y-125535714D01*
X105466666Y-125535714D01*
X105561904Y-125583333D01*
X105609523Y-125630952D01*
X105657142Y-125726190D01*
X105657142Y-126011904D01*
X105609523Y-126107142D01*
X105561904Y-126154761D01*
X105466666Y-126202380D01*
X105323809Y-126202380D01*
X105942857Y-125535714D02*
X106323809Y-125535714D01*
X106085714Y-125202380D02*
X106085714Y-126059523D01*
X106133333Y-126154761D01*
X106228571Y-126202380D01*
X106323809Y-126202380D01*
X107085714Y-126202380D02*
X107085714Y-125678571D01*
X107038095Y-125583333D01*
X106942857Y-125535714D01*
X106752380Y-125535714D01*
X106657142Y-125583333D01*
X107085714Y-126154761D02*
X106990476Y-126202380D01*
X106752380Y-126202380D01*
X106657142Y-126154761D01*
X106609523Y-126059523D01*
X106609523Y-125964285D01*
X106657142Y-125869047D01*
X106752380Y-125821428D01*
X106990476Y-125821428D01*
X107085714Y-125773809D01*
X107561904Y-126202380D02*
X107561904Y-125535714D01*
X107561904Y-125726190D02*
X107609523Y-125630952D01*
X107657142Y-125583333D01*
X107752380Y-125535714D01*
X107847619Y-125535714D01*
X108085714Y-125535714D02*
X108323809Y-126202380D01*
X108561904Y-125535714D02*
X108323809Y-126202380D01*
X108228571Y-126440476D01*
X108180952Y-126488095D01*
X108085714Y-126535714D01*
X109466666Y-126202380D02*
X108895238Y-126202380D01*
X109180952Y-126202380D02*
X109180952Y-125202380D01*
X109085714Y-125345238D01*
X108990476Y-125440476D01*
X108895238Y-125488095D01*
G04 #@! TO.C,Rotary2*
X121752380Y-126202380D02*
X121419047Y-125726190D01*
X121180952Y-126202380D02*
X121180952Y-125202380D01*
X121561904Y-125202380D01*
X121657142Y-125250000D01*
X121704761Y-125297619D01*
X121752380Y-125392857D01*
X121752380Y-125535714D01*
X121704761Y-125630952D01*
X121657142Y-125678571D01*
X121561904Y-125726190D01*
X121180952Y-125726190D01*
X122323809Y-126202380D02*
X122228571Y-126154761D01*
X122180952Y-126107142D01*
X122133333Y-126011904D01*
X122133333Y-125726190D01*
X122180952Y-125630952D01*
X122228571Y-125583333D01*
X122323809Y-125535714D01*
X122466666Y-125535714D01*
X122561904Y-125583333D01*
X122609523Y-125630952D01*
X122657142Y-125726190D01*
X122657142Y-126011904D01*
X122609523Y-126107142D01*
X122561904Y-126154761D01*
X122466666Y-126202380D01*
X122323809Y-126202380D01*
X122942857Y-125535714D02*
X123323809Y-125535714D01*
X123085714Y-125202380D02*
X123085714Y-126059523D01*
X123133333Y-126154761D01*
X123228571Y-126202380D01*
X123323809Y-126202380D01*
X124085714Y-126202380D02*
X124085714Y-125678571D01*
X124038095Y-125583333D01*
X123942857Y-125535714D01*
X123752380Y-125535714D01*
X123657142Y-125583333D01*
X124085714Y-126154761D02*
X123990476Y-126202380D01*
X123752380Y-126202380D01*
X123657142Y-126154761D01*
X123609523Y-126059523D01*
X123609523Y-125964285D01*
X123657142Y-125869047D01*
X123752380Y-125821428D01*
X123990476Y-125821428D01*
X124085714Y-125773809D01*
X124561904Y-126202380D02*
X124561904Y-125535714D01*
X124561904Y-125726190D02*
X124609523Y-125630952D01*
X124657142Y-125583333D01*
X124752380Y-125535714D01*
X124847619Y-125535714D01*
X125085714Y-125535714D02*
X125323809Y-126202380D01*
X125561904Y-125535714D02*
X125323809Y-126202380D01*
X125228571Y-126440476D01*
X125180952Y-126488095D01*
X125085714Y-126535714D01*
X125895238Y-125297619D02*
X125942857Y-125250000D01*
X126038095Y-125202380D01*
X126276190Y-125202380D01*
X126371428Y-125250000D01*
X126419047Y-125297619D01*
X126466666Y-125392857D01*
X126466666Y-125488095D01*
X126419047Y-125630952D01*
X125847619Y-126202380D01*
X126466666Y-126202380D01*
G04 #@! TO.C,U8*
X147248095Y-80522380D02*
X147248095Y-81331904D01*
X147295714Y-81427142D01*
X147343333Y-81474761D01*
X147438571Y-81522380D01*
X147629047Y-81522380D01*
X147724285Y-81474761D01*
X147771904Y-81427142D01*
X147819523Y-81331904D01*
X147819523Y-80522380D01*
X148438571Y-80950952D02*
X148343333Y-80903333D01*
X148295714Y-80855714D01*
X148248095Y-80760476D01*
X148248095Y-80712857D01*
X148295714Y-80617619D01*
X148343333Y-80570000D01*
X148438571Y-80522380D01*
X148629047Y-80522380D01*
X148724285Y-80570000D01*
X148771904Y-80617619D01*
X148819523Y-80712857D01*
X148819523Y-80760476D01*
X148771904Y-80855714D01*
X148724285Y-80903333D01*
X148629047Y-80950952D01*
X148438571Y-80950952D01*
X148343333Y-80998571D01*
X148295714Y-81046190D01*
X148248095Y-81141428D01*
X148248095Y-81331904D01*
X148295714Y-81427142D01*
X148343333Y-81474761D01*
X148438571Y-81522380D01*
X148629047Y-81522380D01*
X148724285Y-81474761D01*
X148771904Y-81427142D01*
X148819523Y-81331904D01*
X148819523Y-81141428D01*
X148771904Y-81046190D01*
X148724285Y-80998571D01*
X148629047Y-80950952D01*
G04 #@! TO.C,J4*
X107066666Y-122582380D02*
X107066666Y-123296666D01*
X107019047Y-123439523D01*
X106923809Y-123534761D01*
X106780952Y-123582380D01*
X106685714Y-123582380D01*
X107971428Y-122915714D02*
X107971428Y-123582380D01*
X107733333Y-122534761D02*
X107495238Y-123249047D01*
X108114285Y-123249047D01*
G04 #@! TO.C,U7*
X146948095Y-56922380D02*
X146948095Y-57731904D01*
X146995714Y-57827142D01*
X147043333Y-57874761D01*
X147138571Y-57922380D01*
X147329047Y-57922380D01*
X147424285Y-57874761D01*
X147471904Y-57827142D01*
X147519523Y-57731904D01*
X147519523Y-56922380D01*
X147900476Y-56922380D02*
X148567142Y-56922380D01*
X148138571Y-57922380D01*
G04 #@! TO.C,X-J1*
X165960476Y-110602380D02*
X166627142Y-111602380D01*
X166627142Y-110602380D02*
X165960476Y-111602380D01*
X167008095Y-111221428D02*
X167770000Y-111221428D01*
X168531904Y-110602380D02*
X168531904Y-111316666D01*
X168484285Y-111459523D01*
X168389047Y-111554761D01*
X168246190Y-111602380D01*
X168150952Y-111602380D01*
X169531904Y-111602380D02*
X168960476Y-111602380D01*
X169246190Y-111602380D02*
X169246190Y-110602380D01*
X169150952Y-110745238D01*
X169055714Y-110840476D01*
X168960476Y-110888095D01*
G04 #@! TO.C,X-J2*
X168500476Y-110602380D02*
X169167142Y-111602380D01*
X169167142Y-110602380D02*
X168500476Y-111602380D01*
X169548095Y-111221428D02*
X170310000Y-111221428D01*
X171071904Y-110602380D02*
X171071904Y-111316666D01*
X171024285Y-111459523D01*
X170929047Y-111554761D01*
X170786190Y-111602380D01*
X170690952Y-111602380D01*
X171500476Y-110697619D02*
X171548095Y-110650000D01*
X171643333Y-110602380D01*
X171881428Y-110602380D01*
X171976666Y-110650000D01*
X172024285Y-110697619D01*
X172071904Y-110792857D01*
X172071904Y-110888095D01*
X172024285Y-111030952D01*
X171452857Y-111602380D01*
X172071904Y-111602380D01*
G04 #@! TO.C,Y-J1*
X165993809Y-123426190D02*
X165993809Y-123902380D01*
X165660476Y-122902380D02*
X165993809Y-123426190D01*
X166327142Y-122902380D01*
X166660476Y-123521428D02*
X167422380Y-123521428D01*
X168184285Y-122902380D02*
X168184285Y-123616666D01*
X168136666Y-123759523D01*
X168041428Y-123854761D01*
X167898571Y-123902380D01*
X167803333Y-123902380D01*
X169184285Y-123902380D02*
X168612857Y-123902380D01*
X168898571Y-123902380D02*
X168898571Y-122902380D01*
X168803333Y-123045238D01*
X168708095Y-123140476D01*
X168612857Y-123188095D01*
G04 #@! TO.C,Y-J2*
X168533809Y-123426190D02*
X168533809Y-123902380D01*
X168200476Y-122902380D02*
X168533809Y-123426190D01*
X168867142Y-122902380D01*
X169200476Y-123521428D02*
X169962380Y-123521428D01*
X170724285Y-122902380D02*
X170724285Y-123616666D01*
X170676666Y-123759523D01*
X170581428Y-123854761D01*
X170438571Y-123902380D01*
X170343333Y-123902380D01*
X171152857Y-122997619D02*
X171200476Y-122950000D01*
X171295714Y-122902380D01*
X171533809Y-122902380D01*
X171629047Y-122950000D01*
X171676666Y-122997619D01*
X171724285Y-123092857D01*
X171724285Y-123188095D01*
X171676666Y-123330952D01*
X171105238Y-123902380D01*
X171724285Y-123902380D01*
G04 #@! TD*
M02*
