M48
;DRILL file {KiCad 5.0.1} date Wed 20 Feb 2019 04:22:48 PM EST
;FORMAT={-:-/ absolute / inch / decimal}
FMAT,2
INCH,TZ
T1C0.0157
T2C0.0276
T3C0.0295
T4C0.0315
T5C0.0354
T6C0.0374
T7C0.0394
%
G90
G05
M72
T1
X4.1181Y-4.4055
X4.1496Y-4.8937
X4.2244Y-4.8622
X4.3346Y-4.8898
X4.3661Y-5.2323
X4.3807Y-5.0325
X4.3839Y-4.4724
X4.436Y-3.9016
X4.4409Y-4.2638
X4.4567Y-3.9528
X4.4646Y-2.9843
X4.5236Y-3.9016
X4.6102Y-4.3858
X4.6142Y-4.451
X4.6299Y-4.7953
X4.6339Y-5.2795
X4.6457Y-3.9843
X4.6929Y-4.6654
X4.6969Y-4.563
X4.7008Y-4.185
X4.7047Y-4.3819
X4.7165Y-3.6969
X4.7165Y-5.2795
X4.7244Y-4.4921
X4.7402Y-4.9055
X4.7717Y-5.3661
X4.7933Y-5.0157
X4.8425Y-4.7165
X4.874Y-5.0906
X4.9024Y-3.8425
X4.9459Y-4.3868
X4.9459Y-4.4882
X4.9646Y-2.9409
X4.9685Y-3.2953
X4.9764Y-4.6929
X4.9843Y-3.9331
X5.0197Y-4.874
X5.0224Y-3.0445
X5.0512Y-4.0079
X5.0551Y-5.2913
X5.0669Y-3.0039
X5.102Y-3.9394
X5.1063Y-4.5
X5.1142Y-4.3583
X5.1142Y-4.6339
X5.1457Y-4.437
X5.189Y-4.6102
X5.2205Y-4.4724
X5.2283Y-4.811
X5.2323Y-3.2165
X5.2717Y-5.1417
X5.2795Y-4.0315
X5.2795Y-4.0709
X5.3386Y-2.9843
X5.3622Y-4.122
X5.5276Y-3.6339
X5.5276Y-4.0669
X5.5315Y-2.6772
X5.5354Y-4.3937
X5.5421Y-3.8902
X5.5421Y-4.0008
X5.5433Y-4.3386
X5.5551Y-4.7008
X5.6063Y-4.2677
X5.6181Y-4.5984
X5.7598Y-5.5236
X5.7638Y-4.8937
X5.7756Y-4.5157
X5.8661Y-2.6575
X5.9331Y-4.9134
X5.9354Y-4.7945
X5.948Y-4.611
X5.9669Y-4.0547
X5.9898Y-4.7091
X5.9921Y-4.5
X6.0772Y-4.4067
X6.1024Y-5.1142
X6.1142Y-2.5591
X6.1193Y-4.6134
X6.122Y-4.563
X6.126Y-3.185
X6.1945Y-4.937
X6.211Y-4.8622
X6.2223Y-4.5925
X6.2598Y-3.8937
X6.2717Y-4.2835
X6.2862Y-4.1815
X6.2935Y-4.8133
X6.3028Y-4.3835
X6.3458Y-4.8428
X6.3465Y-2.4803
X6.3465Y-4.4646
X6.4252Y-4.7795
X6.4693Y-4.0661
X6.4811Y-3.8972
X6.4882Y-4.7705
X6.4961Y-2.7874
X6.5724Y-3.9768
X6.6134Y-4.765
X6.7949Y-4.7258
X6.8234Y-4.8724
X6.9213Y-5.2276
T2
X6.1614Y-3.9016
X6.3614Y-3.9016
X5.378Y-5.2047
X5.578Y-5.2047
X5.8421Y-4.5992
X6.0421Y-4.5992
X5.8421Y-5.2492
X6.0421Y-5.2492
X6.0748Y-4.4803
X6.2748Y-4.4803
X5.8421Y-5.0492
X6.0421Y-5.0492
X6.2913Y-4.9488
X6.2913Y-5.1488
X6.1535Y-3.6417
X6.3535Y-3.6417
X5.8421Y-4.7992
X6.0421Y-4.7992
T3
X5.4252Y-2.563
X5.4252Y-2.863
X5.2323Y-2.5701
X5.2323Y-2.8701
T4
X5.0157Y-4.2087
X5.0157Y-4.3087
X5.0157Y-4.4087
X5.0157Y-4.5087
X5.3157Y-4.2087
X5.3157Y-4.3087
X5.3157Y-4.4087
X5.3157Y-4.5087
X4.5276Y-4.0669
X4.5276Y-4.1669
X4.5276Y-4.2669
X4.5276Y-4.3669
X4.5276Y-4.4669
X4.5276Y-4.5669
X4.8276Y-4.0669
X4.8276Y-4.1669
X4.8276Y-4.2669
X4.8276Y-4.3669
X4.8276Y-4.4669
X4.8276Y-4.5669
X5.0984Y-3.0984
X5.0984Y-3.1984
X5.0984Y-3.2984
X5.0984Y-3.3984
X5.3984Y-3.0984
X5.3984Y-3.1984
X5.3984Y-3.2984
X5.3984Y-3.3984
X5.6772Y-3.2835
X5.6772Y-3.3835
X5.6772Y-3.4835
X5.6772Y-3.5835
X5.6772Y-3.6835
X5.6772Y-3.7835
X5.6772Y-3.8835
X5.9772Y-3.2835
X5.9772Y-3.3835
X5.9772Y-3.4835
X5.9772Y-3.5835
X5.9772Y-3.6835
X5.9772Y-3.7835
X5.9772Y-3.8835
X4.5354Y-3.2756
X4.5354Y-3.3756
X4.5354Y-3.4756
X4.5354Y-3.5756
X4.5354Y-3.6756
X4.5354Y-3.7756
X4.8354Y-3.2756
X4.8354Y-3.3756
X4.8354Y-3.4756
X4.8354Y-3.5756
X4.8354Y-3.6756
X4.8354Y-3.7756
X5.3421Y-4.6992
X5.3421Y-4.7992
X5.3421Y-4.8992
X5.3421Y-4.9992
X5.6421Y-4.6992
X5.6421Y-4.7992
X5.6421Y-4.8992
X5.6421Y-4.9992
X4.5472Y-2.3976
X4.5472Y-2.4976
X4.5472Y-2.5976
X4.5472Y-2.6976
X4.5472Y-2.7976
X4.5472Y-2.8976
X4.5472Y-2.9976
X4.8472Y-2.3976
X4.8472Y-2.4976
X4.8472Y-2.5976
X4.8472Y-2.6976
X4.8472Y-2.7976
X4.8472Y-2.8976
X4.8472Y-2.9976
X5.6654Y-2.3543
X5.6654Y-2.4543
X5.6654Y-2.5543
X5.6654Y-2.6543
X5.6654Y-2.7543
X5.6654Y-2.8543
X5.6654Y-2.9543
X5.9654Y-2.3543
X5.9654Y-2.4543
X5.9654Y-2.5543
X5.9654Y-2.6543
X5.9654Y-2.7543
X5.9654Y-2.8543
X5.9654Y-2.9543
X6.3421Y-4.6492
X6.4406Y-4.6492
X5.4803Y-4.4843
X5.5787Y-4.4843
T5
X6.7717Y-5.6732
X6.8701Y-5.5748
X6.9685Y-5.6732
X5.3543Y-5.6732
X5.4528Y-5.5748
X5.5512Y-5.6732
X5.8268Y-5.6732
X5.9252Y-5.5748
X6.0236Y-5.6732
X5.1142Y-2.311
X5.2126Y-2.4094
X5.311Y-2.311
X6.2992Y-5.6732
X6.3976Y-5.5748
X6.4961Y-5.6732
T6
X4.6772Y-5.5236
X4.7756Y-5.5236
X4.874Y-5.5236
X4.9724Y-5.5236
X5.0709Y-5.5236
X4.6772Y-5.0906
X4.7756Y-5.0906
X4.874Y-5.0906
X4.9724Y-5.0906
X5.0709Y-5.0906
X4.0079Y-5.5236
X4.1063Y-5.5236
X4.2047Y-5.5236
X4.3031Y-5.5236
X4.4016Y-5.5236
X4.0079Y-5.0906
X4.1063Y-5.0906
X4.2047Y-5.0906
X4.3031Y-5.0906
X4.4016Y-5.0906
T7
X6.9213Y-4.5157
X6.9213Y-4.6157
X6.9213Y-4.7157
X4.2457Y-2.3445
X4.2457Y-2.4445
X4.2457Y-2.5445
X4.2457Y-2.6445
X4.2457Y-2.7445
X4.2457Y-2.8445
X4.2457Y-2.9445
X4.2457Y-3.0445
X4.2457Y-3.1445
X4.2457Y-3.2445
X4.2457Y-3.3445
X4.2457Y-3.4445
X4.2457Y-3.5445
X4.2457Y-3.6445
X4.2457Y-3.7445
X4.2457Y-3.8445
X4.2457Y-3.9445
X4.2457Y-4.0445
X4.2457Y-4.1445
X4.3457Y-2.3445
X4.3457Y-2.4445
X4.3457Y-2.5445
X4.3457Y-2.6445
X4.3457Y-2.7445
X4.3457Y-2.8445
X4.3457Y-2.9445
X4.3457Y-3.0445
X4.3457Y-3.1445
X4.3457Y-3.2445
X4.3457Y-3.3445
X4.3457Y-3.4445
X4.3457Y-3.5445
X4.3457Y-3.6445
X4.3457Y-3.7445
X4.3457Y-3.8445
X4.3457Y-3.9445
X4.3457Y-4.0445
X4.3457Y-4.1445
X5.4016Y-3.7953
X6.5933Y-4.952
X6.5933Y-5.052
X6.5933Y-5.152
X6.6933Y-4.952
X6.6933Y-5.052
X6.6933Y-5.152
X6.9213Y-5.0276
X6.9213Y-5.1276
X6.9213Y-5.2276
X6.7051Y-4.4677
X6.7051Y-4.5677
X6.7051Y-4.6677
X6.6417Y-2.3346
X6.6417Y-2.4346
X6.6417Y-2.5346
X6.6417Y-2.6346
X6.6417Y-2.7346
X6.6417Y-2.8346
X6.6417Y-2.9346
X6.6417Y-3.0346
X6.6417Y-3.1346
X6.6417Y-3.2346
X6.6417Y-3.3346
X6.6417Y-3.4346
X6.6417Y-3.5346
X6.6417Y-3.6346
X6.6417Y-3.7346
X6.6417Y-3.8346
X6.6417Y-3.9346
X6.6417Y-4.0346
X6.6417Y-4.1346
X6.7417Y-2.3346
X6.7417Y-2.4346
X6.7417Y-2.5346
X6.7417Y-2.6346
X6.7417Y-2.7346
X6.7417Y-2.8346
X6.7417Y-2.9346
X6.7417Y-3.0346
X6.7417Y-3.1346
X6.7417Y-3.2346
X6.7417Y-3.3346
X6.7417Y-3.4346
X6.7417Y-3.5346
X6.7417Y-3.6346
X6.7417Y-3.7346
X6.7417Y-3.8346
X6.7417Y-3.9346
X6.7417Y-4.0346
X6.7417Y-4.1346
X5.0819Y-3.7894
X4.2283Y-4.4559
X4.2283Y-4.5559
X4.2283Y-4.6559
X4.2283Y-4.7559
X6.2953Y-2.3465
X6.6051Y-4.4677
X6.6051Y-4.5677
X6.6051Y-4.6677
T0
M30
