G04 #@! TF.GenerationSoftware,KiCad,Pcbnew,5.0.1*
G04 #@! TF.CreationDate,2019-02-20T16:22:45-05:00*
G04 #@! TF.ProjectId,pongPCB,706F6E675043422E6B696361645F7063,rev?*
G04 #@! TF.SameCoordinates,Original*
G04 #@! TF.FileFunction,Copper,L1,Top,Signal*
G04 #@! TF.FilePolarity,Positive*
%FSLAX46Y46*%
G04 Gerber Fmt 4.6, Leading zero omitted, Abs format (unit mm)*
G04 Created by KiCad (PCBNEW 5.0.1) date Wed 20 Feb 2019 04:22:45 PM EST*
%MOMM*%
%LPD*%
G01*
G04 APERTURE LIST*
G04 #@! TA.AperFunction,ComponentPad*
%ADD10C,1.600000*%
G04 #@! TD*
G04 #@! TA.AperFunction,ComponentPad*
%ADD11O,1.400000X1.400000*%
G04 #@! TD*
G04 #@! TA.AperFunction,ComponentPad*
%ADD12C,1.400000*%
G04 #@! TD*
G04 #@! TA.AperFunction,ComponentPad*
%ADD13C,1.620000*%
G04 #@! TD*
G04 #@! TA.AperFunction,ComponentPad*
%ADD14R,1.600000X1.600000*%
G04 #@! TD*
G04 #@! TA.AperFunction,ComponentPad*
%ADD15O,1.600000X1.600000*%
G04 #@! TD*
G04 #@! TA.AperFunction,ComponentPad*
%ADD16R,1.500000X1.500000*%
G04 #@! TD*
G04 #@! TA.AperFunction,ComponentPad*
%ADD17O,1.500000X1.500000*%
G04 #@! TD*
G04 #@! TA.AperFunction,ComponentPad*
%ADD18R,1.700000X1.700000*%
G04 #@! TD*
G04 #@! TA.AperFunction,ComponentPad*
%ADD19O,1.700000X1.700000*%
G04 #@! TD*
G04 #@! TA.AperFunction,ComponentPad*
%ADD20O,1.700000X1.950000*%
G04 #@! TD*
G04 #@! TA.AperFunction,Conductor*
%ADD21C,0.100000*%
G04 #@! TD*
G04 #@! TA.AperFunction,ComponentPad*
%ADD22C,1.700000*%
G04 #@! TD*
G04 #@! TA.AperFunction,ViaPad*
%ADD23C,0.800000*%
G04 #@! TD*
G04 #@! TA.AperFunction,Conductor*
%ADD24C,0.250000*%
G04 #@! TD*
G04 APERTURE END LIST*
D10*
G04 #@! TO.P,C1,1*
G04 #@! TO.N,Net-(C1-Pad1)*
X161090000Y-118090000D03*
G04 #@! TO.P,C1,2*
G04 #@! TO.N,GND*
X163590000Y-118090000D03*
G04 #@! TD*
G04 #@! TO.P,C2,2*
G04 #@! TO.N,GND*
X141700000Y-113900000D03*
G04 #@! TO.P,C2,1*
G04 #@! TO.N,Net-(C2-Pad1)*
X139200000Y-113900000D03*
G04 #@! TD*
D11*
G04 #@! TO.P,R1,2*
G04 #@! TO.N,Net-(R1-Pad2)*
X141680000Y-132200000D03*
D12*
G04 #@! TO.P,R1,1*
G04 #@! TO.N,Net-(R1-Pad1)*
X136600000Y-132200000D03*
G04 #@! TD*
D11*
G04 #@! TO.P,R2,2*
G04 #@! TO.N,Net-(R2-Pad2)*
X159380000Y-113800000D03*
D12*
G04 #@! TO.P,R2,1*
G04 #@! TO.N,Net-(R2-Pad1)*
X154300000Y-113800000D03*
G04 #@! TD*
G04 #@! TO.P,R3,1*
G04 #@! TO.N,+15V*
X148390000Y-133330000D03*
D11*
G04 #@! TO.P,R3,2*
G04 #@! TO.N,Net-(R3-Pad2)*
X153470000Y-133330000D03*
G04 #@! TD*
G04 #@! TO.P,R4,2*
G04 #@! TO.N,Net-(R4-Pad2)*
X153470000Y-128250000D03*
D12*
G04 #@! TO.P,R4,1*
G04 #@! TO.N,Net-(R4-Pad1)*
X148390000Y-128250000D03*
G04 #@! TD*
G04 #@! TO.P,R5,1*
G04 #@! TO.N,+15V*
X148390000Y-116820000D03*
D11*
G04 #@! TO.P,R5,2*
G04 #@! TO.N,Net-(R5-Pad2)*
X153470000Y-116820000D03*
G04 #@! TD*
D12*
G04 #@! TO.P,R6,1*
G04 #@! TO.N,Net-(R6-Pad1)*
X156500000Y-99100000D03*
D11*
G04 #@! TO.P,R6,2*
G04 #@! TO.N,Net-(R6-Pad2)*
X161580000Y-99100000D03*
G04 #@! TD*
G04 #@! TO.P,R7,2*
G04 #@! TO.N,Net-(R4-Pad1)*
X153470000Y-121900000D03*
D12*
G04 #@! TO.P,R7,1*
G04 #@! TO.N,Net-(J1-Pad3)*
X148390000Y-121900000D03*
G04 #@! TD*
G04 #@! TO.P,R8,1*
G04 #@! TO.N,Net-(J2-Pad3)*
X156300000Y-92500000D03*
D11*
G04 #@! TO.P,R8,2*
G04 #@! TO.N,Net-(R6-Pad1)*
X161380000Y-92500000D03*
G04 #@! TD*
D12*
G04 #@! TO.P,R9,1*
G04 #@! TO.N,+5V*
X159800000Y-125700000D03*
D11*
G04 #@! TO.P,R9,2*
G04 #@! TO.N,Net-(D1-Pad2)*
X159800000Y-130780000D03*
G04 #@! TD*
D13*
G04 #@! TO.P,RV1,3*
G04 #@! TO.N,GND*
X165000000Y-144100000D03*
G04 #@! TO.P,RV1,2*
G04 #@! TO.N,Net-(RV1-Pad2)*
X162500000Y-141600000D03*
G04 #@! TO.P,RV1,1*
G04 #@! TO.N,Net-(R3-Pad2)*
X160000000Y-144100000D03*
G04 #@! TD*
G04 #@! TO.P,RV2,3*
G04 #@! TO.N,GND*
X141000000Y-144100000D03*
G04 #@! TO.P,RV2,2*
G04 #@! TO.N,Net-(RV2-Pad2)*
X138500000Y-141600000D03*
G04 #@! TO.P,RV2,1*
G04 #@! TO.N,Net-(R5-Pad2)*
X136000000Y-144100000D03*
G04 #@! TD*
G04 #@! TO.P,RV3,1*
G04 #@! TO.N,Net-(RV3-Pad1)*
X148000000Y-144100000D03*
G04 #@! TO.P,RV3,2*
G04 #@! TO.N,Net-(R4-Pad2)*
X150500000Y-141600000D03*
G04 #@! TO.P,RV3,3*
G04 #@! TO.N,Net-(R1-Pad1)*
X153000000Y-144100000D03*
G04 #@! TD*
G04 #@! TO.P,RV4,3*
G04 #@! TO.N,Net-(R2-Pad1)*
X177000000Y-144100000D03*
G04 #@! TO.P,RV4,2*
G04 #@! TO.N,Net-(R6-Pad2)*
X174500000Y-141600000D03*
G04 #@! TO.P,RV4,1*
G04 #@! TO.N,Net-(RV4-Pad1)*
X172000000Y-144100000D03*
G04 #@! TD*
G04 #@! TO.P,RV5,1*
G04 #@! TO.N,Net-(D1-Pad1)*
X134900000Y-58700000D03*
G04 #@! TO.P,RV5,2*
G04 #@! TO.N,Net-(C2-Pad1)*
X132400000Y-61200000D03*
G04 #@! TO.P,RV5,3*
G04 #@! TO.N,Net-(D2-Pad2)*
X129900000Y-58700000D03*
G04 #@! TD*
D14*
G04 #@! TO.P,U1,1*
G04 #@! TO.N,+5V*
X115500000Y-60900000D03*
D15*
G04 #@! TO.P,U1,8*
G04 #@! TO.N,/LATCH*
X123120000Y-76140000D03*
G04 #@! TO.P,U1,2*
G04 #@! TO.N,Net-(U1-Pad2)*
X115500000Y-63440000D03*
G04 #@! TO.P,U1,9*
G04 #@! TO.N,Net-(U1-Pad9)*
X123120000Y-73600000D03*
G04 #@! TO.P,U1,3*
G04 #@! TO.N,Net-(CN10-Pad17)*
X115500000Y-65980000D03*
G04 #@! TO.P,U1,10*
G04 #@! TO.N,Net-(J6-Pad1)*
X123120000Y-71060000D03*
G04 #@! TO.P,U1,4*
G04 #@! TO.N,Net-(CN10-Pad11)*
X115500000Y-68520000D03*
G04 #@! TO.P,U1,11*
G04 #@! TO.N,+5V*
X123120000Y-68520000D03*
G04 #@! TO.P,U1,5*
G04 #@! TO.N,Net-(CN10-Pad15)*
X115500000Y-71060000D03*
G04 #@! TO.P,U1,12*
G04 #@! TO.N,GND*
X123120000Y-65980000D03*
G04 #@! TO.P,U1,6*
G04 #@! TO.N,Net-(U1-Pad6)*
X115500000Y-73600000D03*
G04 #@! TO.P,U1,13*
G04 #@! TO.N,+5V*
X123120000Y-63440000D03*
G04 #@! TO.P,U1,7*
G04 #@! TO.N,Net-(U1-Pad7)*
X115500000Y-76140000D03*
G04 #@! TO.P,U1,14*
G04 #@! TO.N,Net-(J3-Pad1)*
X123120000Y-60900000D03*
G04 #@! TD*
D14*
G04 #@! TO.P,U2,1*
G04 #@! TO.N,Net-(R4-Pad2)*
X135690000Y-119360000D03*
D15*
G04 #@! TO.P,U2,5*
G04 #@! TO.N,GND*
X143310000Y-126980000D03*
G04 #@! TO.P,U2,2*
G04 #@! TO.N,Net-(R1-Pad1)*
X135690000Y-121900000D03*
G04 #@! TO.P,U2,6*
G04 #@! TO.N,Net-(R4-Pad1)*
X143310000Y-124440000D03*
G04 #@! TO.P,U2,3*
G04 #@! TO.N,Net-(RV1-Pad2)*
X135690000Y-124440000D03*
G04 #@! TO.P,U2,7*
G04 #@! TO.N,Net-(J1-Pad3)*
X143310000Y-121900000D03*
G04 #@! TO.P,U2,4*
G04 #@! TO.N,-15V*
X135690000Y-126980000D03*
G04 #@! TO.P,U2,8*
G04 #@! TO.N,+15V*
X143310000Y-119360000D03*
G04 #@! TD*
G04 #@! TO.P,U3,12*
G04 #@! TO.N,Net-(U3-Pad12)*
X122620000Y-103300000D03*
G04 #@! TO.P,U3,6*
G04 #@! TO.N,GND*
X115000000Y-116000000D03*
G04 #@! TO.P,U3,11*
G04 #@! TO.N,+12V*
X122620000Y-105840000D03*
G04 #@! TO.P,U3,5*
G04 #@! TO.N,/BUTTON1*
X115000000Y-113460000D03*
G04 #@! TO.P,U3,10*
G04 #@! TO.N,Net-(Rotary1-Pad1)*
X122620000Y-108380000D03*
G04 #@! TO.P,U3,4*
G04 #@! TO.N,/CLK1*
X115000000Y-110920000D03*
G04 #@! TO.P,U3,9*
G04 #@! TO.N,Net-(U3-Pad9)*
X122620000Y-110920000D03*
G04 #@! TO.P,U3,3*
G04 #@! TO.N,Net-(U3-Pad3)*
X115000000Y-108380000D03*
G04 #@! TO.P,U3,8*
G04 #@! TO.N,Net-(Rotary1-Pad3)*
X122620000Y-113460000D03*
G04 #@! TO.P,U3,2*
G04 #@! TO.N,/DT1*
X115000000Y-105840000D03*
G04 #@! TO.P,U3,7*
G04 #@! TO.N,Net-(Rotary1-Pad5)*
X122620000Y-116000000D03*
D14*
G04 #@! TO.P,U3,1*
G04 #@! TO.N,+5V*
X115000000Y-103300000D03*
G04 #@! TD*
G04 #@! TO.P,U4,1*
G04 #@! TO.N,+5V*
X115200000Y-83200000D03*
D15*
G04 #@! TO.P,U4,7*
G04 #@! TO.N,Net-(Rotary2-Pad5)*
X122820000Y-95900000D03*
G04 #@! TO.P,U4,2*
G04 #@! TO.N,/DT2*
X115200000Y-85740000D03*
G04 #@! TO.P,U4,8*
G04 #@! TO.N,Net-(Rotary2-Pad3)*
X122820000Y-93360000D03*
G04 #@! TO.P,U4,3*
G04 #@! TO.N,Net-(U4-Pad3)*
X115200000Y-88280000D03*
G04 #@! TO.P,U4,9*
G04 #@! TO.N,Net-(U4-Pad9)*
X122820000Y-90820000D03*
G04 #@! TO.P,U4,4*
G04 #@! TO.N,/CLK2*
X115200000Y-90820000D03*
G04 #@! TO.P,U4,10*
G04 #@! TO.N,Net-(Rotary2-Pad1)*
X122820000Y-88280000D03*
G04 #@! TO.P,U4,5*
G04 #@! TO.N,/BUTTON2*
X115200000Y-93360000D03*
G04 #@! TO.P,U4,11*
G04 #@! TO.N,+12V*
X122820000Y-85740000D03*
G04 #@! TO.P,U4,6*
G04 #@! TO.N,GND*
X115200000Y-95900000D03*
G04 #@! TO.P,U4,12*
G04 #@! TO.N,Net-(U4-Pad12)*
X122820000Y-83200000D03*
G04 #@! TD*
D14*
G04 #@! TO.P,U5,1*
G04 #@! TO.N,Net-(R6-Pad2)*
X127400000Y-106900000D03*
D15*
G04 #@! TO.P,U5,5*
G04 #@! TO.N,GND*
X135020000Y-114520000D03*
G04 #@! TO.P,U5,2*
G04 #@! TO.N,Net-(R2-Pad1)*
X127400000Y-109440000D03*
G04 #@! TO.P,U5,6*
G04 #@! TO.N,Net-(R6-Pad1)*
X135020000Y-111980000D03*
G04 #@! TO.P,U5,3*
G04 #@! TO.N,Net-(RV2-Pad2)*
X127400000Y-111980000D03*
G04 #@! TO.P,U5,7*
G04 #@! TO.N,Net-(J2-Pad3)*
X135020000Y-109440000D03*
G04 #@! TO.P,U5,4*
G04 #@! TO.N,-15V*
X127400000Y-114520000D03*
G04 #@! TO.P,U5,8*
G04 #@! TO.N,+15V*
X135020000Y-106900000D03*
G04 #@! TD*
G04 #@! TO.P,U6,8*
G04 #@! TO.N,+5V*
X137120000Y-78700000D03*
G04 #@! TO.P,U6,4*
X129500000Y-86320000D03*
G04 #@! TO.P,U6,7*
G04 #@! TO.N,Net-(D1-Pad2)*
X137120000Y-81240000D03*
G04 #@! TO.P,U6,3*
G04 #@! TO.N,Net-(U6-Pad3)*
X129500000Y-83780000D03*
G04 #@! TO.P,U6,6*
G04 #@! TO.N,Net-(C2-Pad1)*
X137120000Y-83780000D03*
G04 #@! TO.P,U6,2*
X129500000Y-81240000D03*
G04 #@! TO.P,U6,5*
G04 #@! TO.N,Net-(C1-Pad1)*
X137120000Y-86320000D03*
D14*
G04 #@! TO.P,U6,1*
G04 #@! TO.N,GND*
X129500000Y-78700000D03*
G04 #@! TD*
D16*
G04 #@! TO.P,D1,1*
G04 #@! TO.N,Net-(D1-Pad1)*
X137800000Y-65100000D03*
D17*
G04 #@! TO.P,D1,2*
G04 #@! TO.N,Net-(D1-Pad2)*
X137800000Y-72720000D03*
G04 #@! TD*
G04 #@! TO.P,D2,2*
G04 #@! TO.N,Net-(D2-Pad2)*
X132900000Y-65280000D03*
D16*
G04 #@! TO.P,D2,1*
G04 #@! TO.N,Net-(D1-Pad2)*
X132900000Y-72900000D03*
G04 #@! TD*
D18*
G04 #@! TO.P,CN7,1*
G04 #@! TO.N,Net-(CN7-Pad1)*
X107840000Y-59550000D03*
D19*
G04 #@! TO.P,CN7,2*
G04 #@! TO.N,Net-(CN7-Pad2)*
X110380000Y-59550000D03*
G04 #@! TO.P,CN7,3*
G04 #@! TO.N,Net-(CN7-Pad3)*
X107840000Y-62090000D03*
G04 #@! TO.P,CN7,4*
G04 #@! TO.N,Net-(CN7-Pad4)*
X110380000Y-62090000D03*
G04 #@! TO.P,CN7,5*
G04 #@! TO.N,Net-(CN7-Pad5)*
X107840000Y-64630000D03*
G04 #@! TO.P,CN7,6*
G04 #@! TO.N,Net-(CN7-Pad6)*
X110380000Y-64630000D03*
G04 #@! TO.P,CN7,7*
G04 #@! TO.N,Net-(CN7-Pad7)*
X107840000Y-67170000D03*
G04 #@! TO.P,CN7,8*
G04 #@! TO.N,Net-(CN7-Pad8)*
X110380000Y-67170000D03*
G04 #@! TO.P,CN7,9*
G04 #@! TO.N,Net-(CN7-Pad9)*
X107840000Y-69710000D03*
G04 #@! TO.P,CN7,10*
G04 #@! TO.N,Net-(CN7-Pad10)*
X110380000Y-69710000D03*
G04 #@! TO.P,CN7,11*
G04 #@! TO.N,Net-(CN7-Pad11)*
X107840000Y-72250000D03*
G04 #@! TO.P,CN7,12*
G04 #@! TO.N,Net-(CN7-Pad12)*
X110380000Y-72250000D03*
G04 #@! TO.P,CN7,13*
G04 #@! TO.N,Net-(CN7-Pad13)*
X107840000Y-74790000D03*
G04 #@! TO.P,CN7,14*
G04 #@! TO.N,Net-(CN7-Pad14)*
X110380000Y-74790000D03*
G04 #@! TO.P,CN7,15*
G04 #@! TO.N,Net-(CN7-Pad15)*
X107840000Y-77330000D03*
G04 #@! TO.P,CN7,16*
G04 #@! TO.N,Net-(CN10-Pad7)*
X110380000Y-77330000D03*
G04 #@! TO.P,CN7,17*
G04 #@! TO.N,Net-(CN7-Pad17)*
X107840000Y-79870000D03*
G04 #@! TO.P,CN7,18*
G04 #@! TO.N,Net-(CN7-Pad18)*
X110380000Y-79870000D03*
G04 #@! TO.P,CN7,19*
G04 #@! TO.N,Net-(CN7-Pad19)*
X107840000Y-82410000D03*
G04 #@! TO.P,CN7,20*
G04 #@! TO.N,Net-(CN7-Pad20)*
X110380000Y-82410000D03*
G04 #@! TO.P,CN7,21*
G04 #@! TO.N,Net-(CN7-Pad21)*
X107840000Y-84950000D03*
G04 #@! TO.P,CN7,22*
G04 #@! TO.N,GND*
X110380000Y-84950000D03*
G04 #@! TO.P,CN7,23*
G04 #@! TO.N,Net-(CN7-Pad23)*
X107840000Y-87490000D03*
G04 #@! TO.P,CN7,24*
G04 #@! TO.N,+12V*
X110380000Y-87490000D03*
G04 #@! TO.P,CN7,25*
G04 #@! TO.N,Net-(CN7-Pad25)*
X107840000Y-90030000D03*
G04 #@! TO.P,CN7,26*
G04 #@! TO.N,Net-(CN7-Pad26)*
X110380000Y-90030000D03*
G04 #@! TO.P,CN7,27*
G04 #@! TO.N,Net-(CN7-Pad27)*
X107840000Y-92570000D03*
G04 #@! TO.P,CN7,28*
G04 #@! TO.N,/JOY1X*
X110380000Y-92570000D03*
G04 #@! TO.P,CN7,29*
G04 #@! TO.N,Net-(CN7-Pad29)*
X107840000Y-95110000D03*
G04 #@! TO.P,CN7,30*
G04 #@! TO.N,/JOY1Y*
X110380000Y-95110000D03*
G04 #@! TO.P,CN7,31*
G04 #@! TO.N,Net-(CN7-Pad31)*
X107840000Y-97650000D03*
G04 #@! TO.P,CN7,32*
G04 #@! TO.N,/JOY2X*
X110380000Y-97650000D03*
G04 #@! TO.P,CN7,33*
G04 #@! TO.N,Net-(CN7-Pad33)*
X107840000Y-100190000D03*
G04 #@! TO.P,CN7,34*
G04 #@! TO.N,/JOY2Y*
X110380000Y-100190000D03*
G04 #@! TO.P,CN7,35*
G04 #@! TO.N,Net-(CN7-Pad35)*
X107840000Y-102730000D03*
G04 #@! TO.P,CN7,36*
G04 #@! TO.N,Net-(CN7-Pad36)*
X110380000Y-102730000D03*
G04 #@! TO.P,CN7,37*
G04 #@! TO.N,Net-(CN7-Pad37)*
X107840000Y-105270000D03*
G04 #@! TO.P,CN7,38*
G04 #@! TO.N,/LASER_TOGGLE*
X110380000Y-105270000D03*
G04 #@! TD*
G04 #@! TO.P,CN10,38*
G04 #@! TO.N,Net-(CN10-Pad38)*
X171240000Y-105020000D03*
G04 #@! TO.P,CN10,37*
G04 #@! TO.N,Net-(CN10-Pad37)*
X168700000Y-105020000D03*
G04 #@! TO.P,CN10,36*
G04 #@! TO.N,Net-(CN10-Pad36)*
X171240000Y-102480000D03*
G04 #@! TO.P,CN10,35*
G04 #@! TO.N,Net-(CN10-Pad35)*
X168700000Y-102480000D03*
G04 #@! TO.P,CN10,34*
G04 #@! TO.N,/JOY1BUTTON*
X171240000Y-99940000D03*
G04 #@! TO.P,CN10,33*
G04 #@! TO.N,Net-(CN10-Pad33)*
X168700000Y-99940000D03*
G04 #@! TO.P,CN10,32*
G04 #@! TO.N,Net-(CN10-Pad32)*
X171240000Y-97400000D03*
G04 #@! TO.P,CN10,31*
G04 #@! TO.N,Net-(CN10-Pad31)*
X168700000Y-97400000D03*
G04 #@! TO.P,CN10,30*
G04 #@! TO.N,Net-(CN10-Pad30)*
X171240000Y-94860000D03*
G04 #@! TO.P,CN10,29*
G04 #@! TO.N,Net-(CN10-Pad29)*
X168700000Y-94860000D03*
G04 #@! TO.P,CN10,28*
G04 #@! TO.N,Net-(CN10-Pad28)*
X171240000Y-92320000D03*
G04 #@! TO.P,CN10,27*
G04 #@! TO.N,Net-(CN10-Pad27)*
X168700000Y-92320000D03*
G04 #@! TO.P,CN10,26*
G04 #@! TO.N,Net-(CN10-Pad26)*
X171240000Y-89780000D03*
G04 #@! TO.P,CN10,25*
G04 #@! TO.N,Net-(CN10-Pad25)*
X168700000Y-89780000D03*
G04 #@! TO.P,CN10,24*
G04 #@! TO.N,Net-(CN10-Pad24)*
X171240000Y-87240000D03*
G04 #@! TO.P,CN10,23*
G04 #@! TO.N,Net-(CN10-Pad23)*
X168700000Y-87240000D03*
G04 #@! TO.P,CN10,22*
G04 #@! TO.N,/LATCH*
X171240000Y-84700000D03*
G04 #@! TO.P,CN10,21*
G04 #@! TO.N,Net-(CN10-Pad21)*
X168700000Y-84700000D03*
G04 #@! TO.P,CN10,20*
G04 #@! TO.N,Net-(CN10-Pad20)*
X171240000Y-82160000D03*
G04 #@! TO.P,CN10,19*
G04 #@! TO.N,/CLK1*
X168700000Y-82160000D03*
G04 #@! TO.P,CN10,18*
G04 #@! TO.N,Net-(CN10-Pad18)*
X171240000Y-79620000D03*
G04 #@! TO.P,CN10,17*
G04 #@! TO.N,Net-(CN10-Pad17)*
X168700000Y-79620000D03*
G04 #@! TO.P,CN10,16*
G04 #@! TO.N,Net-(CN10-Pad16)*
X171240000Y-77080000D03*
G04 #@! TO.P,CN10,15*
G04 #@! TO.N,Net-(CN10-Pad15)*
X168700000Y-77080000D03*
G04 #@! TO.P,CN10,14*
G04 #@! TO.N,Net-(CN10-Pad14)*
X171240000Y-74540000D03*
G04 #@! TO.P,CN10,13*
G04 #@! TO.N,Net-(CN10-Pad13)*
X168700000Y-74540000D03*
G04 #@! TO.P,CN10,12*
G04 #@! TO.N,Net-(CN10-Pad12)*
X171240000Y-72000000D03*
G04 #@! TO.P,CN10,11*
G04 #@! TO.N,Net-(CN10-Pad11)*
X168700000Y-72000000D03*
G04 #@! TO.P,CN10,10*
G04 #@! TO.N,Net-(CN10-Pad10)*
X171240000Y-69460000D03*
G04 #@! TO.P,CN10,9*
G04 #@! TO.N,Net-(CN10-Pad9)*
X168700000Y-69460000D03*
G04 #@! TO.P,CN10,8*
G04 #@! TO.N,Net-(CN10-Pad8)*
X171240000Y-66920000D03*
G04 #@! TO.P,CN10,7*
G04 #@! TO.N,Net-(CN10-Pad7)*
X168700000Y-66920000D03*
G04 #@! TO.P,CN10,6*
G04 #@! TO.N,/JOY2BUTTON*
X171240000Y-64380000D03*
G04 #@! TO.P,CN10,5*
G04 #@! TO.N,/BUTTON2*
X168700000Y-64380000D03*
G04 #@! TO.P,CN10,4*
G04 #@! TO.N,/DT1*
X171240000Y-61840000D03*
G04 #@! TO.P,CN10,3*
G04 #@! TO.N,/BUTTON1*
X168700000Y-61840000D03*
G04 #@! TO.P,CN10,2*
G04 #@! TO.N,/DT2*
X171240000Y-59300000D03*
D18*
G04 #@! TO.P,CN10,1*
G04 #@! TO.N,/CLK2*
X168700000Y-59300000D03*
G04 #@! TD*
G04 #@! TO.P,J1,1*
G04 #@! TO.N,GND*
X175800000Y-114700000D03*
D19*
G04 #@! TO.P,J1,2*
G04 #@! TO.N,Net-(J1-Pad2)*
X175800000Y-117240000D03*
G04 #@! TO.P,J1,3*
G04 #@! TO.N,Net-(J1-Pad3)*
X175800000Y-119780000D03*
G04 #@! TD*
G04 #@! TO.P,J2,3*
G04 #@! TO.N,Net-(J2-Pad3)*
X175800000Y-132780000D03*
G04 #@! TO.P,J2,2*
G04 #@! TO.N,Net-(J2-Pad2)*
X175800000Y-130240000D03*
D18*
G04 #@! TO.P,J2,1*
G04 #@! TO.N,GND*
X175800000Y-127700000D03*
G04 #@! TD*
G04 #@! TO.P,J3,1*
G04 #@! TO.N,Net-(J3-Pad1)*
X129080000Y-96250000D03*
G04 #@! TD*
G04 #@! TO.P,J6,1*
G04 #@! TO.N,Net-(J6-Pad1)*
X137200000Y-96400000D03*
G04 #@! TD*
G04 #@! TO.P,J7,1*
G04 #@! TO.N,Net-(J7-Pad1)*
X159900000Y-59600000D03*
G04 #@! TD*
D20*
G04 #@! TO.P,Joy1,5*
G04 #@! TO.N,/JOY1BUTTON*
X111800000Y-140300000D03*
G04 #@! TO.P,Joy1,4*
G04 #@! TO.N,/JOY1Y*
X109300000Y-140300000D03*
G04 #@! TO.P,Joy1,3*
G04 #@! TO.N,/JOY1X*
X106800000Y-140300000D03*
G04 #@! TO.P,Joy1,2*
G04 #@! TO.N,GND*
X104300000Y-140300000D03*
D21*
G04 #@! TD*
G04 #@! TO.N,+5V*
G04 #@! TO.C,Joy1*
G36*
X102424504Y-139326204D02*
X102448773Y-139329804D01*
X102472571Y-139335765D01*
X102495671Y-139344030D01*
X102517849Y-139354520D01*
X102538893Y-139367133D01*
X102558598Y-139381747D01*
X102576777Y-139398223D01*
X102593253Y-139416402D01*
X102607867Y-139436107D01*
X102620480Y-139457151D01*
X102630970Y-139479329D01*
X102639235Y-139502429D01*
X102645196Y-139526227D01*
X102648796Y-139550496D01*
X102650000Y-139575000D01*
X102650000Y-141025000D01*
X102648796Y-141049504D01*
X102645196Y-141073773D01*
X102639235Y-141097571D01*
X102630970Y-141120671D01*
X102620480Y-141142849D01*
X102607867Y-141163893D01*
X102593253Y-141183598D01*
X102576777Y-141201777D01*
X102558598Y-141218253D01*
X102538893Y-141232867D01*
X102517849Y-141245480D01*
X102495671Y-141255970D01*
X102472571Y-141264235D01*
X102448773Y-141270196D01*
X102424504Y-141273796D01*
X102400000Y-141275000D01*
X101200000Y-141275000D01*
X101175496Y-141273796D01*
X101151227Y-141270196D01*
X101127429Y-141264235D01*
X101104329Y-141255970D01*
X101082151Y-141245480D01*
X101061107Y-141232867D01*
X101041402Y-141218253D01*
X101023223Y-141201777D01*
X101006747Y-141183598D01*
X100992133Y-141163893D01*
X100979520Y-141142849D01*
X100969030Y-141120671D01*
X100960765Y-141097571D01*
X100954804Y-141073773D01*
X100951204Y-141049504D01*
X100950000Y-141025000D01*
X100950000Y-139575000D01*
X100951204Y-139550496D01*
X100954804Y-139526227D01*
X100960765Y-139502429D01*
X100969030Y-139479329D01*
X100979520Y-139457151D01*
X100992133Y-139436107D01*
X101006747Y-139416402D01*
X101023223Y-139398223D01*
X101041402Y-139381747D01*
X101061107Y-139367133D01*
X101082151Y-139354520D01*
X101104329Y-139344030D01*
X101127429Y-139335765D01*
X101151227Y-139329804D01*
X101175496Y-139326204D01*
X101200000Y-139325000D01*
X102400000Y-139325000D01*
X102424504Y-139326204D01*
X102424504Y-139326204D01*
G37*
D22*
G04 #@! TO.P,Joy1,1*
G04 #@! TO.N,+5V*
X101800000Y-140300000D03*
G04 #@! TD*
D21*
G04 #@! TO.N,+5V*
G04 #@! TO.C,Joy2*
G36*
X119424504Y-139326204D02*
X119448773Y-139329804D01*
X119472571Y-139335765D01*
X119495671Y-139344030D01*
X119517849Y-139354520D01*
X119538893Y-139367133D01*
X119558598Y-139381747D01*
X119576777Y-139398223D01*
X119593253Y-139416402D01*
X119607867Y-139436107D01*
X119620480Y-139457151D01*
X119630970Y-139479329D01*
X119639235Y-139502429D01*
X119645196Y-139526227D01*
X119648796Y-139550496D01*
X119650000Y-139575000D01*
X119650000Y-141025000D01*
X119648796Y-141049504D01*
X119645196Y-141073773D01*
X119639235Y-141097571D01*
X119630970Y-141120671D01*
X119620480Y-141142849D01*
X119607867Y-141163893D01*
X119593253Y-141183598D01*
X119576777Y-141201777D01*
X119558598Y-141218253D01*
X119538893Y-141232867D01*
X119517849Y-141245480D01*
X119495671Y-141255970D01*
X119472571Y-141264235D01*
X119448773Y-141270196D01*
X119424504Y-141273796D01*
X119400000Y-141275000D01*
X118200000Y-141275000D01*
X118175496Y-141273796D01*
X118151227Y-141270196D01*
X118127429Y-141264235D01*
X118104329Y-141255970D01*
X118082151Y-141245480D01*
X118061107Y-141232867D01*
X118041402Y-141218253D01*
X118023223Y-141201777D01*
X118006747Y-141183598D01*
X117992133Y-141163893D01*
X117979520Y-141142849D01*
X117969030Y-141120671D01*
X117960765Y-141097571D01*
X117954804Y-141073773D01*
X117951204Y-141049504D01*
X117950000Y-141025000D01*
X117950000Y-139575000D01*
X117951204Y-139550496D01*
X117954804Y-139526227D01*
X117960765Y-139502429D01*
X117969030Y-139479329D01*
X117979520Y-139457151D01*
X117992133Y-139436107D01*
X118006747Y-139416402D01*
X118023223Y-139398223D01*
X118041402Y-139381747D01*
X118061107Y-139367133D01*
X118082151Y-139354520D01*
X118104329Y-139344030D01*
X118127429Y-139335765D01*
X118151227Y-139329804D01*
X118175496Y-139326204D01*
X118200000Y-139325000D01*
X119400000Y-139325000D01*
X119424504Y-139326204D01*
X119424504Y-139326204D01*
G37*
D22*
G04 #@! TD*
G04 #@! TO.P,Joy2,1*
G04 #@! TO.N,+5V*
X118800000Y-140300000D03*
D20*
G04 #@! TO.P,Joy2,2*
G04 #@! TO.N,GND*
X121300000Y-140300000D03*
G04 #@! TO.P,Joy2,3*
G04 #@! TO.N,/JOY2X*
X123800000Y-140300000D03*
G04 #@! TO.P,Joy2,4*
G04 #@! TO.N,/JOY2Y*
X126300000Y-140300000D03*
G04 #@! TO.P,Joy2,5*
G04 #@! TO.N,/JOY2BUTTON*
X128800000Y-140300000D03*
G04 #@! TD*
D21*
G04 #@! TO.N,Net-(Rotary1-Pad1)*
G04 #@! TO.C,Rotary1*
G36*
X102424504Y-128326204D02*
X102448773Y-128329804D01*
X102472571Y-128335765D01*
X102495671Y-128344030D01*
X102517849Y-128354520D01*
X102538893Y-128367133D01*
X102558598Y-128381747D01*
X102576777Y-128398223D01*
X102593253Y-128416402D01*
X102607867Y-128436107D01*
X102620480Y-128457151D01*
X102630970Y-128479329D01*
X102639235Y-128502429D01*
X102645196Y-128526227D01*
X102648796Y-128550496D01*
X102650000Y-128575000D01*
X102650000Y-130025000D01*
X102648796Y-130049504D01*
X102645196Y-130073773D01*
X102639235Y-130097571D01*
X102630970Y-130120671D01*
X102620480Y-130142849D01*
X102607867Y-130163893D01*
X102593253Y-130183598D01*
X102576777Y-130201777D01*
X102558598Y-130218253D01*
X102538893Y-130232867D01*
X102517849Y-130245480D01*
X102495671Y-130255970D01*
X102472571Y-130264235D01*
X102448773Y-130270196D01*
X102424504Y-130273796D01*
X102400000Y-130275000D01*
X101200000Y-130275000D01*
X101175496Y-130273796D01*
X101151227Y-130270196D01*
X101127429Y-130264235D01*
X101104329Y-130255970D01*
X101082151Y-130245480D01*
X101061107Y-130232867D01*
X101041402Y-130218253D01*
X101023223Y-130201777D01*
X101006747Y-130183598D01*
X100992133Y-130163893D01*
X100979520Y-130142849D01*
X100969030Y-130120671D01*
X100960765Y-130097571D01*
X100954804Y-130073773D01*
X100951204Y-130049504D01*
X100950000Y-130025000D01*
X100950000Y-128575000D01*
X100951204Y-128550496D01*
X100954804Y-128526227D01*
X100960765Y-128502429D01*
X100969030Y-128479329D01*
X100979520Y-128457151D01*
X100992133Y-128436107D01*
X101006747Y-128416402D01*
X101023223Y-128398223D01*
X101041402Y-128381747D01*
X101061107Y-128367133D01*
X101082151Y-128354520D01*
X101104329Y-128344030D01*
X101127429Y-128335765D01*
X101151227Y-128329804D01*
X101175496Y-128326204D01*
X101200000Y-128325000D01*
X102400000Y-128325000D01*
X102424504Y-128326204D01*
X102424504Y-128326204D01*
G37*
D22*
G04 #@! TD*
G04 #@! TO.P,Rotary1,1*
G04 #@! TO.N,Net-(Rotary1-Pad1)*
X101800000Y-129300000D03*
D20*
G04 #@! TO.P,Rotary1,2*
G04 #@! TO.N,+12V*
X104300000Y-129300000D03*
G04 #@! TO.P,Rotary1,3*
G04 #@! TO.N,Net-(Rotary1-Pad3)*
X106800000Y-129300000D03*
G04 #@! TO.P,Rotary1,4*
G04 #@! TO.N,GND*
X109300000Y-129300000D03*
G04 #@! TO.P,Rotary1,5*
G04 #@! TO.N,Net-(Rotary1-Pad5)*
X111800000Y-129300000D03*
G04 #@! TD*
G04 #@! TO.P,Rotary2,5*
G04 #@! TO.N,Net-(Rotary2-Pad5)*
X128800000Y-129300000D03*
G04 #@! TO.P,Rotary2,4*
G04 #@! TO.N,GND*
X126300000Y-129300000D03*
G04 #@! TO.P,Rotary2,3*
G04 #@! TO.N,Net-(Rotary2-Pad3)*
X123800000Y-129300000D03*
G04 #@! TO.P,Rotary2,2*
G04 #@! TO.N,+12V*
X121300000Y-129300000D03*
D21*
G04 #@! TD*
G04 #@! TO.N,Net-(Rotary2-Pad1)*
G04 #@! TO.C,Rotary2*
G36*
X119424504Y-128326204D02*
X119448773Y-128329804D01*
X119472571Y-128335765D01*
X119495671Y-128344030D01*
X119517849Y-128354520D01*
X119538893Y-128367133D01*
X119558598Y-128381747D01*
X119576777Y-128398223D01*
X119593253Y-128416402D01*
X119607867Y-128436107D01*
X119620480Y-128457151D01*
X119630970Y-128479329D01*
X119639235Y-128502429D01*
X119645196Y-128526227D01*
X119648796Y-128550496D01*
X119650000Y-128575000D01*
X119650000Y-130025000D01*
X119648796Y-130049504D01*
X119645196Y-130073773D01*
X119639235Y-130097571D01*
X119630970Y-130120671D01*
X119620480Y-130142849D01*
X119607867Y-130163893D01*
X119593253Y-130183598D01*
X119576777Y-130201777D01*
X119558598Y-130218253D01*
X119538893Y-130232867D01*
X119517849Y-130245480D01*
X119495671Y-130255970D01*
X119472571Y-130264235D01*
X119448773Y-130270196D01*
X119424504Y-130273796D01*
X119400000Y-130275000D01*
X118200000Y-130275000D01*
X118175496Y-130273796D01*
X118151227Y-130270196D01*
X118127429Y-130264235D01*
X118104329Y-130255970D01*
X118082151Y-130245480D01*
X118061107Y-130232867D01*
X118041402Y-130218253D01*
X118023223Y-130201777D01*
X118006747Y-130183598D01*
X117992133Y-130163893D01*
X117979520Y-130142849D01*
X117969030Y-130120671D01*
X117960765Y-130097571D01*
X117954804Y-130073773D01*
X117951204Y-130049504D01*
X117950000Y-130025000D01*
X117950000Y-128575000D01*
X117951204Y-128550496D01*
X117954804Y-128526227D01*
X117960765Y-128502429D01*
X117969030Y-128479329D01*
X117979520Y-128457151D01*
X117992133Y-128436107D01*
X118006747Y-128416402D01*
X118023223Y-128398223D01*
X118041402Y-128381747D01*
X118061107Y-128367133D01*
X118082151Y-128354520D01*
X118104329Y-128344030D01*
X118127429Y-128335765D01*
X118151227Y-128329804D01*
X118175496Y-128326204D01*
X118200000Y-128325000D01*
X119400000Y-128325000D01*
X119424504Y-128326204D01*
X119424504Y-128326204D01*
G37*
D22*
G04 #@! TO.P,Rotary2,1*
G04 #@! TO.N,Net-(Rotary2-Pad1)*
X118800000Y-129300000D03*
G04 #@! TD*
D14*
G04 #@! TO.P,U8,1*
G04 #@! TO.N,/LASER_TOGGLE*
X144200000Y-83400000D03*
D15*
G04 #@! TO.P,U8,8*
G04 #@! TO.N,N/C*
X151820000Y-98640000D03*
G04 #@! TO.P,U8,2*
G04 #@! TO.N,Net-(U6-Pad3)*
X144200000Y-85940000D03*
G04 #@! TO.P,U8,9*
G04 #@! TO.N,N/C*
X151820000Y-96100000D03*
G04 #@! TO.P,U8,3*
G04 #@! TO.N,Net-(J7-Pad1)*
X144200000Y-88480000D03*
G04 #@! TO.P,U8,10*
G04 #@! TO.N,N/C*
X151820000Y-93560000D03*
G04 #@! TO.P,U8,4*
X144200000Y-91020000D03*
G04 #@! TO.P,U8,11*
X151820000Y-91020000D03*
G04 #@! TO.P,U8,5*
X144200000Y-93560000D03*
G04 #@! TO.P,U8,12*
X151820000Y-88480000D03*
G04 #@! TO.P,U8,6*
X144200000Y-96100000D03*
G04 #@! TO.P,U8,13*
X151820000Y-85940000D03*
G04 #@! TO.P,U8,7*
X144200000Y-98640000D03*
G04 #@! TO.P,U8,14*
X151820000Y-83400000D03*
G04 #@! TD*
D18*
G04 #@! TO.P,J4,1*
G04 #@! TO.N,-15V*
X107400000Y-120800000D03*
D19*
G04 #@! TO.P,J4,2*
G04 #@! TO.N,GND*
X107400000Y-118260000D03*
G04 #@! TO.P,J4,3*
G04 #@! TO.N,+12V*
X107400000Y-115720000D03*
G04 #@! TO.P,J4,4*
G04 #@! TO.N,+15V*
X107400000Y-113180000D03*
G04 #@! TD*
D14*
G04 #@! TO.P,U7,1*
G04 #@! TO.N,N/C*
X143900000Y-59800000D03*
D15*
G04 #@! TO.P,U7,8*
X151520000Y-75040000D03*
G04 #@! TO.P,U7,2*
X143900000Y-62340000D03*
G04 #@! TO.P,U7,9*
X151520000Y-72500000D03*
G04 #@! TO.P,U7,3*
X143900000Y-64880000D03*
G04 #@! TO.P,U7,10*
X151520000Y-69960000D03*
G04 #@! TO.P,U7,4*
X143900000Y-67420000D03*
G04 #@! TO.P,U7,11*
X151520000Y-67420000D03*
G04 #@! TO.P,U7,5*
X143900000Y-69960000D03*
G04 #@! TO.P,U7,12*
X151520000Y-64880000D03*
G04 #@! TO.P,U7,6*
X143900000Y-72500000D03*
G04 #@! TO.P,U7,13*
X151520000Y-62340000D03*
G04 #@! TO.P,U7,7*
G04 #@! TO.N,GND*
X143900000Y-75040000D03*
G04 #@! TO.P,U7,14*
G04 #@! TO.N,+5V*
X151520000Y-59800000D03*
G04 #@! TD*
D18*
G04 #@! TO.P,X-J1,1*
G04 #@! TO.N,Net-(R1-Pad2)*
X167770000Y-113480000D03*
D19*
G04 #@! TO.P,X-J1,2*
G04 #@! TO.N,Net-(J3-Pad1)*
X167770000Y-116020000D03*
G04 #@! TO.P,X-J1,3*
G04 #@! TO.N,Net-(J1-Pad3)*
X167770000Y-118560000D03*
G04 #@! TD*
D18*
G04 #@! TO.P,X-J2,1*
G04 #@! TO.N,Net-(J1-Pad2)*
X170310000Y-113480000D03*
D19*
G04 #@! TO.P,X-J2,2*
G04 #@! TO.N,Net-(R4-Pad2)*
X170310000Y-116020000D03*
G04 #@! TO.P,X-J2,3*
G04 #@! TO.N,GND*
X170310000Y-118560000D03*
G04 #@! TD*
G04 #@! TO.P,Y-J1,3*
G04 #@! TO.N,Net-(J2-Pad3)*
X167470000Y-130860000D03*
G04 #@! TO.P,Y-J1,2*
G04 #@! TO.N,Net-(J6-Pad1)*
X167470000Y-128320000D03*
D18*
G04 #@! TO.P,Y-J1,1*
G04 #@! TO.N,Net-(R2-Pad2)*
X167470000Y-125780000D03*
G04 #@! TD*
D19*
G04 #@! TO.P,Y-J2,3*
G04 #@! TO.N,GND*
X170010000Y-130860000D03*
G04 #@! TO.P,Y-J2,2*
G04 #@! TO.N,Net-(R6-Pad2)*
X170010000Y-128320000D03*
D18*
G04 #@! TO.P,Y-J2,1*
G04 #@! TO.N,Net-(J2-Pad2)*
X170010000Y-125780000D03*
G04 #@! TD*
D23*
G04 #@! TO.N,Net-(R1-Pad1)*
X146300000Y-140300000D03*
X133900000Y-130600000D03*
G04 #@! TO.N,Net-(R2-Pad1)*
X163200000Y-121400000D03*
X155500000Y-115900000D03*
X159855101Y-122258122D03*
G04 #@! TO.N,+15V*
X146700000Y-114700000D03*
X129700011Y-114300000D03*
X130700000Y-112700000D03*
G04 #@! TO.N,Net-(R6-Pad1)*
X140600000Y-111600000D03*
G04 #@! TO.N,GND*
X141100000Y-119400000D03*
X142700000Y-116800000D03*
X151080000Y-117120000D03*
X157760000Y-123500000D03*
X164800000Y-121170000D03*
G04 #@! TO.N,Net-(RV1-Pad2)*
X155000000Y-129900000D03*
G04 #@! TO.N,Net-(RV2-Pad2)*
X134100000Y-102399997D03*
X132800000Y-122200000D03*
X131800000Y-117100000D03*
G04 #@! TO.N,-15V*
X119800000Y-134100000D03*
X121200000Y-136300000D03*
X128400000Y-134400000D03*
G04 #@! TO.N,+12V*
X112675000Y-99100000D03*
X114900000Y-99100000D03*
X119800000Y-93900000D03*
X118000000Y-101200000D03*
X119400000Y-106300000D03*
G04 #@! TO.N,Net-(D1-Pad2)*
X155600000Y-80900000D03*
X159300000Y-108800000D03*
X161200000Y-113400000D03*
G04 #@! TO.N,Net-(J2-Pad3)*
X140800000Y-110200000D03*
X142400000Y-108400000D03*
X152200000Y-114300000D03*
X173315021Y-123759673D03*
X175800000Y-132780000D03*
G04 #@! TO.N,Net-(J1-Pad3)*
X157340000Y-125400000D03*
G04 #@! TO.N,/BUTTON1*
X112800000Y-108300000D03*
G04 #@! TO.N,/DT1*
X165000000Y-70800000D03*
G04 #@! TO.N,Net-(CN10-Pad7)*
X127570000Y-77330000D03*
X149000000Y-67500000D03*
G04 #@! TO.N,/LATCH*
X128700000Y-76300000D03*
X132900000Y-81700000D03*
G04 #@! TO.N,/JOY1Y*
X111270623Y-127825088D03*
X110900000Y-132900000D03*
G04 #@! TO.N,/JOY2X*
X104600000Y-111900000D03*
X105400000Y-124300000D03*
X117700000Y-134100000D03*
G04 #@! TO.N,/JOY2Y*
X111349999Y-113600000D03*
X121750010Y-127400000D03*
G04 #@! TO.N,/LASER_TOGGLE*
X140400000Y-92300000D03*
X136200000Y-104700000D03*
X129900000Y-117700000D03*
X119200000Y-118500000D03*
G04 #@! TO.N,/CLK1*
X140400000Y-103300000D03*
X134100000Y-103400000D03*
X123000000Y-119800000D03*
X119300000Y-115900000D03*
X120000000Y-114100000D03*
X117200000Y-113055001D03*
X117100000Y-111400000D03*
G04 #@! TO.N,/DT2*
X161200000Y-63000000D03*
X140500000Y-68000000D03*
X135600000Y-75800000D03*
G04 #@! TO.N,/CLK2*
X155300000Y-65000000D03*
G04 #@! TO.N,Net-(J3-Pad1)*
X113400000Y-75800000D03*
X113200000Y-100400000D03*
X160090000Y-111340000D03*
X151560000Y-102990000D03*
X140770000Y-101620000D03*
X140770000Y-98810000D03*
X129590000Y-100060000D03*
G04 #@! TO.N,Net-(J6-Pad1)*
X126100000Y-74700000D03*
X126200000Y-83700000D03*
X159000000Y-98900000D03*
X166940000Y-101010000D03*
G04 #@! TO.N,Net-(R2-Pad2)*
X172590021Y-120034989D03*
G04 #@! TO.N,Net-(R4-Pad2)*
X146400000Y-124300000D03*
X150700000Y-124800000D03*
X167980000Y-121030000D03*
X158047002Y-116650000D03*
X152140000Y-119610000D03*
X150760000Y-121780000D03*
G04 #@! TO.N,Net-(R6-Pad2)*
X164620000Y-98990000D03*
X164320000Y-103280000D03*
X159670000Y-106210000D03*
X154360000Y-111930000D03*
X155430000Y-117180000D03*
X161183112Y-123007142D03*
G04 #@! TO.N,Net-(Rotary1-Pad3)*
X107300000Y-123500000D03*
X110100000Y-124200000D03*
X117600000Y-121800000D03*
X120400000Y-124600000D03*
X119500000Y-111300000D03*
X125625000Y-111424993D03*
X125625000Y-114000000D03*
G04 #@! TO.N,Net-(Rotary2-Pad5)*
X124520000Y-97600000D03*
X126600000Y-99900000D03*
X128300000Y-101800000D03*
X129900000Y-110700000D03*
X132600000Y-113600000D03*
X126400000Y-119200000D03*
X127500000Y-123800000D03*
G04 #@! TO.N,Net-(Rotary2-Pad3)*
X123800000Y-129300000D03*
G04 #@! TD*
D24*
G04 #@! TO.N,Net-(R1-Pad1)*
X136600000Y-132200000D02*
X144700000Y-140300000D01*
X144700000Y-140300000D02*
X146300000Y-140300000D01*
X135500000Y-132200000D02*
X136600000Y-132200000D01*
X133900000Y-130600000D02*
X135500000Y-132200000D01*
G04 #@! TO.N,Net-(R2-Pad1)*
X153600001Y-113100001D02*
X154300000Y-113800000D01*
X146274999Y-105774999D02*
X153600001Y-113100001D01*
X131065001Y-105774999D02*
X146274999Y-105774999D01*
X127400000Y-109440000D02*
X131065001Y-105774999D01*
X163200000Y-128620198D02*
X163200000Y-121400000D01*
X177000000Y-144100000D02*
X177000000Y-142420198D01*
X177000000Y-142420198D02*
X163200000Y-128620198D01*
X159855101Y-120255101D02*
X159855101Y-121692437D01*
X159855101Y-121692437D02*
X159855101Y-122258122D01*
X155500000Y-115900000D02*
X159855101Y-120255101D01*
G04 #@! TO.N,+15V*
X134220001Y-107699999D02*
X135020000Y-106900000D01*
X126859999Y-113105001D02*
X128814999Y-113105001D01*
X126084999Y-112330001D02*
X126859999Y-113105001D01*
X108249999Y-112330001D02*
X126084999Y-112330001D01*
X107400000Y-113180000D02*
X108249999Y-112330001D01*
X135020000Y-106900000D02*
X138900000Y-106900000D01*
X138900000Y-106900000D02*
X146700000Y-114700000D01*
X145850000Y-116820000D02*
X143310000Y-119360000D01*
X148390000Y-116820000D02*
X145850000Y-116820000D01*
X147690001Y-132630001D02*
X148390000Y-133330000D01*
X147364999Y-132304999D02*
X147690001Y-132630001D01*
X147364999Y-123414999D02*
X147364999Y-132304999D01*
X143310000Y-119360000D02*
X147364999Y-123414999D01*
X128814999Y-113105001D02*
X128814999Y-113414988D01*
X128814999Y-113414988D02*
X129700011Y-114300000D01*
X130700000Y-111220000D02*
X135020000Y-106900000D01*
X130700000Y-112700000D02*
X130700000Y-111220000D01*
G04 #@! TO.N,Net-(R5-Pad2)*
X137135001Y-145235001D02*
X143718411Y-145235001D01*
X136000000Y-144100000D02*
X137135001Y-145235001D01*
X143718411Y-145235001D02*
X160825001Y-128128411D01*
X160825001Y-128128411D02*
X160825001Y-125164950D01*
X160825001Y-125164950D02*
X153470000Y-117809949D01*
X153470000Y-117809949D02*
X153470000Y-116820000D01*
G04 #@! TO.N,Net-(R6-Pad1)*
X135400000Y-111600000D02*
X135020000Y-111980000D01*
X140600000Y-111600000D02*
X135400000Y-111600000D01*
G04 #@! TO.N,GND*
X109300000Y-129425000D02*
X109300000Y-129300000D01*
X108124990Y-130600010D02*
X109300000Y-129425000D01*
X103813295Y-130600010D02*
X108124990Y-130600010D01*
X103124990Y-129911705D02*
X103813295Y-130600010D01*
X107018588Y-118260000D02*
X103124990Y-122153598D01*
X103124990Y-122153598D02*
X103124990Y-129911705D01*
X107400000Y-118260000D02*
X107018588Y-118260000D01*
X105400000Y-139075000D02*
X104300000Y-140175000D01*
X104300000Y-140175000D02*
X104300000Y-140300000D01*
X109300000Y-135300000D02*
X105525000Y-139075000D01*
X105525000Y-139075000D02*
X105400000Y-139075000D01*
X109300000Y-129300000D02*
X109300000Y-135300000D01*
X121300000Y-140175000D02*
X121300000Y-140300000D01*
X116425000Y-135300000D02*
X121300000Y-140175000D01*
X109300000Y-135300000D02*
X116425000Y-135300000D01*
X126300000Y-129425000D02*
X126300000Y-129300000D01*
X120425000Y-135300000D02*
X126300000Y-129425000D01*
X116425000Y-135300000D02*
X120425000Y-135300000D01*
X126300000Y-127300000D02*
X115000000Y-116000000D01*
X126300000Y-129300000D02*
X126300000Y-127300000D01*
X126300000Y-127300000D02*
X126300000Y-123240000D01*
X140900001Y-114699999D02*
X141700000Y-113900000D01*
X136151370Y-114520000D02*
X136656371Y-115025001D01*
X140574999Y-115025001D02*
X140900001Y-114699999D01*
X136656371Y-115025001D02*
X140574999Y-115025001D01*
X135020000Y-114520000D02*
X136151370Y-114520000D01*
X126465001Y-123074999D02*
X128925001Y-123074999D01*
X126300000Y-123240000D02*
X126465001Y-123074999D01*
X128925001Y-123074999D02*
X135400000Y-116600000D01*
X135020000Y-116220000D02*
X135020000Y-114520000D01*
X135400000Y-116600000D02*
X135020000Y-116220000D01*
X141100000Y-119400000D02*
X141100000Y-118400000D01*
X141100000Y-118400000D02*
X142700000Y-116800000D01*
X151080000Y-117120000D02*
X157460000Y-123500000D01*
X157460000Y-123500000D02*
X157760000Y-123500000D01*
X164800000Y-119300000D02*
X163590000Y-118090000D01*
X164800000Y-121170000D02*
X164800000Y-119300000D01*
X171512081Y-118560000D02*
X170310000Y-118560000D01*
X173315022Y-119686988D02*
X172188034Y-118560000D01*
X173315022Y-120382990D02*
X173315022Y-119686988D01*
X172938022Y-120759990D02*
X173315022Y-120382990D01*
X168645001Y-124357009D02*
X172242020Y-120759990D01*
X168645001Y-128884001D02*
X168645001Y-124357009D01*
X172188034Y-118560000D02*
X171512081Y-118560000D01*
X168034001Y-129495001D02*
X168645001Y-128884001D01*
X166905999Y-129495001D02*
X168034001Y-129495001D01*
X164800000Y-127389002D02*
X166905999Y-129495001D01*
X172242020Y-120759990D02*
X172938022Y-120759990D01*
X164800000Y-119300000D02*
X164800000Y-127389002D01*
X172188034Y-118311966D02*
X172840000Y-117660000D01*
X172188034Y-118560000D02*
X172188034Y-118311966D01*
X172700000Y-117800000D02*
X172840000Y-117660000D01*
X172840000Y-117660000D02*
X175800000Y-114700000D01*
G04 #@! TO.N,Net-(RV1-Pad2)*
X150544999Y-134355001D02*
X155000000Y-129900000D01*
X135690000Y-124440000D02*
X145605001Y-134355001D01*
X145605001Y-134355001D02*
X150544999Y-134355001D01*
G04 #@! TO.N,Net-(RV2-Pad2)*
X138500000Y-141600000D02*
X132800000Y-135900000D01*
X132800000Y-135900000D02*
X132800000Y-122200000D01*
X133325001Y-115574999D02*
X133325001Y-113251999D01*
X131800000Y-117100000D02*
X133325001Y-115574999D01*
X133325001Y-113251999D02*
X132948001Y-112874999D01*
X132251999Y-112874999D02*
X131000000Y-114126998D01*
X132948001Y-112874999D02*
X132251999Y-112874999D01*
X128853002Y-111980000D02*
X127400000Y-111980000D01*
X131000000Y-114126998D02*
X128853002Y-111980000D01*
G04 #@! TO.N,+5V*
X118800000Y-142069002D02*
X118800000Y-141375000D01*
X117644001Y-143225001D02*
X118800000Y-142069002D01*
X104725001Y-143225001D02*
X117644001Y-143225001D01*
X118800000Y-141375000D02*
X118800000Y-140300000D01*
X101800000Y-140300000D02*
X104725001Y-143225001D01*
X114904588Y-103300000D02*
X115000000Y-103300000D01*
X99274999Y-118929589D02*
X114904588Y-103300000D01*
X99274999Y-137061714D02*
X99274999Y-118929589D01*
X103813295Y-141600010D02*
X99274999Y-137061714D01*
X112286705Y-141600010D02*
X103813295Y-141600010D01*
X113586715Y-140300000D02*
X112286705Y-141600010D01*
X118800000Y-140300000D02*
X113586715Y-140300000D01*
X114074999Y-83275001D02*
X114150000Y-83200000D01*
X114074999Y-101324999D02*
X114074999Y-83275001D01*
X114150000Y-83200000D02*
X115200000Y-83200000D01*
X115000000Y-102250000D02*
X114074999Y-101324999D01*
X115000000Y-103300000D02*
X115000000Y-102250000D01*
X114450000Y-60900000D02*
X115500000Y-60900000D01*
X114374999Y-60975001D02*
X114450000Y-60900000D01*
X114374999Y-81324999D02*
X114374999Y-60975001D01*
X115200000Y-82150000D02*
X114374999Y-81324999D01*
X115200000Y-83200000D02*
X115200000Y-82150000D01*
X120580000Y-60900000D02*
X123120000Y-63440000D01*
X115500000Y-60900000D02*
X120580000Y-60900000D01*
X123919999Y-67720001D02*
X123120000Y-68520000D01*
X124245001Y-67394999D02*
X123919999Y-67720001D01*
X124245001Y-64565001D02*
X124245001Y-67394999D01*
X123120000Y-63440000D02*
X124245001Y-64565001D01*
X128700001Y-85520001D02*
X129500000Y-86320000D01*
X127794999Y-84614999D02*
X128700001Y-85520001D01*
X117664999Y-84614999D02*
X127794999Y-84614999D01*
X116250000Y-83200000D02*
X117664999Y-84614999D01*
X115200000Y-83200000D02*
X116250000Y-83200000D01*
X130299999Y-85520001D02*
X137120000Y-78700000D01*
X129500000Y-86320000D02*
X130299999Y-85520001D01*
X150720001Y-60599999D02*
X151520000Y-59800000D01*
X150394999Y-60925001D02*
X150720001Y-60599999D01*
X150394999Y-67670003D02*
X150394999Y-60925001D01*
X144440001Y-73625001D02*
X150394999Y-67670003D01*
X142194999Y-73625001D02*
X144440001Y-73625001D01*
X137120000Y-78700000D02*
X142194999Y-73625001D01*
X159800000Y-126689949D02*
X159800000Y-125700000D01*
X159800000Y-128517002D02*
X159800000Y-126689949D01*
X121235001Y-142735001D02*
X145582001Y-142735001D01*
X145582001Y-142735001D02*
X159800000Y-128517002D01*
X118800000Y-140300000D02*
X121235001Y-142735001D01*
G04 #@! TO.N,-15V*
X124794999Y-117125001D02*
X126600001Y-115319999D01*
X126600001Y-115319999D02*
X127400000Y-114520000D01*
X119829997Y-114874999D02*
X122079999Y-117125001D01*
X122079999Y-117125001D02*
X124794999Y-117125001D01*
X113874999Y-115459999D02*
X114459999Y-114874999D01*
X113874999Y-116540001D02*
X113874999Y-115459999D01*
X122475010Y-125140012D02*
X113874999Y-116540001D01*
X122475010Y-129911705D02*
X122475010Y-125140012D01*
X114459999Y-114874999D02*
X119829997Y-114874999D01*
X121786705Y-130600010D02*
X122475010Y-129911705D01*
X108161810Y-120800000D02*
X117961820Y-130600010D01*
X107400000Y-120800000D02*
X108161810Y-120800000D01*
X120700000Y-130600010D02*
X120700000Y-133200000D01*
X120700000Y-133200000D02*
X119800000Y-134100000D01*
X120700000Y-130600010D02*
X121786705Y-130600010D01*
X117961820Y-130600010D02*
X120700000Y-130600010D01*
X121200000Y-136300000D02*
X126500000Y-136300000D01*
X126500000Y-136300000D02*
X128400000Y-134400000D01*
G04 #@! TO.N,+12V*
X104300000Y-121614998D02*
X104300000Y-128075000D01*
X104300000Y-128075000D02*
X104300000Y-129300000D01*
X106479997Y-119435001D02*
X104300000Y-121614998D01*
X107964001Y-119435001D02*
X106479997Y-119435001D01*
X108575001Y-118824001D02*
X107964001Y-119435001D01*
X108575001Y-116895001D02*
X108575001Y-118824001D01*
X107400000Y-115720000D02*
X108575001Y-116895001D01*
X120980000Y-129300000D02*
X121300000Y-129300000D01*
X107400000Y-115720000D02*
X120980000Y-129300000D01*
X118954999Y-109505001D02*
X121820001Y-106639999D01*
X109335997Y-109505001D02*
X118954999Y-109505001D01*
X106224999Y-112615999D02*
X109335997Y-109505001D01*
X121820001Y-106639999D02*
X122620000Y-105840000D01*
X106224999Y-113744001D02*
X106224999Y-112615999D01*
X108200998Y-115720000D02*
X106224999Y-113744001D01*
X107400000Y-115720000D02*
X108200998Y-115720000D01*
X110380000Y-87490000D02*
X112675000Y-89785000D01*
X112675000Y-89785000D02*
X112675000Y-99100000D01*
X114900000Y-99100000D02*
X119800000Y-94200000D01*
X119800000Y-94200000D02*
X119800000Y-93900000D01*
X114900000Y-99100000D02*
X115900000Y-99100000D01*
X115900000Y-99100000D02*
X118000000Y-101200000D01*
X122160000Y-106300000D02*
X122620000Y-105840000D01*
X119400000Y-106300000D02*
X122160000Y-106300000D01*
G04 #@! TO.N,Net-(C2-Pad1)*
X130299999Y-80440001D02*
X129500000Y-81240000D01*
X133975001Y-76764999D02*
X130299999Y-80440001D01*
X133975001Y-62775001D02*
X133975001Y-76764999D01*
X132400000Y-61200000D02*
X133975001Y-62775001D01*
G04 #@! TO.N,Net-(D1-Pad1)*
X136800000Y-65100000D02*
X137800000Y-65100000D01*
X134900000Y-63200000D02*
X136800000Y-65100000D01*
X134900000Y-58700000D02*
X134900000Y-63200000D01*
G04 #@! TO.N,Net-(D1-Pad2)*
X163055010Y-105044990D02*
X159300000Y-108800000D01*
X155600000Y-80900000D02*
X163055010Y-88355010D01*
X163055010Y-88355010D02*
X163055010Y-105044990D01*
X162215001Y-128364999D02*
X160499999Y-130080001D01*
X160499999Y-130080001D02*
X159800000Y-130780000D01*
X162215001Y-114415001D02*
X162215001Y-128364999D01*
X161200000Y-113400000D02*
X162215001Y-114415001D01*
G04 #@! TO.N,Net-(D2-Pad2)*
X129900000Y-62280000D02*
X132900000Y-65280000D01*
X129900000Y-58700000D02*
X129900000Y-62280000D01*
G04 #@! TO.N,Net-(J2-Pad3)*
X135020000Y-109440000D02*
X140040000Y-109440000D01*
X140040000Y-109440000D02*
X140800000Y-110200000D01*
X142400000Y-108400000D02*
X148300000Y-114300000D01*
X148300000Y-114300000D02*
X152200000Y-114300000D01*
X173315021Y-123759673D02*
X173315021Y-130295021D01*
X173315021Y-130295021D02*
X175800000Y-132780000D01*
G04 #@! TO.N,Net-(J1-Pad3)*
X154865001Y-122925001D02*
X157340000Y-125400000D01*
X148390000Y-121900000D02*
X149415001Y-122925001D01*
X149415001Y-122925001D02*
X154865001Y-122925001D01*
G04 #@! TO.N,Net-(J1-Pad2)*
X176649999Y-116390001D02*
X175800000Y-117240000D01*
X176975001Y-116064999D02*
X176649999Y-116390001D01*
X176975001Y-113589999D02*
X176975001Y-116064999D01*
X176865002Y-113480000D02*
X176975001Y-113589999D01*
X170310000Y-113480000D02*
X176865002Y-113480000D01*
G04 #@! TO.N,Net-(CN10-Pad11)*
X169875001Y-70824999D02*
X169549999Y-71150001D01*
X170675999Y-68095001D02*
X169875001Y-68895999D01*
X171430401Y-57114989D02*
X172865011Y-58549599D01*
X129168799Y-57114989D02*
X171430401Y-57114989D01*
X127119991Y-59163797D02*
X129168799Y-57114989D01*
X171804001Y-68095001D02*
X170675999Y-68095001D01*
X172865011Y-67033991D02*
X171804001Y-68095001D01*
X127119990Y-72000000D02*
X127119991Y-59163797D01*
X172865011Y-58549599D02*
X172865011Y-67033991D01*
X124104991Y-75014999D02*
X127119990Y-72000000D01*
X122579999Y-75014999D02*
X124104991Y-75014999D01*
X169549999Y-71150001D02*
X168700000Y-72000000D01*
X169875001Y-68895999D02*
X169875001Y-70824999D01*
X121994999Y-75599999D02*
X122579999Y-75014999D01*
X121994999Y-75014999D02*
X121994999Y-75599999D01*
X115500000Y-68520000D02*
X121994999Y-75014999D01*
G04 #@! TO.N,/BUTTON1*
X113845001Y-107254999D02*
X112800000Y-108300000D01*
X117790003Y-104714999D02*
X115250003Y-107254999D01*
X123759228Y-104113734D02*
X123157963Y-104714999D01*
X137800000Y-90600000D02*
X126749231Y-101650769D01*
X160350009Y-70189991D02*
X160350009Y-72966401D01*
X145325001Y-87991409D02*
X145325001Y-89020001D01*
X123157963Y-104714999D02*
X117790003Y-104714999D01*
X145325001Y-89020001D02*
X144740001Y-89605001D01*
X115250003Y-107254999D02*
X113845001Y-107254999D01*
X168700000Y-61840000D02*
X160350009Y-70189991D01*
X160350009Y-72966401D02*
X145325001Y-87991409D01*
X143694999Y-89605001D02*
X144740001Y-89605001D01*
X142700000Y-90600000D02*
X143694999Y-89605001D01*
X137800000Y-90600000D02*
X142700000Y-90600000D01*
X126749231Y-101650769D02*
X126249231Y-101650769D01*
X123786266Y-104113734D02*
X126249231Y-101650769D01*
X123759228Y-104113734D02*
X123786266Y-104113734D01*
G04 #@! TO.N,/DT1*
X132900001Y-87939999D02*
X115000000Y-105840000D01*
X143659999Y-87354999D02*
X143074999Y-87939999D01*
X144688591Y-87354999D02*
X143659999Y-87354999D01*
X158724999Y-73318591D02*
X144688591Y-87354999D01*
X158724999Y-58489999D02*
X158724999Y-73318591D01*
X161010001Y-58424999D02*
X158789999Y-58424999D01*
X143074999Y-87939999D02*
X132900001Y-87939999D01*
X161075001Y-58489999D02*
X161010001Y-58424999D01*
X161075001Y-60710001D02*
X161075001Y-58489999D01*
X160350010Y-61434992D02*
X161075001Y-60710001D01*
X158789999Y-58424999D02*
X158724999Y-58489999D01*
X160350010Y-68450988D02*
X160350010Y-61434992D01*
X168135999Y-60664999D02*
X160350010Y-68450988D01*
X169264001Y-60664999D02*
X168135999Y-60664999D01*
X169875001Y-61275999D02*
X169264001Y-60664999D01*
X169875001Y-62404001D02*
X169875001Y-61275999D01*
X169264001Y-63015001D02*
X169875001Y-62404001D01*
X168161409Y-63015001D02*
X169264001Y-63015001D01*
X165000000Y-66176410D02*
X168161409Y-63015001D01*
X165000000Y-70800000D02*
X165000000Y-66176410D01*
G04 #@! TO.N,Net-(CN10-Pad7)*
X145125001Y-71374999D02*
X149000000Y-67500000D01*
X143359999Y-71374999D02*
X145125001Y-71374999D01*
X137783599Y-76951399D02*
X143359999Y-71374999D01*
X127570000Y-59350198D02*
X129355199Y-57564999D01*
X127570000Y-77330000D02*
X127570000Y-59350198D01*
X134425011Y-61545209D02*
X134425011Y-76951399D01*
X134425011Y-76951399D02*
X137783599Y-76951399D01*
X129355199Y-57564999D02*
X130444801Y-57564999D01*
X130444801Y-57564999D02*
X134425011Y-61545209D01*
G04 #@! TO.N,/LATCH*
X132234999Y-82365001D02*
X132900000Y-81700000D01*
X128959999Y-82365001D02*
X132234999Y-82365001D01*
X128300001Y-81705003D02*
X128959999Y-82365001D01*
X128700000Y-76300000D02*
X128300001Y-76699999D01*
X128300001Y-76699999D02*
X128300001Y-81705003D01*
G04 #@! TO.N,/JOY1Y*
X111270623Y-127825088D02*
X110624990Y-128470721D01*
X110624990Y-132624990D02*
X110900000Y-132900000D01*
X110624990Y-128470721D02*
X110624990Y-132624990D01*
G04 #@! TO.N,/JOY2X*
X109204999Y-107295001D02*
X104600000Y-111900000D01*
X110380000Y-97650000D02*
X109204999Y-98825001D01*
X109204999Y-98825001D02*
X109204999Y-107295001D01*
X117700000Y-133181463D02*
X117700000Y-134100000D01*
X105400000Y-124300000D02*
X108818537Y-124300000D01*
X108818537Y-124300000D02*
X117700000Y-133181463D01*
G04 #@! TO.N,/JOY2Y*
X111349999Y-113600000D02*
X111349999Y-116999989D01*
X111349999Y-116999989D02*
X121750010Y-127400000D01*
G04 #@! TO.N,/LASER_TOGGLE*
X154247000Y-92300000D02*
X160021999Y-98074999D01*
X140400000Y-92300000D02*
X154247000Y-92300000D01*
X160021999Y-98074999D02*
X162072001Y-98074999D01*
X157497002Y-104700000D02*
X136200000Y-104700000D01*
X162072001Y-98074999D02*
X162605001Y-98607999D01*
X162605001Y-98607999D02*
X162605001Y-99592001D01*
X162605001Y-99592001D02*
X157497002Y-104700000D01*
X121225001Y-120525001D02*
X119200000Y-118500000D01*
X129900000Y-117700000D02*
X127074999Y-120525001D01*
X127074999Y-120525001D02*
X121225001Y-120525001D01*
G04 #@! TO.N,/CLK1*
X140400000Y-103300000D02*
X134200000Y-103300000D01*
X134200000Y-103300000D02*
X134100000Y-103400000D01*
X123000000Y-119800000D02*
X119300000Y-116100000D01*
X119300000Y-116100000D02*
X119300000Y-115900000D01*
X120000000Y-114100000D02*
X118955001Y-113055001D01*
X118955001Y-113055001D02*
X117200000Y-113055001D01*
X115480000Y-111400000D02*
X115000000Y-110920000D01*
X117100000Y-111400000D02*
X115480000Y-111400000D01*
G04 #@! TO.N,/JOY2BUTTON*
X128800000Y-139075000D02*
X128800000Y-140300000D01*
X129975010Y-137899990D02*
X128800000Y-139075000D01*
X137069999Y-115794999D02*
X129975010Y-122889988D01*
X129975010Y-122889988D02*
X129975010Y-137899990D01*
X153822003Y-115794999D02*
X137069999Y-115794999D01*
X165725001Y-70695997D02*
X165725001Y-103892001D01*
X165725001Y-103892001D02*
X153822003Y-115794999D01*
X168135999Y-68284999D02*
X165725001Y-70695997D01*
X169074003Y-68284999D02*
X168135999Y-68284999D01*
X169875001Y-67484001D02*
X169074003Y-68284999D01*
X169875001Y-66424999D02*
X169875001Y-67484001D01*
X170390001Y-65909999D02*
X169875001Y-66424999D01*
X170390001Y-65229999D02*
X170390001Y-65909999D01*
X171240000Y-64380000D02*
X170390001Y-65229999D01*
G04 #@! TO.N,/BUTTON2*
X116325001Y-92234999D02*
X115999999Y-92560001D01*
X127968591Y-92234999D02*
X116325001Y-92234999D01*
X132713600Y-87489990D02*
X127968591Y-92234999D01*
X146592181Y-84814999D02*
X143659999Y-84814999D01*
X158274989Y-58303599D02*
X158274989Y-73132191D01*
X171353991Y-57674989D02*
X158903599Y-57674989D01*
X115999999Y-92560001D02*
X115200000Y-93360000D01*
X140985008Y-87489990D02*
X132713600Y-87489990D01*
X158274989Y-73132191D02*
X146592181Y-84814999D01*
X172415001Y-58735999D02*
X171353991Y-57674989D01*
X158903599Y-57674989D02*
X158274989Y-58303599D01*
X172415001Y-62404001D02*
X172415001Y-58735999D01*
X171804001Y-63015001D02*
X172415001Y-62404001D01*
X143659999Y-84814999D02*
X140985008Y-87489990D01*
X170675999Y-63015001D02*
X171804001Y-63015001D01*
X165725001Y-67965999D02*
X170675999Y-63015001D01*
X165725001Y-67354999D02*
X165725001Y-67965999D01*
X168700000Y-64380000D02*
X165725001Y-67354999D01*
G04 #@! TO.N,/DT2*
X171240000Y-59300000D02*
X170064999Y-58124999D01*
X166075001Y-58124999D02*
X161200000Y-63000000D01*
X170064999Y-58124999D02*
X166075001Y-58124999D01*
X140500000Y-68000000D02*
X135600000Y-72900000D01*
X135600000Y-72900000D02*
X135600000Y-75800000D01*
G04 #@! TO.N,/CLK2*
X115999999Y-90020001D02*
X115200000Y-90820000D01*
X116325001Y-89694999D02*
X115999999Y-90020001D01*
X127790003Y-89694999D02*
X116325001Y-89694999D01*
X132290003Y-85194999D02*
X127790003Y-89694999D01*
X137370003Y-85194999D02*
X132290003Y-85194999D01*
X140290003Y-82274999D02*
X137370003Y-85194999D01*
X145950003Y-82274999D02*
X140290003Y-82274999D01*
X155300000Y-72925002D02*
X145950003Y-82274999D01*
X155300000Y-65000000D02*
X155300000Y-72925002D01*
G04 #@! TO.N,Net-(J3-Pad1)*
X113400000Y-75800000D02*
X113400000Y-100200000D01*
X113400000Y-100200000D02*
X113200000Y-100400000D01*
X167770000Y-116020000D02*
X163090000Y-111340000D01*
X163090000Y-111340000D02*
X160090000Y-111340000D01*
X151560000Y-102990000D02*
X142140000Y-102990000D01*
X142140000Y-102990000D02*
X140770000Y-101620000D01*
X140770000Y-98810000D02*
X131280000Y-98810000D01*
X131280000Y-98810000D02*
X130840000Y-98810000D01*
X130840000Y-98810000D02*
X129590000Y-100060000D01*
G04 #@! TO.N,Net-(J6-Pad1)*
X126100000Y-74700000D02*
X126100000Y-83600000D01*
X126100000Y-83600000D02*
X126200000Y-83700000D01*
X157325001Y-97225001D02*
X159000000Y-98900000D01*
X139125001Y-97225001D02*
X157325001Y-97225001D01*
X137200000Y-96400000D02*
X138300000Y-96400000D01*
X138300000Y-96400000D02*
X139125001Y-97225001D01*
X166620001Y-127470001D02*
X167470000Y-128320000D01*
X166294999Y-127144999D02*
X166620001Y-127470001D01*
X166294999Y-124669999D02*
X166294999Y-127144999D01*
X168945001Y-122019997D02*
X166294999Y-124669999D01*
X168945001Y-112369999D02*
X168945001Y-122019997D01*
X166540001Y-109964999D02*
X168945001Y-112369999D01*
X166540001Y-101409999D02*
X166540001Y-109964999D01*
X166940000Y-101010000D02*
X166540001Y-101409999D01*
G04 #@! TO.N,Net-(J7-Pad1)*
X159900000Y-72780000D02*
X144200000Y-88480000D01*
X159900000Y-59600000D02*
X159900000Y-72780000D01*
G04 #@! TO.N,Net-(R2-Pad2)*
X172115011Y-120034989D02*
X172590021Y-120034989D01*
X167470000Y-124680000D02*
X172115011Y-120034989D01*
X167470000Y-125780000D02*
X167470000Y-124680000D01*
G04 #@! TO.N,Net-(R4-Pad2)*
X146400000Y-123324998D02*
X146400000Y-124300000D01*
X143850001Y-120774999D02*
X146400000Y-123324998D01*
X138154999Y-120774999D02*
X143850001Y-120774999D01*
X135690000Y-119360000D02*
X136740000Y-119360000D01*
X136740000Y-119360000D02*
X138154999Y-120774999D01*
X153470000Y-127570000D02*
X153470000Y-128250000D01*
X150700000Y-124800000D02*
X153470000Y-127570000D01*
X160474999Y-114222003D02*
X158047002Y-116650000D01*
X160474999Y-113051999D02*
X160474999Y-114222003D01*
X164715001Y-117765001D02*
X164715001Y-115841999D01*
X167980000Y-121030000D02*
X164715001Y-117765001D01*
X164715001Y-115841999D02*
X161548001Y-112674999D01*
X161548001Y-112674999D02*
X160851999Y-112674999D01*
X160851999Y-112674999D02*
X160474999Y-113051999D01*
X152140000Y-119610000D02*
X152140000Y-120400000D01*
X152140000Y-120400000D02*
X150760000Y-121780000D01*
G04 #@! TO.N,Net-(R6-Pad2)*
X160880001Y-99799999D02*
X161580000Y-99100000D01*
X160554999Y-100125001D02*
X160880001Y-99799999D01*
X135224999Y-100125001D02*
X160554999Y-100125001D01*
X128450000Y-106900000D02*
X135224999Y-100125001D01*
X127400000Y-106900000D02*
X128450000Y-106900000D01*
X164620000Y-98990000D02*
X164620000Y-102980000D01*
X164620000Y-102980000D02*
X164320000Y-103280000D01*
X159670000Y-106210000D02*
X154360000Y-111520000D01*
X154360000Y-111520000D02*
X154360000Y-111930000D01*
X170859999Y-129169999D02*
X170010000Y-128320000D01*
X170859999Y-129579001D02*
X170859999Y-129169999D01*
X178135001Y-136854003D02*
X170859999Y-129579001D01*
X178135001Y-144644801D02*
X178135001Y-136854003D01*
X177544801Y-145235001D02*
X178135001Y-144644801D01*
X176455199Y-145235001D02*
X177544801Y-145235001D01*
X174500000Y-143279802D02*
X176455199Y-145235001D01*
X174500000Y-141600000D02*
X174500000Y-143279802D01*
X155430000Y-118904685D02*
X159532457Y-123007142D01*
X159532457Y-123007142D02*
X160617427Y-123007142D01*
X160617427Y-123007142D02*
X161183112Y-123007142D01*
X155430000Y-117180000D02*
X155430000Y-118904685D01*
G04 #@! TO.N,Net-(Rotary1-Pad3)*
X107300000Y-123500000D02*
X109400000Y-123500000D01*
X109400000Y-123500000D02*
X110100000Y-124200000D01*
X117600000Y-121800000D02*
X120400000Y-124600000D01*
X123995006Y-109794999D02*
X125625000Y-111424993D01*
X119500000Y-111300000D02*
X121005001Y-109794999D01*
X121005001Y-109794999D02*
X123995006Y-109794999D01*
X123160000Y-114000000D02*
X122620000Y-113460000D01*
X125625000Y-114000000D02*
X123160000Y-114000000D01*
G04 #@! TO.N,Net-(Rotary2-Pad5)*
X124520000Y-97600000D02*
X126600000Y-99680000D01*
X126600000Y-99680000D02*
X126600000Y-99900000D01*
X126994998Y-110700000D02*
X129900000Y-110700000D01*
X128300000Y-101800000D02*
X126274999Y-103825001D01*
X126274999Y-109980001D02*
X126994998Y-110700000D01*
X126274999Y-103825001D02*
X126274999Y-109980001D01*
X132600000Y-113700000D02*
X128400000Y-117900000D01*
X127700000Y-129300000D02*
X128800000Y-129300000D01*
X127500000Y-129100000D02*
X127700000Y-129300000D01*
X127500000Y-123800000D02*
X127500000Y-129100000D01*
X127700000Y-117900000D02*
X126400000Y-119200000D01*
X128400000Y-117900000D02*
X127700000Y-117900000D01*
G04 #@! TD*
M02*
