G04 #@! TF.GenerationSoftware,KiCad,Pcbnew,5.0.1*
G04 #@! TF.CreationDate,2019-02-20T16:22:45-05:00*
G04 #@! TF.ProjectId,pongPCB,706F6E675043422E6B696361645F7063,rev?*
G04 #@! TF.SameCoordinates,Original*
G04 #@! TF.FileFunction,Copper,L2,Bot,Signal*
G04 #@! TF.FilePolarity,Positive*
%FSLAX46Y46*%
G04 Gerber Fmt 4.6, Leading zero omitted, Abs format (unit mm)*
G04 Created by KiCad (PCBNEW 5.0.1) date Wed 20 Feb 2019 04:22:45 PM EST*
%MOMM*%
%LPD*%
G01*
G04 APERTURE LIST*
G04 #@! TA.AperFunction,ComponentPad*
%ADD10C,1.600000*%
G04 #@! TD*
G04 #@! TA.AperFunction,ComponentPad*
%ADD11O,1.400000X1.400000*%
G04 #@! TD*
G04 #@! TA.AperFunction,ComponentPad*
%ADD12C,1.400000*%
G04 #@! TD*
G04 #@! TA.AperFunction,ComponentPad*
%ADD13C,1.620000*%
G04 #@! TD*
G04 #@! TA.AperFunction,ComponentPad*
%ADD14R,1.600000X1.600000*%
G04 #@! TD*
G04 #@! TA.AperFunction,ComponentPad*
%ADD15O,1.600000X1.600000*%
G04 #@! TD*
G04 #@! TA.AperFunction,ComponentPad*
%ADD16R,1.500000X1.500000*%
G04 #@! TD*
G04 #@! TA.AperFunction,ComponentPad*
%ADD17O,1.500000X1.500000*%
G04 #@! TD*
G04 #@! TA.AperFunction,ComponentPad*
%ADD18R,1.700000X1.700000*%
G04 #@! TD*
G04 #@! TA.AperFunction,ComponentPad*
%ADD19O,1.700000X1.700000*%
G04 #@! TD*
G04 #@! TA.AperFunction,ComponentPad*
%ADD20O,1.700000X1.950000*%
G04 #@! TD*
G04 #@! TA.AperFunction,Conductor*
%ADD21C,0.100000*%
G04 #@! TD*
G04 #@! TA.AperFunction,ComponentPad*
%ADD22C,1.700000*%
G04 #@! TD*
G04 #@! TA.AperFunction,ViaPad*
%ADD23C,0.800000*%
G04 #@! TD*
G04 #@! TA.AperFunction,Conductor*
%ADD24C,0.250000*%
G04 #@! TD*
G04 APERTURE END LIST*
D10*
G04 #@! TO.P,C1,1*
G04 #@! TO.N,Net-(C1-Pad1)*
X161090000Y-118090000D03*
G04 #@! TO.P,C1,2*
G04 #@! TO.N,GND*
X163590000Y-118090000D03*
G04 #@! TD*
G04 #@! TO.P,C2,2*
G04 #@! TO.N,GND*
X141700000Y-113900000D03*
G04 #@! TO.P,C2,1*
G04 #@! TO.N,Net-(C2-Pad1)*
X139200000Y-113900000D03*
G04 #@! TD*
D11*
G04 #@! TO.P,R1,2*
G04 #@! TO.N,Net-(R1-Pad2)*
X141680000Y-132200000D03*
D12*
G04 #@! TO.P,R1,1*
G04 #@! TO.N,Net-(R1-Pad1)*
X136600000Y-132200000D03*
G04 #@! TD*
D11*
G04 #@! TO.P,R2,2*
G04 #@! TO.N,Net-(R2-Pad2)*
X159380000Y-113800000D03*
D12*
G04 #@! TO.P,R2,1*
G04 #@! TO.N,Net-(R2-Pad1)*
X154300000Y-113800000D03*
G04 #@! TD*
G04 #@! TO.P,R3,1*
G04 #@! TO.N,+15V*
X148390000Y-133330000D03*
D11*
G04 #@! TO.P,R3,2*
G04 #@! TO.N,Net-(R3-Pad2)*
X153470000Y-133330000D03*
G04 #@! TD*
G04 #@! TO.P,R4,2*
G04 #@! TO.N,Net-(R4-Pad2)*
X153470000Y-128250000D03*
D12*
G04 #@! TO.P,R4,1*
G04 #@! TO.N,Net-(R4-Pad1)*
X148390000Y-128250000D03*
G04 #@! TD*
G04 #@! TO.P,R5,1*
G04 #@! TO.N,+15V*
X148390000Y-116820000D03*
D11*
G04 #@! TO.P,R5,2*
G04 #@! TO.N,Net-(R5-Pad2)*
X153470000Y-116820000D03*
G04 #@! TD*
D12*
G04 #@! TO.P,R6,1*
G04 #@! TO.N,Net-(R6-Pad1)*
X156500000Y-99100000D03*
D11*
G04 #@! TO.P,R6,2*
G04 #@! TO.N,Net-(R6-Pad2)*
X161580000Y-99100000D03*
G04 #@! TD*
G04 #@! TO.P,R7,2*
G04 #@! TO.N,Net-(R4-Pad1)*
X153470000Y-121900000D03*
D12*
G04 #@! TO.P,R7,1*
G04 #@! TO.N,Net-(J1-Pad3)*
X148390000Y-121900000D03*
G04 #@! TD*
G04 #@! TO.P,R8,1*
G04 #@! TO.N,Net-(J2-Pad3)*
X156300000Y-92500000D03*
D11*
G04 #@! TO.P,R8,2*
G04 #@! TO.N,Net-(R6-Pad1)*
X161380000Y-92500000D03*
G04 #@! TD*
D12*
G04 #@! TO.P,R9,1*
G04 #@! TO.N,+5V*
X159800000Y-125700000D03*
D11*
G04 #@! TO.P,R9,2*
G04 #@! TO.N,Net-(D1-Pad2)*
X159800000Y-130780000D03*
G04 #@! TD*
D13*
G04 #@! TO.P,RV1,3*
G04 #@! TO.N,GND*
X165000000Y-144100000D03*
G04 #@! TO.P,RV1,2*
G04 #@! TO.N,Net-(RV1-Pad2)*
X162500000Y-141600000D03*
G04 #@! TO.P,RV1,1*
G04 #@! TO.N,Net-(R3-Pad2)*
X160000000Y-144100000D03*
G04 #@! TD*
G04 #@! TO.P,RV2,3*
G04 #@! TO.N,GND*
X141000000Y-144100000D03*
G04 #@! TO.P,RV2,2*
G04 #@! TO.N,Net-(RV2-Pad2)*
X138500000Y-141600000D03*
G04 #@! TO.P,RV2,1*
G04 #@! TO.N,Net-(R5-Pad2)*
X136000000Y-144100000D03*
G04 #@! TD*
G04 #@! TO.P,RV3,1*
G04 #@! TO.N,Net-(RV3-Pad1)*
X148000000Y-144100000D03*
G04 #@! TO.P,RV3,2*
G04 #@! TO.N,Net-(R4-Pad2)*
X150500000Y-141600000D03*
G04 #@! TO.P,RV3,3*
G04 #@! TO.N,Net-(R1-Pad1)*
X153000000Y-144100000D03*
G04 #@! TD*
G04 #@! TO.P,RV4,3*
G04 #@! TO.N,Net-(R2-Pad1)*
X177000000Y-144100000D03*
G04 #@! TO.P,RV4,2*
G04 #@! TO.N,Net-(R6-Pad2)*
X174500000Y-141600000D03*
G04 #@! TO.P,RV4,1*
G04 #@! TO.N,Net-(RV4-Pad1)*
X172000000Y-144100000D03*
G04 #@! TD*
G04 #@! TO.P,RV5,1*
G04 #@! TO.N,Net-(D1-Pad1)*
X134900000Y-58700000D03*
G04 #@! TO.P,RV5,2*
G04 #@! TO.N,Net-(C2-Pad1)*
X132400000Y-61200000D03*
G04 #@! TO.P,RV5,3*
G04 #@! TO.N,Net-(D2-Pad2)*
X129900000Y-58700000D03*
G04 #@! TD*
D14*
G04 #@! TO.P,U1,1*
G04 #@! TO.N,+5V*
X115500000Y-60900000D03*
D15*
G04 #@! TO.P,U1,8*
G04 #@! TO.N,/LATCH*
X123120000Y-76140000D03*
G04 #@! TO.P,U1,2*
G04 #@! TO.N,Net-(U1-Pad2)*
X115500000Y-63440000D03*
G04 #@! TO.P,U1,9*
G04 #@! TO.N,Net-(U1-Pad9)*
X123120000Y-73600000D03*
G04 #@! TO.P,U1,3*
G04 #@! TO.N,Net-(CN10-Pad17)*
X115500000Y-65980000D03*
G04 #@! TO.P,U1,10*
G04 #@! TO.N,Net-(J6-Pad1)*
X123120000Y-71060000D03*
G04 #@! TO.P,U1,4*
G04 #@! TO.N,Net-(CN10-Pad11)*
X115500000Y-68520000D03*
G04 #@! TO.P,U1,11*
G04 #@! TO.N,+5V*
X123120000Y-68520000D03*
G04 #@! TO.P,U1,5*
G04 #@! TO.N,Net-(CN10-Pad15)*
X115500000Y-71060000D03*
G04 #@! TO.P,U1,12*
G04 #@! TO.N,GND*
X123120000Y-65980000D03*
G04 #@! TO.P,U1,6*
G04 #@! TO.N,Net-(U1-Pad6)*
X115500000Y-73600000D03*
G04 #@! TO.P,U1,13*
G04 #@! TO.N,+5V*
X123120000Y-63440000D03*
G04 #@! TO.P,U1,7*
G04 #@! TO.N,Net-(U1-Pad7)*
X115500000Y-76140000D03*
G04 #@! TO.P,U1,14*
G04 #@! TO.N,Net-(J3-Pad1)*
X123120000Y-60900000D03*
G04 #@! TD*
D14*
G04 #@! TO.P,U2,1*
G04 #@! TO.N,Net-(R4-Pad2)*
X135690000Y-119360000D03*
D15*
G04 #@! TO.P,U2,5*
G04 #@! TO.N,GND*
X143310000Y-126980000D03*
G04 #@! TO.P,U2,2*
G04 #@! TO.N,Net-(R1-Pad1)*
X135690000Y-121900000D03*
G04 #@! TO.P,U2,6*
G04 #@! TO.N,Net-(R4-Pad1)*
X143310000Y-124440000D03*
G04 #@! TO.P,U2,3*
G04 #@! TO.N,Net-(RV1-Pad2)*
X135690000Y-124440000D03*
G04 #@! TO.P,U2,7*
G04 #@! TO.N,Net-(J1-Pad3)*
X143310000Y-121900000D03*
G04 #@! TO.P,U2,4*
G04 #@! TO.N,-15V*
X135690000Y-126980000D03*
G04 #@! TO.P,U2,8*
G04 #@! TO.N,+15V*
X143310000Y-119360000D03*
G04 #@! TD*
G04 #@! TO.P,U3,12*
G04 #@! TO.N,Net-(U3-Pad12)*
X122620000Y-103300000D03*
G04 #@! TO.P,U3,6*
G04 #@! TO.N,GND*
X115000000Y-116000000D03*
G04 #@! TO.P,U3,11*
G04 #@! TO.N,+12V*
X122620000Y-105840000D03*
G04 #@! TO.P,U3,5*
G04 #@! TO.N,/BUTTON1*
X115000000Y-113460000D03*
G04 #@! TO.P,U3,10*
G04 #@! TO.N,Net-(Rotary1-Pad1)*
X122620000Y-108380000D03*
G04 #@! TO.P,U3,4*
G04 #@! TO.N,/CLK1*
X115000000Y-110920000D03*
G04 #@! TO.P,U3,9*
G04 #@! TO.N,Net-(U3-Pad9)*
X122620000Y-110920000D03*
G04 #@! TO.P,U3,3*
G04 #@! TO.N,Net-(U3-Pad3)*
X115000000Y-108380000D03*
G04 #@! TO.P,U3,8*
G04 #@! TO.N,Net-(Rotary1-Pad3)*
X122620000Y-113460000D03*
G04 #@! TO.P,U3,2*
G04 #@! TO.N,/DT1*
X115000000Y-105840000D03*
G04 #@! TO.P,U3,7*
G04 #@! TO.N,Net-(Rotary1-Pad5)*
X122620000Y-116000000D03*
D14*
G04 #@! TO.P,U3,1*
G04 #@! TO.N,+5V*
X115000000Y-103300000D03*
G04 #@! TD*
G04 #@! TO.P,U4,1*
G04 #@! TO.N,+5V*
X115200000Y-83200000D03*
D15*
G04 #@! TO.P,U4,7*
G04 #@! TO.N,Net-(Rotary2-Pad5)*
X122820000Y-95900000D03*
G04 #@! TO.P,U4,2*
G04 #@! TO.N,/DT2*
X115200000Y-85740000D03*
G04 #@! TO.P,U4,8*
G04 #@! TO.N,Net-(Rotary2-Pad3)*
X122820000Y-93360000D03*
G04 #@! TO.P,U4,3*
G04 #@! TO.N,Net-(U4-Pad3)*
X115200000Y-88280000D03*
G04 #@! TO.P,U4,9*
G04 #@! TO.N,Net-(U4-Pad9)*
X122820000Y-90820000D03*
G04 #@! TO.P,U4,4*
G04 #@! TO.N,/CLK2*
X115200000Y-90820000D03*
G04 #@! TO.P,U4,10*
G04 #@! TO.N,Net-(Rotary2-Pad1)*
X122820000Y-88280000D03*
G04 #@! TO.P,U4,5*
G04 #@! TO.N,/BUTTON2*
X115200000Y-93360000D03*
G04 #@! TO.P,U4,11*
G04 #@! TO.N,+12V*
X122820000Y-85740000D03*
G04 #@! TO.P,U4,6*
G04 #@! TO.N,GND*
X115200000Y-95900000D03*
G04 #@! TO.P,U4,12*
G04 #@! TO.N,Net-(U4-Pad12)*
X122820000Y-83200000D03*
G04 #@! TD*
D14*
G04 #@! TO.P,U5,1*
G04 #@! TO.N,Net-(R6-Pad2)*
X127400000Y-106900000D03*
D15*
G04 #@! TO.P,U5,5*
G04 #@! TO.N,GND*
X135020000Y-114520000D03*
G04 #@! TO.P,U5,2*
G04 #@! TO.N,Net-(R2-Pad1)*
X127400000Y-109440000D03*
G04 #@! TO.P,U5,6*
G04 #@! TO.N,Net-(R6-Pad1)*
X135020000Y-111980000D03*
G04 #@! TO.P,U5,3*
G04 #@! TO.N,Net-(RV2-Pad2)*
X127400000Y-111980000D03*
G04 #@! TO.P,U5,7*
G04 #@! TO.N,Net-(J2-Pad3)*
X135020000Y-109440000D03*
G04 #@! TO.P,U5,4*
G04 #@! TO.N,-15V*
X127400000Y-114520000D03*
G04 #@! TO.P,U5,8*
G04 #@! TO.N,+15V*
X135020000Y-106900000D03*
G04 #@! TD*
G04 #@! TO.P,U6,8*
G04 #@! TO.N,+5V*
X137120000Y-78700000D03*
G04 #@! TO.P,U6,4*
X129500000Y-86320000D03*
G04 #@! TO.P,U6,7*
G04 #@! TO.N,Net-(D1-Pad2)*
X137120000Y-81240000D03*
G04 #@! TO.P,U6,3*
G04 #@! TO.N,Net-(U6-Pad3)*
X129500000Y-83780000D03*
G04 #@! TO.P,U6,6*
G04 #@! TO.N,Net-(C2-Pad1)*
X137120000Y-83780000D03*
G04 #@! TO.P,U6,2*
X129500000Y-81240000D03*
G04 #@! TO.P,U6,5*
G04 #@! TO.N,Net-(C1-Pad1)*
X137120000Y-86320000D03*
D14*
G04 #@! TO.P,U6,1*
G04 #@! TO.N,GND*
X129500000Y-78700000D03*
G04 #@! TD*
D16*
G04 #@! TO.P,D1,1*
G04 #@! TO.N,Net-(D1-Pad1)*
X137800000Y-65100000D03*
D17*
G04 #@! TO.P,D1,2*
G04 #@! TO.N,Net-(D1-Pad2)*
X137800000Y-72720000D03*
G04 #@! TD*
G04 #@! TO.P,D2,2*
G04 #@! TO.N,Net-(D2-Pad2)*
X132900000Y-65280000D03*
D16*
G04 #@! TO.P,D2,1*
G04 #@! TO.N,Net-(D1-Pad2)*
X132900000Y-72900000D03*
G04 #@! TD*
D18*
G04 #@! TO.P,CN7,1*
G04 #@! TO.N,Net-(CN7-Pad1)*
X107840000Y-59550000D03*
D19*
G04 #@! TO.P,CN7,2*
G04 #@! TO.N,Net-(CN7-Pad2)*
X110380000Y-59550000D03*
G04 #@! TO.P,CN7,3*
G04 #@! TO.N,Net-(CN7-Pad3)*
X107840000Y-62090000D03*
G04 #@! TO.P,CN7,4*
G04 #@! TO.N,Net-(CN7-Pad4)*
X110380000Y-62090000D03*
G04 #@! TO.P,CN7,5*
G04 #@! TO.N,Net-(CN7-Pad5)*
X107840000Y-64630000D03*
G04 #@! TO.P,CN7,6*
G04 #@! TO.N,Net-(CN7-Pad6)*
X110380000Y-64630000D03*
G04 #@! TO.P,CN7,7*
G04 #@! TO.N,Net-(CN7-Pad7)*
X107840000Y-67170000D03*
G04 #@! TO.P,CN7,8*
G04 #@! TO.N,Net-(CN7-Pad8)*
X110380000Y-67170000D03*
G04 #@! TO.P,CN7,9*
G04 #@! TO.N,Net-(CN7-Pad9)*
X107840000Y-69710000D03*
G04 #@! TO.P,CN7,10*
G04 #@! TO.N,Net-(CN7-Pad10)*
X110380000Y-69710000D03*
G04 #@! TO.P,CN7,11*
G04 #@! TO.N,Net-(CN7-Pad11)*
X107840000Y-72250000D03*
G04 #@! TO.P,CN7,12*
G04 #@! TO.N,Net-(CN7-Pad12)*
X110380000Y-72250000D03*
G04 #@! TO.P,CN7,13*
G04 #@! TO.N,Net-(CN7-Pad13)*
X107840000Y-74790000D03*
G04 #@! TO.P,CN7,14*
G04 #@! TO.N,Net-(CN7-Pad14)*
X110380000Y-74790000D03*
G04 #@! TO.P,CN7,15*
G04 #@! TO.N,Net-(CN7-Pad15)*
X107840000Y-77330000D03*
G04 #@! TO.P,CN7,16*
G04 #@! TO.N,Net-(CN10-Pad7)*
X110380000Y-77330000D03*
G04 #@! TO.P,CN7,17*
G04 #@! TO.N,Net-(CN7-Pad17)*
X107840000Y-79870000D03*
G04 #@! TO.P,CN7,18*
G04 #@! TO.N,Net-(CN7-Pad18)*
X110380000Y-79870000D03*
G04 #@! TO.P,CN7,19*
G04 #@! TO.N,Net-(CN7-Pad19)*
X107840000Y-82410000D03*
G04 #@! TO.P,CN7,20*
G04 #@! TO.N,Net-(CN7-Pad20)*
X110380000Y-82410000D03*
G04 #@! TO.P,CN7,21*
G04 #@! TO.N,Net-(CN7-Pad21)*
X107840000Y-84950000D03*
G04 #@! TO.P,CN7,22*
G04 #@! TO.N,GND*
X110380000Y-84950000D03*
G04 #@! TO.P,CN7,23*
G04 #@! TO.N,Net-(CN7-Pad23)*
X107840000Y-87490000D03*
G04 #@! TO.P,CN7,24*
G04 #@! TO.N,+12V*
X110380000Y-87490000D03*
G04 #@! TO.P,CN7,25*
G04 #@! TO.N,Net-(CN7-Pad25)*
X107840000Y-90030000D03*
G04 #@! TO.P,CN7,26*
G04 #@! TO.N,Net-(CN7-Pad26)*
X110380000Y-90030000D03*
G04 #@! TO.P,CN7,27*
G04 #@! TO.N,Net-(CN7-Pad27)*
X107840000Y-92570000D03*
G04 #@! TO.P,CN7,28*
G04 #@! TO.N,/JOY1X*
X110380000Y-92570000D03*
G04 #@! TO.P,CN7,29*
G04 #@! TO.N,Net-(CN7-Pad29)*
X107840000Y-95110000D03*
G04 #@! TO.P,CN7,30*
G04 #@! TO.N,/JOY1Y*
X110380000Y-95110000D03*
G04 #@! TO.P,CN7,31*
G04 #@! TO.N,Net-(CN7-Pad31)*
X107840000Y-97650000D03*
G04 #@! TO.P,CN7,32*
G04 #@! TO.N,/JOY2X*
X110380000Y-97650000D03*
G04 #@! TO.P,CN7,33*
G04 #@! TO.N,Net-(CN7-Pad33)*
X107840000Y-100190000D03*
G04 #@! TO.P,CN7,34*
G04 #@! TO.N,/JOY2Y*
X110380000Y-100190000D03*
G04 #@! TO.P,CN7,35*
G04 #@! TO.N,Net-(CN7-Pad35)*
X107840000Y-102730000D03*
G04 #@! TO.P,CN7,36*
G04 #@! TO.N,Net-(CN7-Pad36)*
X110380000Y-102730000D03*
G04 #@! TO.P,CN7,37*
G04 #@! TO.N,Net-(CN7-Pad37)*
X107840000Y-105270000D03*
G04 #@! TO.P,CN7,38*
G04 #@! TO.N,/LASER_TOGGLE*
X110380000Y-105270000D03*
G04 #@! TD*
G04 #@! TO.P,CN10,38*
G04 #@! TO.N,Net-(CN10-Pad38)*
X171240000Y-105020000D03*
G04 #@! TO.P,CN10,37*
G04 #@! TO.N,Net-(CN10-Pad37)*
X168700000Y-105020000D03*
G04 #@! TO.P,CN10,36*
G04 #@! TO.N,Net-(CN10-Pad36)*
X171240000Y-102480000D03*
G04 #@! TO.P,CN10,35*
G04 #@! TO.N,Net-(CN10-Pad35)*
X168700000Y-102480000D03*
G04 #@! TO.P,CN10,34*
G04 #@! TO.N,/JOY1BUTTON*
X171240000Y-99940000D03*
G04 #@! TO.P,CN10,33*
G04 #@! TO.N,Net-(CN10-Pad33)*
X168700000Y-99940000D03*
G04 #@! TO.P,CN10,32*
G04 #@! TO.N,Net-(CN10-Pad32)*
X171240000Y-97400000D03*
G04 #@! TO.P,CN10,31*
G04 #@! TO.N,Net-(CN10-Pad31)*
X168700000Y-97400000D03*
G04 #@! TO.P,CN10,30*
G04 #@! TO.N,Net-(CN10-Pad30)*
X171240000Y-94860000D03*
G04 #@! TO.P,CN10,29*
G04 #@! TO.N,Net-(CN10-Pad29)*
X168700000Y-94860000D03*
G04 #@! TO.P,CN10,28*
G04 #@! TO.N,Net-(CN10-Pad28)*
X171240000Y-92320000D03*
G04 #@! TO.P,CN10,27*
G04 #@! TO.N,Net-(CN10-Pad27)*
X168700000Y-92320000D03*
G04 #@! TO.P,CN10,26*
G04 #@! TO.N,Net-(CN10-Pad26)*
X171240000Y-89780000D03*
G04 #@! TO.P,CN10,25*
G04 #@! TO.N,Net-(CN10-Pad25)*
X168700000Y-89780000D03*
G04 #@! TO.P,CN10,24*
G04 #@! TO.N,Net-(CN10-Pad24)*
X171240000Y-87240000D03*
G04 #@! TO.P,CN10,23*
G04 #@! TO.N,Net-(CN10-Pad23)*
X168700000Y-87240000D03*
G04 #@! TO.P,CN10,22*
G04 #@! TO.N,/LATCH*
X171240000Y-84700000D03*
G04 #@! TO.P,CN10,21*
G04 #@! TO.N,Net-(CN10-Pad21)*
X168700000Y-84700000D03*
G04 #@! TO.P,CN10,20*
G04 #@! TO.N,Net-(CN10-Pad20)*
X171240000Y-82160000D03*
G04 #@! TO.P,CN10,19*
G04 #@! TO.N,/CLK1*
X168700000Y-82160000D03*
G04 #@! TO.P,CN10,18*
G04 #@! TO.N,Net-(CN10-Pad18)*
X171240000Y-79620000D03*
G04 #@! TO.P,CN10,17*
G04 #@! TO.N,Net-(CN10-Pad17)*
X168700000Y-79620000D03*
G04 #@! TO.P,CN10,16*
G04 #@! TO.N,Net-(CN10-Pad16)*
X171240000Y-77080000D03*
G04 #@! TO.P,CN10,15*
G04 #@! TO.N,Net-(CN10-Pad15)*
X168700000Y-77080000D03*
G04 #@! TO.P,CN10,14*
G04 #@! TO.N,Net-(CN10-Pad14)*
X171240000Y-74540000D03*
G04 #@! TO.P,CN10,13*
G04 #@! TO.N,Net-(CN10-Pad13)*
X168700000Y-74540000D03*
G04 #@! TO.P,CN10,12*
G04 #@! TO.N,Net-(CN10-Pad12)*
X171240000Y-72000000D03*
G04 #@! TO.P,CN10,11*
G04 #@! TO.N,Net-(CN10-Pad11)*
X168700000Y-72000000D03*
G04 #@! TO.P,CN10,10*
G04 #@! TO.N,Net-(CN10-Pad10)*
X171240000Y-69460000D03*
G04 #@! TO.P,CN10,9*
G04 #@! TO.N,Net-(CN10-Pad9)*
X168700000Y-69460000D03*
G04 #@! TO.P,CN10,8*
G04 #@! TO.N,Net-(CN10-Pad8)*
X171240000Y-66920000D03*
G04 #@! TO.P,CN10,7*
G04 #@! TO.N,Net-(CN10-Pad7)*
X168700000Y-66920000D03*
G04 #@! TO.P,CN10,6*
G04 #@! TO.N,/JOY2BUTTON*
X171240000Y-64380000D03*
G04 #@! TO.P,CN10,5*
G04 #@! TO.N,/BUTTON2*
X168700000Y-64380000D03*
G04 #@! TO.P,CN10,4*
G04 #@! TO.N,/DT1*
X171240000Y-61840000D03*
G04 #@! TO.P,CN10,3*
G04 #@! TO.N,/BUTTON1*
X168700000Y-61840000D03*
G04 #@! TO.P,CN10,2*
G04 #@! TO.N,/DT2*
X171240000Y-59300000D03*
D18*
G04 #@! TO.P,CN10,1*
G04 #@! TO.N,/CLK2*
X168700000Y-59300000D03*
G04 #@! TD*
G04 #@! TO.P,J1,1*
G04 #@! TO.N,GND*
X175800000Y-114700000D03*
D19*
G04 #@! TO.P,J1,2*
G04 #@! TO.N,Net-(J1-Pad2)*
X175800000Y-117240000D03*
G04 #@! TO.P,J1,3*
G04 #@! TO.N,Net-(J1-Pad3)*
X175800000Y-119780000D03*
G04 #@! TD*
G04 #@! TO.P,J2,3*
G04 #@! TO.N,Net-(J2-Pad3)*
X175800000Y-132780000D03*
G04 #@! TO.P,J2,2*
G04 #@! TO.N,Net-(J2-Pad2)*
X175800000Y-130240000D03*
D18*
G04 #@! TO.P,J2,1*
G04 #@! TO.N,GND*
X175800000Y-127700000D03*
G04 #@! TD*
G04 #@! TO.P,J3,1*
G04 #@! TO.N,Net-(J3-Pad1)*
X129080000Y-96250000D03*
G04 #@! TD*
G04 #@! TO.P,J6,1*
G04 #@! TO.N,Net-(J6-Pad1)*
X137200000Y-96400000D03*
G04 #@! TD*
G04 #@! TO.P,J7,1*
G04 #@! TO.N,Net-(J7-Pad1)*
X159900000Y-59600000D03*
G04 #@! TD*
D20*
G04 #@! TO.P,Joy1,5*
G04 #@! TO.N,/JOY1BUTTON*
X111800000Y-140300000D03*
G04 #@! TO.P,Joy1,4*
G04 #@! TO.N,/JOY1Y*
X109300000Y-140300000D03*
G04 #@! TO.P,Joy1,3*
G04 #@! TO.N,/JOY1X*
X106800000Y-140300000D03*
G04 #@! TO.P,Joy1,2*
G04 #@! TO.N,GND*
X104300000Y-140300000D03*
D21*
G04 #@! TD*
G04 #@! TO.N,+5V*
G04 #@! TO.C,Joy1*
G36*
X102424504Y-139326204D02*
X102448773Y-139329804D01*
X102472571Y-139335765D01*
X102495671Y-139344030D01*
X102517849Y-139354520D01*
X102538893Y-139367133D01*
X102558598Y-139381747D01*
X102576777Y-139398223D01*
X102593253Y-139416402D01*
X102607867Y-139436107D01*
X102620480Y-139457151D01*
X102630970Y-139479329D01*
X102639235Y-139502429D01*
X102645196Y-139526227D01*
X102648796Y-139550496D01*
X102650000Y-139575000D01*
X102650000Y-141025000D01*
X102648796Y-141049504D01*
X102645196Y-141073773D01*
X102639235Y-141097571D01*
X102630970Y-141120671D01*
X102620480Y-141142849D01*
X102607867Y-141163893D01*
X102593253Y-141183598D01*
X102576777Y-141201777D01*
X102558598Y-141218253D01*
X102538893Y-141232867D01*
X102517849Y-141245480D01*
X102495671Y-141255970D01*
X102472571Y-141264235D01*
X102448773Y-141270196D01*
X102424504Y-141273796D01*
X102400000Y-141275000D01*
X101200000Y-141275000D01*
X101175496Y-141273796D01*
X101151227Y-141270196D01*
X101127429Y-141264235D01*
X101104329Y-141255970D01*
X101082151Y-141245480D01*
X101061107Y-141232867D01*
X101041402Y-141218253D01*
X101023223Y-141201777D01*
X101006747Y-141183598D01*
X100992133Y-141163893D01*
X100979520Y-141142849D01*
X100969030Y-141120671D01*
X100960765Y-141097571D01*
X100954804Y-141073773D01*
X100951204Y-141049504D01*
X100950000Y-141025000D01*
X100950000Y-139575000D01*
X100951204Y-139550496D01*
X100954804Y-139526227D01*
X100960765Y-139502429D01*
X100969030Y-139479329D01*
X100979520Y-139457151D01*
X100992133Y-139436107D01*
X101006747Y-139416402D01*
X101023223Y-139398223D01*
X101041402Y-139381747D01*
X101061107Y-139367133D01*
X101082151Y-139354520D01*
X101104329Y-139344030D01*
X101127429Y-139335765D01*
X101151227Y-139329804D01*
X101175496Y-139326204D01*
X101200000Y-139325000D01*
X102400000Y-139325000D01*
X102424504Y-139326204D01*
X102424504Y-139326204D01*
G37*
D22*
G04 #@! TO.P,Joy1,1*
G04 #@! TO.N,+5V*
X101800000Y-140300000D03*
G04 #@! TD*
D21*
G04 #@! TO.N,+5V*
G04 #@! TO.C,Joy2*
G36*
X119424504Y-139326204D02*
X119448773Y-139329804D01*
X119472571Y-139335765D01*
X119495671Y-139344030D01*
X119517849Y-139354520D01*
X119538893Y-139367133D01*
X119558598Y-139381747D01*
X119576777Y-139398223D01*
X119593253Y-139416402D01*
X119607867Y-139436107D01*
X119620480Y-139457151D01*
X119630970Y-139479329D01*
X119639235Y-139502429D01*
X119645196Y-139526227D01*
X119648796Y-139550496D01*
X119650000Y-139575000D01*
X119650000Y-141025000D01*
X119648796Y-141049504D01*
X119645196Y-141073773D01*
X119639235Y-141097571D01*
X119630970Y-141120671D01*
X119620480Y-141142849D01*
X119607867Y-141163893D01*
X119593253Y-141183598D01*
X119576777Y-141201777D01*
X119558598Y-141218253D01*
X119538893Y-141232867D01*
X119517849Y-141245480D01*
X119495671Y-141255970D01*
X119472571Y-141264235D01*
X119448773Y-141270196D01*
X119424504Y-141273796D01*
X119400000Y-141275000D01*
X118200000Y-141275000D01*
X118175496Y-141273796D01*
X118151227Y-141270196D01*
X118127429Y-141264235D01*
X118104329Y-141255970D01*
X118082151Y-141245480D01*
X118061107Y-141232867D01*
X118041402Y-141218253D01*
X118023223Y-141201777D01*
X118006747Y-141183598D01*
X117992133Y-141163893D01*
X117979520Y-141142849D01*
X117969030Y-141120671D01*
X117960765Y-141097571D01*
X117954804Y-141073773D01*
X117951204Y-141049504D01*
X117950000Y-141025000D01*
X117950000Y-139575000D01*
X117951204Y-139550496D01*
X117954804Y-139526227D01*
X117960765Y-139502429D01*
X117969030Y-139479329D01*
X117979520Y-139457151D01*
X117992133Y-139436107D01*
X118006747Y-139416402D01*
X118023223Y-139398223D01*
X118041402Y-139381747D01*
X118061107Y-139367133D01*
X118082151Y-139354520D01*
X118104329Y-139344030D01*
X118127429Y-139335765D01*
X118151227Y-139329804D01*
X118175496Y-139326204D01*
X118200000Y-139325000D01*
X119400000Y-139325000D01*
X119424504Y-139326204D01*
X119424504Y-139326204D01*
G37*
D22*
G04 #@! TD*
G04 #@! TO.P,Joy2,1*
G04 #@! TO.N,+5V*
X118800000Y-140300000D03*
D20*
G04 #@! TO.P,Joy2,2*
G04 #@! TO.N,GND*
X121300000Y-140300000D03*
G04 #@! TO.P,Joy2,3*
G04 #@! TO.N,/JOY2X*
X123800000Y-140300000D03*
G04 #@! TO.P,Joy2,4*
G04 #@! TO.N,/JOY2Y*
X126300000Y-140300000D03*
G04 #@! TO.P,Joy2,5*
G04 #@! TO.N,/JOY2BUTTON*
X128800000Y-140300000D03*
G04 #@! TD*
D21*
G04 #@! TO.N,Net-(Rotary1-Pad1)*
G04 #@! TO.C,Rotary1*
G36*
X102424504Y-128326204D02*
X102448773Y-128329804D01*
X102472571Y-128335765D01*
X102495671Y-128344030D01*
X102517849Y-128354520D01*
X102538893Y-128367133D01*
X102558598Y-128381747D01*
X102576777Y-128398223D01*
X102593253Y-128416402D01*
X102607867Y-128436107D01*
X102620480Y-128457151D01*
X102630970Y-128479329D01*
X102639235Y-128502429D01*
X102645196Y-128526227D01*
X102648796Y-128550496D01*
X102650000Y-128575000D01*
X102650000Y-130025000D01*
X102648796Y-130049504D01*
X102645196Y-130073773D01*
X102639235Y-130097571D01*
X102630970Y-130120671D01*
X102620480Y-130142849D01*
X102607867Y-130163893D01*
X102593253Y-130183598D01*
X102576777Y-130201777D01*
X102558598Y-130218253D01*
X102538893Y-130232867D01*
X102517849Y-130245480D01*
X102495671Y-130255970D01*
X102472571Y-130264235D01*
X102448773Y-130270196D01*
X102424504Y-130273796D01*
X102400000Y-130275000D01*
X101200000Y-130275000D01*
X101175496Y-130273796D01*
X101151227Y-130270196D01*
X101127429Y-130264235D01*
X101104329Y-130255970D01*
X101082151Y-130245480D01*
X101061107Y-130232867D01*
X101041402Y-130218253D01*
X101023223Y-130201777D01*
X101006747Y-130183598D01*
X100992133Y-130163893D01*
X100979520Y-130142849D01*
X100969030Y-130120671D01*
X100960765Y-130097571D01*
X100954804Y-130073773D01*
X100951204Y-130049504D01*
X100950000Y-130025000D01*
X100950000Y-128575000D01*
X100951204Y-128550496D01*
X100954804Y-128526227D01*
X100960765Y-128502429D01*
X100969030Y-128479329D01*
X100979520Y-128457151D01*
X100992133Y-128436107D01*
X101006747Y-128416402D01*
X101023223Y-128398223D01*
X101041402Y-128381747D01*
X101061107Y-128367133D01*
X101082151Y-128354520D01*
X101104329Y-128344030D01*
X101127429Y-128335765D01*
X101151227Y-128329804D01*
X101175496Y-128326204D01*
X101200000Y-128325000D01*
X102400000Y-128325000D01*
X102424504Y-128326204D01*
X102424504Y-128326204D01*
G37*
D22*
G04 #@! TD*
G04 #@! TO.P,Rotary1,1*
G04 #@! TO.N,Net-(Rotary1-Pad1)*
X101800000Y-129300000D03*
D20*
G04 #@! TO.P,Rotary1,2*
G04 #@! TO.N,+12V*
X104300000Y-129300000D03*
G04 #@! TO.P,Rotary1,3*
G04 #@! TO.N,Net-(Rotary1-Pad3)*
X106800000Y-129300000D03*
G04 #@! TO.P,Rotary1,4*
G04 #@! TO.N,GND*
X109300000Y-129300000D03*
G04 #@! TO.P,Rotary1,5*
G04 #@! TO.N,Net-(Rotary1-Pad5)*
X111800000Y-129300000D03*
G04 #@! TD*
G04 #@! TO.P,Rotary2,5*
G04 #@! TO.N,Net-(Rotary2-Pad5)*
X128800000Y-129300000D03*
G04 #@! TO.P,Rotary2,4*
G04 #@! TO.N,GND*
X126300000Y-129300000D03*
G04 #@! TO.P,Rotary2,3*
G04 #@! TO.N,Net-(Rotary2-Pad3)*
X123800000Y-129300000D03*
G04 #@! TO.P,Rotary2,2*
G04 #@! TO.N,+12V*
X121300000Y-129300000D03*
D21*
G04 #@! TD*
G04 #@! TO.N,Net-(Rotary2-Pad1)*
G04 #@! TO.C,Rotary2*
G36*
X119424504Y-128326204D02*
X119448773Y-128329804D01*
X119472571Y-128335765D01*
X119495671Y-128344030D01*
X119517849Y-128354520D01*
X119538893Y-128367133D01*
X119558598Y-128381747D01*
X119576777Y-128398223D01*
X119593253Y-128416402D01*
X119607867Y-128436107D01*
X119620480Y-128457151D01*
X119630970Y-128479329D01*
X119639235Y-128502429D01*
X119645196Y-128526227D01*
X119648796Y-128550496D01*
X119650000Y-128575000D01*
X119650000Y-130025000D01*
X119648796Y-130049504D01*
X119645196Y-130073773D01*
X119639235Y-130097571D01*
X119630970Y-130120671D01*
X119620480Y-130142849D01*
X119607867Y-130163893D01*
X119593253Y-130183598D01*
X119576777Y-130201777D01*
X119558598Y-130218253D01*
X119538893Y-130232867D01*
X119517849Y-130245480D01*
X119495671Y-130255970D01*
X119472571Y-130264235D01*
X119448773Y-130270196D01*
X119424504Y-130273796D01*
X119400000Y-130275000D01*
X118200000Y-130275000D01*
X118175496Y-130273796D01*
X118151227Y-130270196D01*
X118127429Y-130264235D01*
X118104329Y-130255970D01*
X118082151Y-130245480D01*
X118061107Y-130232867D01*
X118041402Y-130218253D01*
X118023223Y-130201777D01*
X118006747Y-130183598D01*
X117992133Y-130163893D01*
X117979520Y-130142849D01*
X117969030Y-130120671D01*
X117960765Y-130097571D01*
X117954804Y-130073773D01*
X117951204Y-130049504D01*
X117950000Y-130025000D01*
X117950000Y-128575000D01*
X117951204Y-128550496D01*
X117954804Y-128526227D01*
X117960765Y-128502429D01*
X117969030Y-128479329D01*
X117979520Y-128457151D01*
X117992133Y-128436107D01*
X118006747Y-128416402D01*
X118023223Y-128398223D01*
X118041402Y-128381747D01*
X118061107Y-128367133D01*
X118082151Y-128354520D01*
X118104329Y-128344030D01*
X118127429Y-128335765D01*
X118151227Y-128329804D01*
X118175496Y-128326204D01*
X118200000Y-128325000D01*
X119400000Y-128325000D01*
X119424504Y-128326204D01*
X119424504Y-128326204D01*
G37*
D22*
G04 #@! TO.P,Rotary2,1*
G04 #@! TO.N,Net-(Rotary2-Pad1)*
X118800000Y-129300000D03*
G04 #@! TD*
D14*
G04 #@! TO.P,U8,1*
G04 #@! TO.N,/LASER_TOGGLE*
X144200000Y-83400000D03*
D15*
G04 #@! TO.P,U8,8*
G04 #@! TO.N,N/C*
X151820000Y-98640000D03*
G04 #@! TO.P,U8,2*
G04 #@! TO.N,Net-(U6-Pad3)*
X144200000Y-85940000D03*
G04 #@! TO.P,U8,9*
G04 #@! TO.N,N/C*
X151820000Y-96100000D03*
G04 #@! TO.P,U8,3*
G04 #@! TO.N,Net-(J7-Pad1)*
X144200000Y-88480000D03*
G04 #@! TO.P,U8,10*
G04 #@! TO.N,N/C*
X151820000Y-93560000D03*
G04 #@! TO.P,U8,4*
X144200000Y-91020000D03*
G04 #@! TO.P,U8,11*
X151820000Y-91020000D03*
G04 #@! TO.P,U8,5*
X144200000Y-93560000D03*
G04 #@! TO.P,U8,12*
X151820000Y-88480000D03*
G04 #@! TO.P,U8,6*
X144200000Y-96100000D03*
G04 #@! TO.P,U8,13*
X151820000Y-85940000D03*
G04 #@! TO.P,U8,7*
X144200000Y-98640000D03*
G04 #@! TO.P,U8,14*
X151820000Y-83400000D03*
G04 #@! TD*
D18*
G04 #@! TO.P,J4,1*
G04 #@! TO.N,-15V*
X107400000Y-120800000D03*
D19*
G04 #@! TO.P,J4,2*
G04 #@! TO.N,GND*
X107400000Y-118260000D03*
G04 #@! TO.P,J4,3*
G04 #@! TO.N,+12V*
X107400000Y-115720000D03*
G04 #@! TO.P,J4,4*
G04 #@! TO.N,+15V*
X107400000Y-113180000D03*
G04 #@! TD*
D14*
G04 #@! TO.P,U7,1*
G04 #@! TO.N,N/C*
X143900000Y-59800000D03*
D15*
G04 #@! TO.P,U7,8*
X151520000Y-75040000D03*
G04 #@! TO.P,U7,2*
X143900000Y-62340000D03*
G04 #@! TO.P,U7,9*
X151520000Y-72500000D03*
G04 #@! TO.P,U7,3*
X143900000Y-64880000D03*
G04 #@! TO.P,U7,10*
X151520000Y-69960000D03*
G04 #@! TO.P,U7,4*
X143900000Y-67420000D03*
G04 #@! TO.P,U7,11*
X151520000Y-67420000D03*
G04 #@! TO.P,U7,5*
X143900000Y-69960000D03*
G04 #@! TO.P,U7,12*
X151520000Y-64880000D03*
G04 #@! TO.P,U7,6*
X143900000Y-72500000D03*
G04 #@! TO.P,U7,13*
X151520000Y-62340000D03*
G04 #@! TO.P,U7,7*
G04 #@! TO.N,GND*
X143900000Y-75040000D03*
G04 #@! TO.P,U7,14*
G04 #@! TO.N,+5V*
X151520000Y-59800000D03*
G04 #@! TD*
D18*
G04 #@! TO.P,X-J1,1*
G04 #@! TO.N,Net-(R1-Pad2)*
X167770000Y-113480000D03*
D19*
G04 #@! TO.P,X-J1,2*
G04 #@! TO.N,Net-(J3-Pad1)*
X167770000Y-116020000D03*
G04 #@! TO.P,X-J1,3*
G04 #@! TO.N,Net-(J1-Pad3)*
X167770000Y-118560000D03*
G04 #@! TD*
D18*
G04 #@! TO.P,X-J2,1*
G04 #@! TO.N,Net-(J1-Pad2)*
X170310000Y-113480000D03*
D19*
G04 #@! TO.P,X-J2,2*
G04 #@! TO.N,Net-(R4-Pad2)*
X170310000Y-116020000D03*
G04 #@! TO.P,X-J2,3*
G04 #@! TO.N,GND*
X170310000Y-118560000D03*
G04 #@! TD*
G04 #@! TO.P,Y-J1,3*
G04 #@! TO.N,Net-(J2-Pad3)*
X167470000Y-130860000D03*
G04 #@! TO.P,Y-J1,2*
G04 #@! TO.N,Net-(J6-Pad1)*
X167470000Y-128320000D03*
D18*
G04 #@! TO.P,Y-J1,1*
G04 #@! TO.N,Net-(R2-Pad2)*
X167470000Y-125780000D03*
G04 #@! TD*
D19*
G04 #@! TO.P,Y-J2,3*
G04 #@! TO.N,GND*
X170010000Y-130860000D03*
G04 #@! TO.P,Y-J2,2*
G04 #@! TO.N,Net-(R6-Pad2)*
X170010000Y-128320000D03*
D18*
G04 #@! TO.P,Y-J2,1*
G04 #@! TO.N,Net-(J2-Pad2)*
X170010000Y-125780000D03*
G04 #@! TD*
D23*
G04 #@! TO.N,Net-(R1-Pad1)*
X146300000Y-140300000D03*
X133900000Y-130600000D03*
G04 #@! TO.N,Net-(R2-Pad1)*
X163200000Y-121400000D03*
X155500000Y-115900000D03*
X159855101Y-122258122D03*
G04 #@! TO.N,+15V*
X146700000Y-114700000D03*
X129700011Y-114300000D03*
X130700000Y-112700000D03*
G04 #@! TO.N,Net-(R6-Pad1)*
X140600000Y-111600000D03*
G04 #@! TO.N,GND*
X141100000Y-119400000D03*
X142700000Y-116800000D03*
X151080000Y-117120000D03*
X157760000Y-123500000D03*
X164800000Y-121170000D03*
G04 #@! TO.N,Net-(RV1-Pad2)*
X155000000Y-129900000D03*
G04 #@! TO.N,Net-(RV2-Pad2)*
X134100000Y-102399997D03*
X132800000Y-122200000D03*
X131800000Y-117100000D03*
G04 #@! TO.N,-15V*
X119800000Y-134100000D03*
X121200000Y-136300000D03*
X128400000Y-134400000D03*
G04 #@! TO.N,+12V*
X112675000Y-99100000D03*
X114900000Y-99100000D03*
X119800000Y-93900000D03*
X118000000Y-101200000D03*
X119400000Y-106300000D03*
G04 #@! TO.N,Net-(D1-Pad2)*
X155600000Y-80900000D03*
X159300000Y-108800000D03*
X161200000Y-113400000D03*
G04 #@! TO.N,Net-(J2-Pad3)*
X140800000Y-110200000D03*
X142400000Y-108400000D03*
X152200000Y-114300000D03*
X173315021Y-123759673D03*
X175800000Y-132780000D03*
G04 #@! TO.N,Net-(J1-Pad3)*
X157340000Y-125400000D03*
G04 #@! TO.N,/BUTTON1*
X112800000Y-108300000D03*
G04 #@! TO.N,/DT1*
X165000000Y-70800000D03*
G04 #@! TO.N,Net-(CN10-Pad7)*
X127570000Y-77330000D03*
X149000000Y-67500000D03*
G04 #@! TO.N,/LATCH*
X128700000Y-76300000D03*
X132900000Y-81700000D03*
G04 #@! TO.N,/JOY1Y*
X111270623Y-127825088D03*
X110900000Y-132900000D03*
G04 #@! TO.N,/JOY2X*
X104600000Y-111900000D03*
X105400000Y-124300000D03*
X117700000Y-134100000D03*
G04 #@! TO.N,/JOY2Y*
X111349999Y-113600000D03*
X121750010Y-127400000D03*
G04 #@! TO.N,/LASER_TOGGLE*
X140400000Y-92300000D03*
X136200000Y-104700000D03*
X129900000Y-117700000D03*
X119200000Y-118500000D03*
G04 #@! TO.N,/CLK1*
X140400000Y-103300000D03*
X134100000Y-103400000D03*
X123000000Y-119800000D03*
X119300000Y-115900000D03*
X120000000Y-114100000D03*
X117200000Y-113055001D03*
X117100000Y-111400000D03*
G04 #@! TO.N,/DT2*
X161200000Y-63000000D03*
X140500000Y-68000000D03*
X135600000Y-75800000D03*
G04 #@! TO.N,/CLK2*
X155300000Y-65000000D03*
G04 #@! TO.N,Net-(J3-Pad1)*
X113400000Y-75800000D03*
X113200000Y-100400000D03*
X160090000Y-111340000D03*
X151560000Y-102990000D03*
X140770000Y-101620000D03*
X140770000Y-98810000D03*
X129590000Y-100060000D03*
G04 #@! TO.N,Net-(J6-Pad1)*
X126100000Y-74700000D03*
X126200000Y-83700000D03*
X159000000Y-98900000D03*
X166940000Y-101010000D03*
G04 #@! TO.N,Net-(R2-Pad2)*
X172590021Y-120034989D03*
G04 #@! TO.N,Net-(R4-Pad2)*
X146400000Y-124300000D03*
X150700000Y-124800000D03*
X167980000Y-121030000D03*
X158047002Y-116650000D03*
X152140000Y-119610000D03*
X150760000Y-121780000D03*
G04 #@! TO.N,Net-(R6-Pad2)*
X164620000Y-98990000D03*
X164320000Y-103280000D03*
X159670000Y-106210000D03*
X154360000Y-111930000D03*
X155430000Y-117180000D03*
X161183112Y-123007142D03*
G04 #@! TO.N,Net-(Rotary1-Pad3)*
X107300000Y-123500000D03*
X110100000Y-124200000D03*
X117600000Y-121800000D03*
X120400000Y-124600000D03*
X119500000Y-111300000D03*
X125625000Y-111424993D03*
X125625000Y-114000000D03*
G04 #@! TO.N,Net-(Rotary2-Pad5)*
X124520000Y-97600000D03*
X126600000Y-99900000D03*
X128300000Y-101800000D03*
X129900000Y-110700000D03*
X132600000Y-113600000D03*
X126400000Y-119200000D03*
X127500000Y-123800000D03*
G04 #@! TO.N,Net-(Rotary2-Pad3)*
X123800000Y-129300000D03*
G04 #@! TD*
D24*
G04 #@! TO.N,Net-(R1-Pad1)*
X150100000Y-144100000D02*
X153000000Y-144100000D01*
X146300000Y-140300000D02*
X150100000Y-144100000D01*
X133800000Y-130500000D02*
X133900000Y-130600000D01*
X135690000Y-121900000D02*
X133800000Y-123790000D01*
X133800000Y-123790000D02*
X133800000Y-130500000D01*
G04 #@! TO.N,Net-(R2-Pad1)*
X155500000Y-115000000D02*
X154300000Y-113800000D01*
X155500000Y-115900000D02*
X155500000Y-115000000D01*
X160255100Y-121858123D02*
X159855101Y-122258122D01*
X160713223Y-121400000D02*
X160255100Y-121858123D01*
X163200000Y-121400000D02*
X160713223Y-121400000D01*
G04 #@! TO.N,Net-(R3-Pad2)*
X160000000Y-139860000D02*
X153470000Y-133330000D01*
X160000000Y-144100000D02*
X160000000Y-139860000D01*
G04 #@! TO.N,+15V*
X148390000Y-116390000D02*
X148390000Y-116820000D01*
X146700000Y-114700000D02*
X148390000Y-116390000D01*
X129700011Y-114300000D02*
X129700011Y-113699989D01*
X129700011Y-113699989D02*
X130700000Y-112700000D01*
G04 #@! TO.N,Net-(R4-Pad1)*
X144580000Y-124440000D02*
X143310000Y-124440000D01*
X148390000Y-128250000D02*
X144580000Y-124440000D01*
X149089999Y-127550001D02*
X148390000Y-128250000D01*
X152770001Y-123869999D02*
X149089999Y-127550001D01*
X152770001Y-122599999D02*
X152770001Y-123869999D01*
X153470000Y-121900000D02*
X152770001Y-122599999D01*
G04 #@! TO.N,Net-(R6-Pad1)*
X156500000Y-97380000D02*
X156500000Y-99100000D01*
X161380000Y-92500000D02*
X156500000Y-97380000D01*
X156500000Y-99100000D02*
X153100000Y-99100000D01*
X153100000Y-99100000D02*
X140600000Y-111600000D01*
G04 #@! TO.N,GND*
X111582081Y-84950000D02*
X110380000Y-84950000D01*
X115970003Y-84614999D02*
X111917082Y-84614999D01*
X111917082Y-84614999D02*
X111582081Y-84950000D01*
X121885002Y-78700000D02*
X115970003Y-84614999D01*
X129500000Y-78700000D02*
X121885002Y-78700000D01*
X115999999Y-95100001D02*
X115200000Y-95900000D01*
X116325001Y-94774999D02*
X115999999Y-95100001D01*
X116325001Y-92819999D02*
X116325001Y-94774999D01*
X115580001Y-92074999D02*
X116325001Y-92819999D01*
X114074999Y-92074999D02*
X115580001Y-92074999D01*
X114074999Y-88644999D02*
X114074999Y-92074999D01*
X110380000Y-84950000D02*
X114074999Y-88644999D01*
X142768630Y-75040000D02*
X143900000Y-75040000D01*
X134210000Y-75040000D02*
X142768630Y-75040000D01*
X130550000Y-78700000D02*
X134210000Y-75040000D01*
X129500000Y-78700000D02*
X130550000Y-78700000D01*
X129500000Y-72360000D02*
X123120000Y-65980000D01*
X129500000Y-78700000D02*
X129500000Y-72360000D01*
X115799999Y-115200001D02*
X115000000Y-116000000D01*
X116125001Y-114874999D02*
X115799999Y-115200001D01*
X116125001Y-97956371D02*
X116125001Y-114874999D01*
X115200000Y-97031370D02*
X116125001Y-97956371D01*
X115200000Y-95900000D02*
X115200000Y-97031370D01*
X121300000Y-140175000D02*
X121300000Y-140300000D01*
X120124990Y-138999990D02*
X121300000Y-140175000D01*
X111313295Y-138999990D02*
X120124990Y-138999990D01*
X110624990Y-139688295D02*
X111313295Y-138999990D01*
X110624990Y-140911705D02*
X110624990Y-139688295D01*
X114948286Y-145235001D02*
X110624990Y-140911705D01*
X139864999Y-145235001D02*
X114948286Y-145235001D01*
X141000000Y-144100000D02*
X139864999Y-145235001D01*
X143310000Y-126980000D02*
X141100000Y-124770000D01*
X141100000Y-124770000D02*
X141100000Y-119400000D01*
X142700000Y-114900000D02*
X141700000Y-113900000D01*
X142700000Y-116800000D02*
X142700000Y-114900000D01*
X165000000Y-144100000D02*
X165809999Y-143290001D01*
X147934999Y-113974999D02*
X151080000Y-117120000D01*
X142700000Y-116800000D02*
X145525001Y-113974999D01*
X145525001Y-113974999D02*
X147934999Y-113974999D01*
X170010000Y-139090000D02*
X165000000Y-144100000D01*
X170010000Y-130860000D02*
X170010000Y-139090000D01*
X173170000Y-127700000D02*
X175800000Y-127700000D01*
X170010000Y-130860000D02*
X173170000Y-127700000D01*
X163844999Y-122125001D02*
X164400001Y-121569999D01*
X164400001Y-121569999D02*
X164800000Y-121170000D01*
X160945383Y-122125001D02*
X163844999Y-122125001D01*
X159685016Y-123500000D02*
X160579528Y-122605488D01*
X160579528Y-122605488D02*
X160579528Y-122490856D01*
X160579528Y-122490856D02*
X160945383Y-122125001D01*
X157760000Y-123500000D02*
X159685016Y-123500000D01*
G04 #@! TO.N,Net-(RV1-Pad2)*
X155000000Y-134100000D02*
X162500000Y-141600000D01*
X155000000Y-129900000D02*
X155000000Y-134100000D01*
G04 #@! TO.N,Net-(RV2-Pad2)*
X134099998Y-102399999D02*
X134100000Y-102399997D01*
X126274999Y-110854999D02*
X126274999Y-108899999D01*
X126859999Y-108314999D02*
X128111999Y-108314999D01*
X128111999Y-108314999D02*
X134026999Y-102399999D01*
X134026999Y-102399999D02*
X134099998Y-102399999D01*
X127400000Y-111980000D02*
X126274999Y-110854999D01*
X126274999Y-108899999D02*
X126859999Y-108314999D01*
X132800000Y-122200000D02*
X132800000Y-118100000D01*
X132800000Y-118100000D02*
X131800000Y-117100000D01*
G04 #@! TO.N,-15V*
X119800000Y-134100000D02*
X121200000Y-135500000D01*
X121200000Y-135500000D02*
X121200000Y-136300000D01*
X135690000Y-128111370D02*
X135690000Y-126980000D01*
X135690000Y-129883002D02*
X135690000Y-128111370D01*
X134248001Y-131325001D02*
X135690000Y-129883002D01*
X131474999Y-131325001D02*
X134248001Y-131325001D01*
X128400000Y-134400000D02*
X131474999Y-131325001D01*
G04 #@! TO.N,+12V*
X112675000Y-99100000D02*
X114900000Y-99100000D01*
X119800000Y-88760000D02*
X122820000Y-85740000D01*
X119800000Y-93900000D02*
X119800000Y-88760000D01*
X118000000Y-101200000D02*
X119400000Y-102600000D01*
X119400000Y-102600000D02*
X119400000Y-106300000D01*
G04 #@! TO.N,Net-(C1-Pad1)*
X158810000Y-120370000D02*
X161090000Y-118090000D01*
X151650000Y-120370000D02*
X158810000Y-120370000D01*
X138074999Y-115790001D02*
X140374998Y-118090000D01*
X138659999Y-112774999D02*
X138074999Y-113359999D01*
X128374999Y-84320001D02*
X128959999Y-84905001D01*
X128374999Y-83239999D02*
X128374999Y-84320001D01*
X128959999Y-82654999D02*
X128374999Y-83239999D01*
X133705002Y-86320000D02*
X130040001Y-82654999D01*
X137120000Y-86320000D02*
X133705002Y-86320000D01*
X138074999Y-113359999D02*
X138074999Y-115790001D01*
X129988591Y-84905001D02*
X138659999Y-93576409D01*
X140374998Y-118090000D02*
X149370000Y-118090000D01*
X130040001Y-82654999D02*
X128959999Y-82654999D01*
X149370000Y-118090000D02*
X151650000Y-120370000D01*
X128959999Y-84905001D02*
X129988591Y-84905001D01*
X138659999Y-93576409D02*
X138659999Y-112774999D01*
G04 #@! TO.N,Net-(C2-Pad1)*
X132040000Y-83780000D02*
X137120000Y-83780000D01*
X129500000Y-81240000D02*
X132040000Y-83780000D01*
X139200000Y-112768630D02*
X139200000Y-113900000D01*
X143949997Y-87065001D02*
X139200000Y-91814998D01*
X139200000Y-91814998D02*
X139200000Y-112768630D01*
X144740001Y-87065001D02*
X143949997Y-87065001D01*
X145325001Y-86480001D02*
X144740001Y-87065001D01*
X145325001Y-85399999D02*
X145325001Y-86480001D01*
X144740001Y-84814999D02*
X145325001Y-85399999D01*
X138154999Y-84814999D02*
X144740001Y-84814999D01*
X137120000Y-83780000D02*
X138154999Y-84814999D01*
G04 #@! TO.N,Net-(D1-Pad2)*
X138251370Y-81240000D02*
X137120000Y-81240000D01*
X139365002Y-81240000D02*
X138251370Y-81240000D01*
X145025001Y-75580001D02*
X139365002Y-81240000D01*
X144440001Y-73914999D02*
X145025001Y-74499999D01*
X138994999Y-73914999D02*
X144440001Y-73914999D01*
X145025001Y-74499999D02*
X145025001Y-75580001D01*
X137800000Y-72720000D02*
X138994999Y-73914999D01*
X137620000Y-72900000D02*
X137800000Y-72720000D01*
X132900000Y-72900000D02*
X137620000Y-72900000D01*
X139365002Y-81240000D02*
X155260000Y-81240000D01*
X155260000Y-81240000D02*
X155600000Y-80900000D01*
X159300000Y-108800000D02*
X161200000Y-110700000D01*
X161200000Y-110700000D02*
X161200000Y-113400000D01*
G04 #@! TO.N,Net-(J2-Pad3)*
X155600001Y-93199999D02*
X156300000Y-92500000D01*
X152360001Y-97225001D02*
X155600001Y-93985001D01*
X151569997Y-97225001D02*
X152360001Y-97225001D01*
X155600001Y-93985001D02*
X155600001Y-93199999D01*
X140800000Y-107994998D02*
X151569997Y-97225001D01*
X140800000Y-110200000D02*
X140800000Y-107994998D01*
X140800000Y-110200000D02*
X140800000Y-110000000D01*
X140800000Y-110000000D02*
X142400000Y-108400000D01*
X174950001Y-131930001D02*
X175800000Y-132780000D01*
X171804001Y-88415001D02*
X173315021Y-89926021D01*
X158630001Y-88415001D02*
X171804001Y-88415001D01*
X152360001Y-94685001D02*
X158630001Y-88415001D01*
X151279999Y-94685001D02*
X152360001Y-94685001D01*
X139740001Y-106224999D02*
X151279999Y-94685001D01*
X139740001Y-112774999D02*
X139740001Y-106224999D01*
X150674999Y-112774999D02*
X139740001Y-112774999D01*
X152200000Y-114300000D02*
X150674999Y-112774999D01*
X173315021Y-124148569D02*
X173315021Y-123759673D01*
X173315021Y-89926021D02*
X173315021Y-123759673D01*
X175800000Y-134979802D02*
X175800000Y-133982081D01*
X165544801Y-145235001D02*
X175800000Y-134979802D01*
X164455199Y-145235001D02*
X165544801Y-145235001D01*
X163864999Y-144644801D02*
X164455199Y-145235001D01*
X175800000Y-133982081D02*
X175800000Y-132780000D01*
X163864999Y-134465001D02*
X163864999Y-144644801D01*
X167470000Y-130860000D02*
X163864999Y-134465001D01*
G04 #@! TO.N,Net-(J1-Pad3)*
X143310000Y-121900000D02*
X148390000Y-121900000D01*
X171185001Y-121975001D02*
X168619999Y-119409999D01*
X171185001Y-128884001D02*
X171185001Y-121975001D01*
X170574001Y-129495001D02*
X171185001Y-128884001D01*
X166905999Y-129495001D02*
X170574001Y-129495001D01*
X162085997Y-124674999D02*
X166905999Y-129495001D01*
X168619999Y-119409999D02*
X167770000Y-118560000D01*
X158065001Y-124674999D02*
X162085997Y-124674999D01*
X157340000Y-125400000D02*
X158065001Y-124674999D01*
X175800000Y-120982081D02*
X175800000Y-119780000D01*
X175800000Y-122300000D02*
X175800000Y-120982081D01*
X173501421Y-124598579D02*
X175800000Y-122300000D01*
X173128621Y-124598579D02*
X173501421Y-124598579D01*
X171185001Y-122654959D02*
X173128621Y-124598579D01*
X171185001Y-121975001D02*
X171185001Y-122654959D01*
G04 #@! TO.N,Net-(J2-Pad2)*
X152444999Y-138224801D02*
X159905208Y-145685010D01*
X170010000Y-125780000D02*
X170010000Y-124680000D01*
X170010000Y-124680000D02*
X165774999Y-120444999D01*
X159905208Y-145685010D02*
X165731202Y-145685010D01*
X154651999Y-125374999D02*
X154651999Y-129174999D01*
X159369200Y-121720033D02*
X158306965Y-121720033D01*
X176975001Y-131415001D02*
X176649999Y-131089999D01*
X160644234Y-120444999D02*
X159369200Y-121720033D01*
X152444999Y-131381999D02*
X152444999Y-138224801D01*
X165774999Y-120444999D02*
X160644234Y-120444999D01*
X176975001Y-134441211D02*
X176975001Y-131415001D01*
X154651999Y-129174999D02*
X152444999Y-131381999D01*
X165731202Y-145685010D02*
X176975001Y-134441211D01*
X176649999Y-131089999D02*
X175800000Y-130240000D01*
X158306965Y-121720033D02*
X154651999Y-125374999D01*
G04 #@! TO.N,Net-(CN10-Pad17)*
X167850001Y-78770001D02*
X168700000Y-79620000D01*
X160454999Y-71374999D02*
X167850001Y-78770001D01*
X137403997Y-71374999D02*
X160454999Y-71374999D01*
X130883997Y-64854999D02*
X137403997Y-71374999D01*
X117756371Y-64854999D02*
X130883997Y-64854999D01*
X116631370Y-65980000D02*
X117756371Y-64854999D01*
X115500000Y-65980000D02*
X116631370Y-65980000D01*
G04 #@! TO.N,Net-(CN10-Pad15)*
X167850001Y-76230001D02*
X168700000Y-77080000D01*
X131526001Y-62314999D02*
X138046001Y-68834999D01*
X118580001Y-62314999D02*
X131526001Y-62314999D01*
X116040001Y-64854999D02*
X118580001Y-62314999D01*
X114959999Y-64854999D02*
X116040001Y-64854999D01*
X114374999Y-65439999D02*
X114959999Y-64854999D01*
X114374999Y-69934999D02*
X114374999Y-65439999D01*
X160454999Y-68834999D02*
X167850001Y-76230001D01*
X138046001Y-68834999D02*
X160454999Y-68834999D01*
X115500000Y-71060000D02*
X114374999Y-69934999D01*
G04 #@! TO.N,/BUTTON1*
X112800000Y-111260000D02*
X115000000Y-113460000D01*
X112800000Y-108300000D02*
X112800000Y-111260000D01*
G04 #@! TO.N,/DT1*
X167704999Y-68095001D02*
X165000000Y-70800000D01*
X169264001Y-68095001D02*
X167704999Y-68095001D01*
X169875001Y-67484001D02*
X169264001Y-68095001D01*
X171240000Y-61840000D02*
X169875001Y-63204999D01*
X169875001Y-63204999D02*
X169875001Y-67484001D01*
G04 #@! TO.N,Net-(U6-Pad3)*
X142694999Y-87445001D02*
X143400001Y-86739999D01*
X143400001Y-86739999D02*
X144200000Y-85940000D01*
X133165001Y-87445001D02*
X142694999Y-87445001D01*
X129500000Y-83780000D02*
X133165001Y-87445001D01*
G04 #@! TO.N,Net-(CN10-Pad7)*
X110380000Y-77330000D02*
X127570000Y-77330000D01*
X167850001Y-66070001D02*
X168700000Y-66920000D01*
X150429999Y-66070001D02*
X167850001Y-66070001D01*
X149000000Y-67500000D02*
X150429999Y-66070001D01*
G04 #@! TO.N,/LATCH*
X123120000Y-76140000D02*
X128540000Y-76140000D01*
X128540000Y-76140000D02*
X128700000Y-76300000D01*
X170390001Y-83850001D02*
X171240000Y-84700000D01*
X170064999Y-83524999D02*
X170390001Y-83850001D01*
X168135999Y-83524999D02*
X170064999Y-83524999D01*
X166885999Y-82274999D02*
X168135999Y-83524999D01*
X143139999Y-82274999D02*
X166885999Y-82274999D01*
X142759999Y-82654999D02*
X143139999Y-82274999D01*
X133854999Y-82654999D02*
X142759999Y-82654999D01*
X132900000Y-81700000D02*
X133854999Y-82654999D01*
G04 #@! TO.N,/JOY1X*
X106800000Y-139075000D02*
X106800000Y-140300000D01*
X106800000Y-136438190D02*
X106800000Y-139075000D01*
X100624990Y-130263180D02*
X106800000Y-136438190D01*
X100624990Y-103126008D02*
X100624990Y-130263180D01*
X107275999Y-96474999D02*
X100624990Y-103126008D01*
X108214003Y-96474999D02*
X107275999Y-96474999D01*
X109015001Y-95674001D02*
X108214003Y-96474999D01*
X109015001Y-93934999D02*
X109015001Y-95674001D01*
X110380000Y-92570000D02*
X109015001Y-93934999D01*
G04 #@! TO.N,/JOY1Y*
X110380000Y-95110000D02*
X109204999Y-96285001D01*
X109204999Y-125759464D02*
X111270623Y-127825088D01*
X109204999Y-96285001D02*
X109204999Y-125759464D01*
X109300000Y-134500000D02*
X109300000Y-140300000D01*
X110900000Y-132900000D02*
X109300000Y-134500000D01*
G04 #@! TO.N,/JOY2X*
X104600000Y-111900000D02*
X105400000Y-112700000D01*
X105400000Y-112700000D02*
X105400000Y-124300000D01*
X123800000Y-140200000D02*
X123800000Y-140300000D01*
X117700000Y-134100000D02*
X123800000Y-140200000D01*
G04 #@! TO.N,/JOY2Y*
X111555001Y-113394998D02*
X111349999Y-113600000D01*
X110380000Y-100190000D02*
X111555001Y-101365001D01*
X111555001Y-101365001D02*
X111555001Y-113394998D01*
X126300000Y-140175000D02*
X126300000Y-140300000D01*
X122624990Y-136499990D02*
X126300000Y-140175000D01*
X122624990Y-128274980D02*
X122624990Y-136499990D01*
X121750010Y-127400000D02*
X122624990Y-128274980D01*
G04 #@! TO.N,/LASER_TOGGLE*
X145250000Y-83400000D02*
X145775011Y-83925011D01*
X145775011Y-83925011D02*
X145775011Y-88569991D01*
X145775011Y-88569991D02*
X144740001Y-89605001D01*
X144200000Y-83400000D02*
X145250000Y-83400000D01*
X144740001Y-89605001D02*
X143094999Y-89605001D01*
X143094999Y-89605001D02*
X140400000Y-92300000D01*
X134494999Y-113105001D02*
X129900000Y-117700000D01*
X136200000Y-104700000D02*
X136200000Y-112465002D01*
X135560001Y-113105001D02*
X134494999Y-113105001D01*
X136200000Y-112465002D02*
X135560001Y-113105001D01*
X110380000Y-106472081D02*
X110380000Y-105270000D01*
X110380000Y-113681412D02*
X110380000Y-106472081D01*
X115198588Y-118500000D02*
X110380000Y-113681412D01*
X119200000Y-118500000D02*
X115198588Y-118500000D01*
G04 #@! TO.N,/JOY1BUTTON*
X170064999Y-101115001D02*
X170390001Y-100789999D01*
X112900000Y-140300000D02*
X115825001Y-143225001D01*
X157336991Y-120820011D02*
X158996400Y-120820011D01*
X158996400Y-120820011D02*
X160601410Y-119215001D01*
X160601410Y-119215001D02*
X161630001Y-119215001D01*
X161630001Y-119215001D02*
X162215001Y-118630001D01*
X134932001Y-143225001D02*
X157336991Y-120820011D01*
X170390001Y-100789999D02*
X171240000Y-99940000D01*
X162215001Y-107225997D02*
X168325997Y-101115001D01*
X111800000Y-140300000D02*
X112900000Y-140300000D01*
X115825001Y-143225001D02*
X134932001Y-143225001D01*
X162215001Y-118630001D02*
X162215001Y-107225997D01*
X168325997Y-101115001D02*
X170064999Y-101115001D01*
G04 #@! TO.N,/CLK1*
X141205002Y-103300000D02*
X140400000Y-103300000D01*
X151554999Y-92145001D02*
X145325001Y-98374999D01*
X145325001Y-98374999D02*
X145325001Y-99180001D01*
X158630001Y-85875001D02*
X152360001Y-92145001D01*
X145325001Y-99180001D02*
X141205002Y-103300000D01*
X171804001Y-85875001D02*
X158630001Y-85875001D01*
X172415001Y-85264001D02*
X171804001Y-85875001D01*
X169549999Y-83009999D02*
X170186409Y-83009999D01*
X152360001Y-92145001D02*
X151554999Y-92145001D01*
X168700000Y-82160000D02*
X169549999Y-83009999D01*
X171804001Y-83524999D02*
X172415001Y-84135999D01*
X170186409Y-83009999D02*
X170701409Y-83524999D01*
X170701409Y-83524999D02*
X171804001Y-83524999D01*
X172415001Y-84135999D02*
X172415001Y-85264001D01*
X123785002Y-119800000D02*
X123000000Y-119800000D01*
X128525001Y-115060001D02*
X123785002Y-119800000D01*
X134100000Y-103400000D02*
X128525001Y-108974999D01*
X128525001Y-108974999D02*
X128525001Y-115060001D01*
X119300000Y-115900000D02*
X119300000Y-114800000D01*
X119300000Y-114800000D02*
X120000000Y-114100000D01*
X117200000Y-113055001D02*
X117200000Y-111500000D01*
X117200000Y-111500000D02*
X117100000Y-111400000D01*
G04 #@! TO.N,/DT2*
X142205001Y-66294999D02*
X140500000Y-68000000D01*
X144440001Y-66294999D02*
X142205001Y-66294999D01*
X146980001Y-63754999D02*
X144440001Y-66294999D01*
X161200000Y-63000000D02*
X160445001Y-63754999D01*
X160445001Y-63754999D02*
X146980001Y-63754999D01*
X116331370Y-85740000D02*
X115200000Y-85740000D01*
X121956371Y-80114999D02*
X116331370Y-85740000D01*
X131850686Y-80114999D02*
X121956371Y-80114999D01*
X135600000Y-76365685D02*
X131850686Y-80114999D01*
X135600000Y-75800000D02*
X135600000Y-76365685D01*
G04 #@! TO.N,/CLK2*
X161900000Y-65000000D02*
X155300000Y-65000000D01*
X168700000Y-59300000D02*
X167600000Y-59300000D01*
X167600000Y-59300000D02*
X161900000Y-65000000D01*
G04 #@! TO.N,Net-(J3-Pad1)*
X113400000Y-63874998D02*
X113400000Y-75800000D01*
X114959999Y-62314999D02*
X113400000Y-63874998D01*
X117210001Y-62314999D02*
X114959999Y-62314999D01*
X123120000Y-60900000D02*
X118625000Y-60900000D01*
X118625000Y-60900000D02*
X117210001Y-62314999D01*
X120349990Y-103905008D02*
X127854998Y-96400000D01*
X120349990Y-112315012D02*
X120349990Y-103905008D01*
X115540001Y-117125001D02*
X120349990Y-112315012D01*
X114459999Y-117125001D02*
X115540001Y-117125001D01*
X112074999Y-114740001D02*
X114459999Y-117125001D01*
X112074999Y-101525001D02*
X112074999Y-114740001D01*
X113200000Y-100400000D02*
X112074999Y-101525001D01*
X151560000Y-107497002D02*
X151560000Y-102990000D01*
X160090000Y-111340000D02*
X160090000Y-111905685D01*
X160405001Y-112220686D02*
X160405001Y-114292001D01*
X160090000Y-111905685D02*
X160405001Y-112220686D01*
X160405001Y-114292001D02*
X159872001Y-114825001D01*
X159872001Y-114825001D02*
X158887999Y-114825001D01*
X158887999Y-114825001D02*
X151560000Y-107497002D01*
X140770000Y-101620000D02*
X140770000Y-98810000D01*
X129080000Y-99550000D02*
X129080000Y-96250000D01*
X129590000Y-100060000D02*
X129080000Y-99550000D01*
X127854998Y-96375002D02*
X127854998Y-96400000D01*
X127980000Y-96250000D02*
X127854998Y-96375002D01*
X129080000Y-96250000D02*
X127980000Y-96250000D01*
G04 #@! TO.N,Net-(J6-Pad1)*
X123120000Y-71060000D02*
X126100000Y-74040000D01*
X126100000Y-74040000D02*
X126100000Y-74700000D01*
X126200000Y-86500000D02*
X136100000Y-96400000D01*
X136100000Y-96400000D02*
X137200000Y-96400000D01*
X126200000Y-83700000D02*
X126200000Y-86500000D01*
X159000000Y-98900000D02*
X159000000Y-99465685D01*
X159000000Y-99465685D02*
X162300000Y-102765685D01*
X162300000Y-102765685D02*
X164055685Y-101010000D01*
X164055685Y-101010000D02*
X166940000Y-101010000D01*
G04 #@! TO.N,Net-(R1-Pad2)*
X122475010Y-140911705D02*
X122475010Y-139688295D01*
X108124990Y-134602008D02*
X108124990Y-140911705D01*
X157523390Y-121270022D02*
X159182800Y-121270022D01*
X160787810Y-119665012D02*
X165434989Y-119665011D01*
X110551999Y-132174999D02*
X108124990Y-134602008D01*
X120813295Y-138999990D02*
X113988304Y-132174999D01*
X165434989Y-114715011D02*
X166670000Y-113480000D01*
X113988304Y-132174999D02*
X110551999Y-132174999D01*
X166670000Y-113480000D02*
X167770000Y-113480000D01*
X141680000Y-132200000D02*
X131105010Y-142774990D01*
X124338295Y-142774990D02*
X122475010Y-140911705D01*
X121786705Y-138999990D02*
X120813295Y-138999990D01*
X159182800Y-121270022D02*
X160787810Y-119665012D01*
X131105010Y-142774990D02*
X124338295Y-142774990D01*
X122475010Y-139688295D02*
X121786705Y-138999990D01*
X165434989Y-119665011D02*
X165434989Y-114715011D01*
X112898295Y-145685010D02*
X141094792Y-145685010D01*
X108124990Y-140911705D02*
X112898295Y-145685010D01*
X141094792Y-145685010D02*
X142135001Y-144644801D01*
X142135001Y-136658411D02*
X157523390Y-121270022D01*
X142135001Y-144644801D02*
X142135001Y-136658411D01*
G04 #@! TO.N,Net-(R2-Pad2)*
X159380000Y-113800000D02*
X158274999Y-112694999D01*
X171804001Y-96224999D02*
X172865011Y-97286009D01*
X160601999Y-96224999D02*
X171804001Y-96224999D01*
X158274999Y-98551999D02*
X160601999Y-96224999D01*
X158274999Y-112694999D02*
X158274999Y-98551999D01*
X172865011Y-97286009D02*
X172590021Y-120034989D01*
X172590021Y-120034989D02*
X172865011Y-120034989D01*
G04 #@! TO.N,Net-(R4-Pad2)*
X146400000Y-124300000D02*
X150200000Y-124300000D01*
X150200000Y-124300000D02*
X150700000Y-124800000D01*
X150500000Y-131220000D02*
X153470000Y-128250000D01*
X150500000Y-141600000D02*
X150500000Y-131220000D01*
X166594999Y-119644999D02*
X167980000Y-121030000D01*
X166594999Y-117995999D02*
X166594999Y-119644999D01*
X170310000Y-116020000D02*
X168945001Y-117384999D01*
X167205999Y-117384999D02*
X166594999Y-117995999D01*
X168945001Y-117384999D02*
X167205999Y-117384999D01*
X154073002Y-119610000D02*
X152140000Y-119610000D01*
X158047002Y-116650000D02*
X155087002Y-119610000D01*
X155087002Y-119610000D02*
X154073002Y-119610000D01*
X150760000Y-124740000D02*
X150700000Y-124800000D01*
X150760000Y-121780000D02*
X150760000Y-124740000D01*
G04 #@! TO.N,Net-(R6-Pad2)*
X169949990Y-127513600D02*
X169949990Y-127886400D01*
X161580000Y-99100000D02*
X164510000Y-99100000D01*
X164510000Y-99100000D02*
X164620000Y-98990000D01*
X164320000Y-103280000D02*
X161390000Y-106210000D01*
X161390000Y-106210000D02*
X159670000Y-106210000D01*
X153274999Y-115024999D02*
X155430000Y-117180000D01*
X154360000Y-111930000D02*
X153274999Y-113015001D01*
X153274999Y-113015001D02*
X153274999Y-115024999D01*
X161583111Y-123407141D02*
X161183112Y-123007142D01*
X170010000Y-128320000D02*
X168834999Y-127144999D01*
X165320969Y-127144999D02*
X161583111Y-123407141D01*
X168834999Y-127144999D02*
X165320969Y-127144999D01*
G04 #@! TO.N,Net-(Rotary1-Pad1)*
X121820001Y-109179999D02*
X122620000Y-108380000D01*
X121494999Y-109505001D02*
X121820001Y-109179999D01*
X121494999Y-121391716D02*
X121494999Y-109505001D01*
X112286705Y-130600010D02*
X121494999Y-121391716D01*
X103100010Y-130600010D02*
X112286705Y-130600010D01*
X101800000Y-129300000D02*
X103100010Y-130600010D01*
G04 #@! TO.N,Net-(Rotary1-Pad3)*
X106800000Y-129300000D02*
X106800000Y-124000000D01*
X106800000Y-124000000D02*
X107300000Y-123500000D01*
X110100000Y-124200000D02*
X115200000Y-124200000D01*
X115200000Y-124200000D02*
X117600000Y-121800000D01*
X117274999Y-109074999D02*
X119500000Y-111300000D01*
X125124990Y-139688295D02*
X125124990Y-140911705D01*
X122174981Y-136738286D02*
X125124990Y-139688295D01*
X123945001Y-86280001D02*
X123945001Y-85199999D01*
X117624990Y-127375010D02*
X117624990Y-130263180D01*
X122174981Y-134813171D02*
X122174981Y-136738286D01*
X120400000Y-124600000D02*
X117624990Y-127375010D01*
X117624990Y-130263180D02*
X122174981Y-134813171D01*
X122279999Y-84614999D02*
X117274999Y-89619999D01*
X123945001Y-85199999D02*
X123360001Y-84614999D01*
X125813295Y-141600010D02*
X126786705Y-141600010D01*
X117274999Y-89619999D02*
X117274999Y-109074999D01*
X126786705Y-141600010D02*
X127475010Y-140911705D01*
X127475010Y-140911705D02*
X127475010Y-139688295D01*
X125124990Y-140911705D02*
X125813295Y-141600010D01*
X127475010Y-139688295D02*
X136925001Y-130238304D01*
X136925001Y-130238304D02*
X136925001Y-99260001D01*
X136925001Y-99260001D02*
X123945001Y-86280001D01*
X123360001Y-84614999D02*
X122279999Y-84614999D01*
X125625000Y-111424993D02*
X125625000Y-114000000D01*
G04 #@! TO.N,Net-(Rotary1-Pad5)*
X123419999Y-115200001D02*
X122620000Y-116000000D01*
X123745001Y-114874999D02*
X123419999Y-115200001D01*
X123745001Y-107839999D02*
X123745001Y-114874999D01*
X123160001Y-107254999D02*
X123745001Y-107839999D01*
X122079999Y-107254999D02*
X123160001Y-107254999D01*
X120800000Y-108534998D02*
X122079999Y-107254999D01*
X120800000Y-120175000D02*
X120800000Y-108534998D01*
X111800000Y-129175000D02*
X120800000Y-120175000D01*
X111800000Y-129300000D02*
X111800000Y-129175000D01*
G04 #@! TO.N,Net-(Rotary2-Pad5)*
X122820000Y-95900000D02*
X124520000Y-97600000D01*
X126600000Y-99900000D02*
X128300000Y-101600000D01*
X128300000Y-101600000D02*
X128300000Y-101800000D01*
X131900000Y-112800000D02*
X132600000Y-113500000D01*
X126400000Y-119200000D02*
X127500000Y-120300000D01*
X127500000Y-120300000D02*
X127500000Y-123800000D01*
X132600000Y-113400000D02*
X132600000Y-113600000D01*
X129900000Y-110700000D02*
X132600000Y-113400000D01*
G04 #@! TO.N,Net-(Rotary2-Pad3)*
X134825001Y-103748001D02*
X128975011Y-109597991D01*
X134825001Y-98003589D02*
X134825001Y-103748001D01*
X128975011Y-123999989D02*
X123800000Y-129175000D01*
X123976411Y-87154999D02*
X134825001Y-98003589D01*
X123800000Y-129175000D02*
X123800000Y-129300000D01*
X122279999Y-87154999D02*
X123976411Y-87154999D01*
X128975011Y-109597991D02*
X128975011Y-123999989D01*
X121694999Y-87739999D02*
X122279999Y-87154999D01*
X121694999Y-92234999D02*
X121694999Y-87739999D01*
X122820000Y-93360000D02*
X121694999Y-92234999D01*
G04 #@! TO.N,Net-(Rotary2-Pad1)*
X119698372Y-128401628D02*
X118800000Y-129300000D01*
X121945009Y-119781989D02*
X121945009Y-126154991D01*
X124900000Y-116826998D02*
X121945009Y-119781989D01*
X124900000Y-107214998D02*
X124900000Y-116826998D01*
X131475001Y-100639997D02*
X124900000Y-107214998D01*
X131475001Y-95289999D02*
X131475001Y-100639997D01*
X128145002Y-91960000D02*
X131475001Y-95289999D01*
X126500000Y-91960000D02*
X128145002Y-91960000D01*
X121945009Y-126154991D02*
X119698372Y-128401628D01*
X122820000Y-88280000D02*
X126500000Y-91960000D01*
G04 #@! TD*
M02*
